M48
;Layer_Color=9474304
;FILE_FORMAT=4:4
METRIC,TZ
;TYPE=PLATED
T1F00S00C0.3000
T2F00S00C0.3050
T3F00S00C0.7000
T5F00S00C0.9000
T6F00S00C1.5000
T7F00S00C3.0000
%
T01
X586000Y30000
X600875Y30000
X603977Y20546
X610000Y13977
X620000Y10875
X629454Y13977
X636023Y20000
X639125Y30000
X636023Y39454
X630000Y46023
X620000Y49125
X610546Y46023
X603977Y40000
X616000Y90000
X556000
X586000Y150000
X616000Y210000
X556000
Y330000
X616000
X510869Y379609
X406000Y390000
X324250Y390994
Y370994
X324000Y348204
X316000Y330000
X304000Y337334
X304250Y360124
Y380124
Y400124
X286000Y390000
X286250Y369547
Y349547
Y329547
X286000Y306757
X261392Y279000
Y271000
X256000Y330000
X256211Y346000
X256461Y368790
Y388790
X271399Y397000
X226000Y390000
X226034Y373770
Y353770
Y333770
X225784Y310980
X186302Y329240
X186552Y352030
Y372030
Y392030
X144290Y395000
X152892Y374480
X152862Y350020
X159825Y345000
X163552Y317780
X152862Y312030
Y277000
X151000Y261116
X144000Y243922
X186991Y238989
X166000Y150000
X196593Y123000
X184000Y107000
X242000Y175000
X346000Y150000
X316000Y90000
X278500Y52000
X431000Y109000
X496000Y90000
X466000Y30000
X526000
Y150000
X466000Y270000
X127892Y277000
X127776Y261116
X112384Y260000
Y238000
X128162Y238237
X136000Y210000
X76000
X89892Y238000
X89554Y260000
X57324
Y238000
X76000Y330000
X127892Y312030
Y352500
X135392Y367500
X121500Y372500
X69500Y403500
X76000Y90000
X39892Y46023
X45915Y39454
X46000Y30000
X49017
X45915Y20000
X39346Y13977
X29892Y10875
X19892Y13977
X13869Y20546
X10767Y30000
X13869Y40000
X20438Y46023
X29892Y49125
X121500Y434500
X46000Y510000
Y630000
X46023Y660000
X39454Y653977
X30000Y650875
X20000Y653977
X13977Y660546
X10875Y670000
X13977Y680000
X20546Y686023
X30000Y689125
X40000Y686023
X46023Y679454
X49125Y670000
X247000Y612045
Y605000
X241838Y535683
X245838Y516683
X271338Y522183
X282338
Y511183
X271338
X258588Y495255
X250000Y488000
X234000Y464683
X203067Y487683
X198000Y499159
X169827Y499000
X159629
X219000Y508183
X269838Y546683
X280495Y549247
X295000Y545712
X295088Y535324
X298000Y492000
X346000Y510000
X352068Y552046
X370568Y556545
X363568Y585545
X349568
X316000Y570000
X376568Y611546
X441000Y612045
X466000Y630000
X479000Y587545
X496000Y580000
X519714Y579000
X539210Y578000
X454250Y533790
Y513790
Y493790
X454000Y471000
X428424
X428674Y493790
Y513790
Y533790
X406000Y510000
X441000Y449000
X479000Y485000
X498000Y480142
X271392Y419000
Y408500
X256461Y408790
X226000Y410000
X161558Y426000
X541390Y507116
X563123Y506000
X586000Y510000
X562200Y540000
X616000Y570000
X620000Y650875
X629454Y653977
X636023Y660000
X639125Y670000
X636023Y679454
X630000Y686023
X620000Y689125
X610546Y686023
X603977Y680000
X600875Y670000
X603977Y660546
X610000Y653977
X586000Y630000
T02
X151592Y79000
X151662Y98000
X196000Y107000
X191000Y79000
X216000Y138313
X228500Y147000
X253000Y118000
X260000Y199270
X287992Y199992
X315000Y206000
X351102Y211607
X353999Y219999
X365000Y227000
X342440Y244138
X287992
X189002Y218000
X405977Y226348
X432000Y222000
X431000Y232000
X433000Y202000
X406000Y193708
X479000Y182763
X487000Y174000
X507000Y207000
X515000Y218000
X485000Y234000
X520000Y302000
X515946Y352000
X520000Y372500
X492000Y335773
X430999Y355999
X431000Y308000
X403000Y94000
X394000Y102000
X391900Y76000
X400000
X411500Y85000
X409697Y24000
X510780Y45000
X510243Y128000
X471750Y98000
X299500Y54000
X235719Y31000
X142000Y47000
X130660Y87063
X131000Y132000
X71500Y223600
X29892Y223146
X25000Y198336
X7000Y181346
X29250Y274400
X73000
X125008Y407731
Y415831
X117256Y560433
Y567529
Y574624
X110000
Y567529
Y560433
X67697Y575454
X56000Y528338
X95000Y613315
X98000Y641483
X82000Y661000
X98000Y681000
X155000Y679420
X167374Y655520
X183000Y689000
X294406Y682000
X307500Y672149
Y663000
Y654187
X305585Y587925
X318568Y581642
X305791Y565454
X335000Y609092
X389568Y585175
X408568
X427568
X489000Y614000
X504000Y676000
X521000Y662000
X411000Y664270
X396000Y649000
X358402Y458683
X338402Y449512
X352900Y427000
X361000
X495999Y421999
X499000Y464683
X528000Y446000
X504000Y528000
X539500Y540592
X174120Y438000
X181000Y418100
Y410000
X552000Y434000
X567000Y479000
X566000Y576372
T03
X585390Y285000
Y305000
X585000Y363000
Y383000
X118000Y661000
X98000
X274000Y663000
X294000
X524001Y639000
X544001
X564001
X584000Y576372
Y556372
Y536372
Y478872
Y458872
Y438872
T05
X621390Y284000
Y309400
X620000Y359000
Y384400
X50400Y181346
Y155946
Y130546
X25000
Y155946
Y181346
X95000Y627000
X120400
X218028Y629000
X243428
X275898
X301298
X411000Y649000
X436400
X521000Y676000
X546400
X571800
X621500Y581772
Y556372
Y530972
X619000Y490900
Y465500
Y440100
T06
X47654Y223600
Y274400
X98454
Y223600
X73054Y249000
T07
X620000Y30000
X29892Y30000
X30000Y670000
X620000
M30
