G04*
G04 #@! TF.GenerationSoftware,Altium Limited,Altium Designer,18.1.9 (240)*
G04*
G04 Layer_Physical_Order=2*
G04 Layer_Color=16711680*
%FSLAX44Y44*%
%MOMM*%
G71*
G01*
G75*
%ADD10C,0.2540*%
%ADD15C,0.4000*%
%ADD66C,1.5000*%
%ADD74R,2.4000X1.4900*%
%ADD78R,2.0500X2.0500*%
%ADD103C,0.8000*%
%ADD105C,0.5000*%
%ADD111C,4.5000*%
%ADD112C,1.7780*%
%ADD113O,1.5000X2.5000*%
%ADD114C,2.2620*%
%ADD115O,1.6000X1.1000*%
%ADD116O,2.5000X1.5000*%
%ADD117R,1.5000X1.5000*%
%ADD118R,1.5000X1.5000*%
%ADD119C,0.6100*%
%ADD120C,0.6000*%
G36*
X650000Y0D02*
X640000Y0D01*
X0D01*
Y700000D01*
X650000Y700000D01*
X650000Y0D01*
D02*
G37*
%LPC*%
G36*
X184270Y692877D02*
Y690270D01*
X186877D01*
X186815Y690580D01*
X185920Y691920D01*
X184580Y692815D01*
X184270Y692877D01*
D02*
G37*
G36*
X181730D02*
X181420Y692815D01*
X180080Y691920D01*
X179185Y690580D01*
X179123Y690270D01*
X181730D01*
Y692877D01*
D02*
G37*
G36*
X186877Y687730D02*
X184270D01*
Y685123D01*
X184580Y685185D01*
X185920Y686080D01*
X186815Y687420D01*
X186877Y687730D01*
D02*
G37*
G36*
X181730D02*
X179123D01*
X179185Y687420D01*
X180080Y686080D01*
X181420Y685185D01*
X181730Y685123D01*
Y687730D01*
D02*
G37*
G36*
X295676Y685877D02*
Y683270D01*
X298283D01*
X298221Y683580D01*
X297326Y684920D01*
X295986Y685815D01*
X295676Y685877D01*
D02*
G37*
G36*
X293136D02*
X292826Y685815D01*
X291486Y684920D01*
X290591Y683580D01*
X290529Y683270D01*
X293136D01*
Y685877D01*
D02*
G37*
G36*
X99270Y684877D02*
Y682270D01*
X101877D01*
X101815Y682580D01*
X100920Y683920D01*
X99580Y684815D01*
X99270Y684877D01*
D02*
G37*
G36*
X96730D02*
X96420Y684815D01*
X95080Y683920D01*
X94185Y682580D01*
X94123Y682270D01*
X96730D01*
Y684877D01*
D02*
G37*
G36*
X284398Y682039D02*
X205000Y682039D01*
X205000Y682039D01*
X204220Y681884D01*
X203558Y681442D01*
X203558Y681442D01*
X169558Y647442D01*
X169558Y647442D01*
X98777Y576661D01*
X98335Y575999D01*
X98180Y575219D01*
X98180Y550909D01*
X98335Y550129D01*
X98777Y549467D01*
X99439Y549025D01*
X100219Y548870D01*
X122379Y548870D01*
X122379Y548870D01*
X123159Y549025D01*
X123821Y549467D01*
X204442Y630088D01*
X204884Y630750D01*
X205039Y631530D01*
Y636961D01*
X212354D01*
X212785Y635691D01*
X211966Y635062D01*
X210604Y633287D01*
X209747Y631219D01*
X209622Y630270D01*
X218028D01*
X226434D01*
X226309Y631219D01*
X225453Y633287D01*
X224090Y635062D01*
X223271Y635691D01*
X223702Y636961D01*
X233928D01*
Y619500D01*
X243387D01*
X243639Y618230D01*
X243470Y618160D01*
X242008Y617038D01*
X240886Y615576D01*
X240180Y613873D01*
X239940Y612045D01*
Y605000D01*
Y568924D01*
X177076Y506060D01*
X159629D01*
X157801Y505820D01*
X156098Y505115D01*
X154636Y503993D01*
X153514Y502530D01*
X152809Y500827D01*
X152568Y499000D01*
X152809Y497173D01*
X153514Y495470D01*
X154636Y494008D01*
X156098Y492886D01*
X157801Y492180D01*
X159629Y491940D01*
X180000D01*
X181827Y492180D01*
X183530Y492886D01*
X184993Y494008D01*
X251992Y561008D01*
X253114Y562470D01*
X253820Y564173D01*
X254060Y566000D01*
Y605000D01*
Y612045D01*
X253820Y613873D01*
X253114Y615576D01*
X251992Y617038D01*
X250530Y618160D01*
X250361Y618230D01*
X250613Y619500D01*
X252928D01*
Y636961D01*
X257799D01*
Y593183D01*
X257954Y592403D01*
X258396Y591741D01*
X267799Y582338D01*
Y552291D01*
X267821Y552179D01*
X267812Y552066D01*
X267692Y551864D01*
X265873Y550648D01*
X241873Y526648D01*
X240658Y524829D01*
X240231Y522683D01*
Y516683D01*
X240658Y514537D01*
X241873Y512718D01*
X243692Y511502D01*
X245838Y511076D01*
X247984Y511502D01*
X249804Y512718D01*
X251019Y514537D01*
X251446Y516683D01*
Y520360D01*
X266562Y535476D01*
X267926Y535044D01*
X267954Y534902D01*
X268396Y534241D01*
X269058Y533799D01*
X269838Y533644D01*
X289838Y533644D01*
X290619Y533799D01*
X290854Y533956D01*
X291320Y533763D01*
X292205Y532440D01*
X293528Y531556D01*
X293818Y531498D01*
Y535324D01*
Y539150D01*
X293528Y539092D01*
X293147Y538838D01*
X291877Y539517D01*
Y541460D01*
X293147Y542139D01*
X293439Y541944D01*
X293730Y541886D01*
Y545712D01*
Y549537D01*
X293439Y549479D01*
X293147Y549284D01*
X291877Y549963D01*
Y626213D01*
X293147Y626466D01*
X293873Y624713D01*
X295236Y622938D01*
X297011Y621575D01*
X299079Y620719D01*
X300028Y620594D01*
Y629000D01*
Y637406D01*
X299079Y637281D01*
X297011Y636425D01*
X295236Y635062D01*
X293873Y633287D01*
X293147Y631534D01*
X291877Y631787D01*
Y648425D01*
X292730Y649203D01*
Y663000D01*
Y676406D01*
X291781Y676281D01*
X289713Y675425D01*
X288293Y674335D01*
X286819Y674471D01*
X286772Y674567D01*
X286567Y674840D01*
X286437Y675034D01*
Y680000D01*
X286282Y680780D01*
X285840Y681442D01*
X285178Y681884D01*
X284398Y682039D01*
D02*
G37*
G36*
X156270Y683297D02*
Y680690D01*
X158877D01*
X158815Y681000D01*
X157920Y682340D01*
X156580Y683235D01*
X156270Y683297D01*
D02*
G37*
G36*
X153730D02*
X153420Y683235D01*
X152080Y682340D01*
X151185Y681000D01*
X151123Y680690D01*
X153730D01*
Y683297D01*
D02*
G37*
G36*
X298283Y680730D02*
X295676D01*
Y678123D01*
X295986Y678185D01*
X297326Y679080D01*
X298221Y680420D01*
X298283Y680730D01*
D02*
G37*
G36*
X293136D02*
X290529D01*
X290591Y680420D01*
X291486Y679080D01*
X292826Y678185D01*
X293136Y678123D01*
Y680730D01*
D02*
G37*
G36*
X505270Y679877D02*
Y677270D01*
X507877D01*
X507815Y677580D01*
X506920Y678920D01*
X505580Y679815D01*
X505270Y679877D01*
D02*
G37*
G36*
X502730D02*
X502420Y679815D01*
X501080Y678920D01*
X500185Y677580D01*
X500123Y677270D01*
X502730D01*
Y679877D01*
D02*
G37*
G36*
X522270Y684406D02*
Y677270D01*
X529406D01*
X529281Y678219D01*
X528425Y680287D01*
X527062Y682062D01*
X525287Y683425D01*
X523219Y684281D01*
X522270Y684406D01*
D02*
G37*
G36*
X519730D02*
X518781Y684281D01*
X516713Y683425D01*
X514938Y682062D01*
X513575Y680287D01*
X512719Y678219D01*
X512594Y677270D01*
X519730D01*
Y684406D01*
D02*
G37*
G36*
X101877Y679730D02*
X99270D01*
Y677123D01*
X99580Y677185D01*
X100920Y678080D01*
X101815Y679420D01*
X101877Y679730D01*
D02*
G37*
G36*
X96730D02*
X94123D01*
X94185Y679420D01*
X95080Y678080D01*
X96420Y677185D01*
X96730Y677123D01*
Y679730D01*
D02*
G37*
G36*
X158877Y678150D02*
X156270D01*
Y675543D01*
X156580Y675605D01*
X157920Y676500D01*
X158815Y677840D01*
X158877Y678150D01*
D02*
G37*
G36*
X153730D02*
X151123D01*
X151185Y677840D01*
X152080Y676500D01*
X153420Y675605D01*
X153730Y675543D01*
Y678150D01*
D02*
G37*
G36*
X308770Y676025D02*
Y673419D01*
X311377D01*
X311315Y673729D01*
X310420Y675069D01*
X309080Y675964D01*
X308770Y676025D01*
D02*
G37*
G36*
X306230D02*
X305920Y675964D01*
X304580Y675069D01*
X303685Y673729D01*
X303623Y673419D01*
X306230D01*
Y676025D01*
D02*
G37*
G36*
X507877Y674730D02*
X505270D01*
Y672123D01*
X505580Y672185D01*
X506920Y673080D01*
X507815Y674420D01*
X507877Y674730D01*
D02*
G37*
G36*
X502730D02*
X500123D01*
X500185Y674420D01*
X501080Y673080D01*
X502420Y672185D01*
X502730Y672123D01*
Y674730D01*
D02*
G37*
G36*
X621270Y693489D02*
Y671270D01*
X643489D01*
X643160Y674607D01*
X641816Y679037D01*
X639634Y683119D01*
X636697Y686697D01*
X633119Y689634D01*
X629037Y691816D01*
X624607Y693160D01*
X621270Y693489D01*
D02*
G37*
G36*
X31270D02*
Y671270D01*
X53489D01*
X53160Y674607D01*
X51816Y679037D01*
X49634Y683119D01*
X46697Y686697D01*
X43119Y689634D01*
X39037Y691816D01*
X34607Y693160D01*
X31270Y693489D01*
D02*
G37*
G36*
X618730D02*
X615393Y693160D01*
X610963Y691816D01*
X606881Y689634D01*
X603303Y686697D01*
X600366Y683119D01*
X598184Y679037D01*
X596840Y674607D01*
X596511Y671270D01*
X618730D01*
Y693489D01*
D02*
G37*
G36*
X28730D02*
X25393Y693160D01*
X20963Y691816D01*
X16881Y689634D01*
X13303Y686697D01*
X10366Y683119D01*
X8184Y679037D01*
X6840Y674607D01*
X6511Y671270D01*
X28730D01*
Y693489D01*
D02*
G37*
G36*
X529406Y674730D02*
X522270D01*
Y667594D01*
X523219Y667719D01*
X525287Y668575D01*
X527062Y669938D01*
X528425Y671713D01*
X529281Y673781D01*
X529406Y674730D01*
D02*
G37*
G36*
X519730D02*
X512594D01*
X512719Y673781D01*
X513575Y671713D01*
X514938Y669938D01*
X516713Y668575D01*
X518781Y667719D01*
X519730Y667594D01*
Y674730D01*
D02*
G37*
G36*
X581300Y685500D02*
X562300D01*
Y666500D01*
X581300D01*
Y685500D01*
D02*
G37*
G36*
X546400Y685582D02*
X543920Y685256D01*
X541609Y684298D01*
X539625Y682775D01*
X538102Y680791D01*
X537145Y678480D01*
X536818Y676000D01*
X537145Y673520D01*
X538102Y671209D01*
X539625Y669225D01*
X541609Y667702D01*
X543920Y666745D01*
X546400Y666418D01*
X548880Y666745D01*
X551191Y667702D01*
X553176Y669225D01*
X554698Y671209D01*
X555656Y673520D01*
X555982Y676000D01*
X555656Y678480D01*
X554698Y680791D01*
X553176Y682775D01*
X551191Y684298D01*
X548880Y685256D01*
X546400Y685582D01*
D02*
G37*
G36*
X412270Y668147D02*
Y665540D01*
X414877D01*
X414815Y665850D01*
X413920Y667190D01*
X412580Y668085D01*
X412270Y668147D01*
D02*
G37*
G36*
X409730D02*
X409420Y668085D01*
X408080Y667190D01*
X407185Y665850D01*
X407123Y665540D01*
X409730D01*
Y668147D01*
D02*
G37*
G36*
X522270Y665877D02*
Y663270D01*
X524877D01*
X524815Y663580D01*
X523920Y664920D01*
X522580Y665815D01*
X522270Y665877D01*
D02*
G37*
G36*
X519730D02*
X519420Y665815D01*
X518080Y664920D01*
X517185Y663580D01*
X517123Y663270D01*
X519730D01*
Y665877D01*
D02*
G37*
G36*
X83270Y664877D02*
Y662270D01*
X85877D01*
X85815Y662580D01*
X84920Y663920D01*
X83580Y664815D01*
X83270Y664877D01*
D02*
G37*
G36*
X80730D02*
X80420Y664815D01*
X79080Y663920D01*
X78185Y662580D01*
X78123Y662270D01*
X80730D01*
Y664877D01*
D02*
G37*
G36*
X99270Y674406D02*
Y662270D01*
X106573D01*
Y666000D01*
X106281Y668219D01*
X105425Y670287D01*
X104062Y672062D01*
X102287Y673425D01*
X100219Y674281D01*
X99270Y674406D01*
D02*
G37*
G36*
X96730D02*
X95781Y674281D01*
X93713Y673425D01*
X91938Y672062D01*
X90575Y670287D01*
X89719Y668219D01*
X89427Y666000D01*
Y662270D01*
X96730D01*
Y674406D01*
D02*
G37*
G36*
X414877Y663000D02*
X412270D01*
Y660393D01*
X412580Y660455D01*
X413920Y661350D01*
X414815Y662690D01*
X414877Y663000D01*
D02*
G37*
G36*
X409730D02*
X407123D01*
X407185Y662690D01*
X408080Y661350D01*
X409420Y660455D01*
X409730Y660393D01*
Y663000D01*
D02*
G37*
G36*
X524877Y660730D02*
X522270D01*
Y658123D01*
X522580Y658185D01*
X523920Y659080D01*
X524815Y660420D01*
X524877Y660730D01*
D02*
G37*
G36*
X519730D02*
X517123D01*
X517185Y660420D01*
X518080Y659080D01*
X519420Y658185D01*
X519730Y658123D01*
Y660730D01*
D02*
G37*
G36*
X85877Y659730D02*
X83270D01*
Y657123D01*
X83580Y657185D01*
X84920Y658080D01*
X85815Y659420D01*
X85877Y659730D01*
D02*
G37*
G36*
X80730D02*
X78123D01*
X78185Y659420D01*
X79080Y658080D01*
X80420Y657185D01*
X80730Y657123D01*
Y659730D01*
D02*
G37*
G36*
X168644Y659397D02*
Y656790D01*
X171250D01*
X171189Y657100D01*
X170294Y658440D01*
X168954Y659335D01*
X168644Y659397D01*
D02*
G37*
G36*
X166104D02*
X165793Y659335D01*
X164454Y658440D01*
X163559Y657100D01*
X163497Y656790D01*
X166104D01*
Y659397D01*
D02*
G37*
G36*
X295270Y676406D02*
Y663000D01*
Y649594D01*
X296219Y649719D01*
X298287Y650575D01*
X300062Y651938D01*
X301425Y653713D01*
X302281Y655781D01*
X302573Y658000D01*
Y660972D01*
X302662Y661007D01*
X303843Y661183D01*
X304580Y660080D01*
X305791Y659271D01*
X305860Y658594D01*
X305791Y657916D01*
X304580Y657107D01*
X303685Y655767D01*
X303623Y655457D01*
X311377D01*
X311315Y655767D01*
X310420Y657107D01*
X309209Y657916D01*
X309140Y658594D01*
X309209Y659271D01*
X310420Y660080D01*
X311315Y661420D01*
X311377Y661730D01*
X307500D01*
Y664270D01*
X311377D01*
X311315Y664580D01*
X310420Y665920D01*
X309080Y666815D01*
X308518Y666927D01*
Y668222D01*
X309080Y668334D01*
X310420Y669229D01*
X311315Y670568D01*
X311377Y670879D01*
X303623D01*
X303685Y670568D01*
X304580Y669229D01*
X305920Y668334D01*
X306482Y668222D01*
Y666927D01*
X305920Y666815D01*
X304580Y665920D01*
X303843Y664817D01*
X302662Y664993D01*
X302573Y665029D01*
Y668000D01*
X302281Y670219D01*
X301425Y672287D01*
X300062Y674062D01*
X298287Y675425D01*
X296219Y676281D01*
X295270Y676406D01*
D02*
G37*
G36*
X171250Y654250D02*
X168644D01*
Y651643D01*
X168954Y651705D01*
X170294Y652600D01*
X171189Y653940D01*
X171250Y654250D01*
D02*
G37*
G36*
X166104D02*
X163497D01*
X163559Y653940D01*
X164454Y652600D01*
X165793Y651705D01*
X166104Y651643D01*
Y654250D01*
D02*
G37*
G36*
X311377Y652917D02*
X308770D01*
Y650310D01*
X309080Y650372D01*
X310420Y651267D01*
X311315Y652607D01*
X311377Y652917D01*
D02*
G37*
G36*
X306230D02*
X303623D01*
X303685Y652607D01*
X304580Y651267D01*
X305920Y650372D01*
X306230Y650310D01*
Y652917D01*
D02*
G37*
G36*
X397270Y652877D02*
Y650270D01*
X399877D01*
X399815Y650580D01*
X398920Y651920D01*
X397580Y652815D01*
X397270Y652877D01*
D02*
G37*
G36*
X394730D02*
X394420Y652815D01*
X393080Y651920D01*
X392185Y650580D01*
X392123Y650270D01*
X394730D01*
Y652877D01*
D02*
G37*
G36*
X412270Y657406D02*
Y650270D01*
X419406D01*
X419281Y651219D01*
X418425Y653287D01*
X417062Y655062D01*
X415287Y656425D01*
X413219Y657281D01*
X412270Y657406D01*
D02*
G37*
G36*
X409730D02*
X408781Y657281D01*
X406713Y656425D01*
X404938Y655062D01*
X403575Y653287D01*
X402719Y651219D01*
X402594Y650270D01*
X409730D01*
Y657406D01*
D02*
G37*
G36*
X106573Y659730D02*
X99270D01*
Y647594D01*
X100219Y647719D01*
X102287Y648575D01*
X104062Y649938D01*
X105425Y651713D01*
X106281Y653781D01*
X106573Y656000D01*
Y659730D01*
D02*
G37*
G36*
X96730D02*
X89427D01*
Y656000D01*
X89719Y653781D01*
X90575Y651713D01*
X91938Y649938D01*
X93713Y648575D01*
X95781Y647719D01*
X96730Y647594D01*
Y659730D01*
D02*
G37*
G36*
X643489Y668730D02*
X621270D01*
Y646511D01*
X624607Y646840D01*
X629037Y648184D01*
X633119Y650366D01*
X636697Y653303D01*
X639634Y656881D01*
X641816Y660963D01*
X643160Y665393D01*
X643489Y668730D01*
D02*
G37*
G36*
X53489D02*
X31270D01*
Y646511D01*
X34607Y646840D01*
X39037Y648184D01*
X43119Y650366D01*
X46697Y653303D01*
X49634Y656881D01*
X51816Y660963D01*
X53160Y665393D01*
X53489Y668730D01*
D02*
G37*
G36*
X618730D02*
X596511D01*
X596840Y665393D01*
X598184Y660963D01*
X600366Y656881D01*
X603303Y653303D01*
X606881Y650366D01*
X610963Y648184D01*
X615393Y646840D01*
X618730Y646511D01*
Y668730D01*
D02*
G37*
G36*
X28730D02*
X6511D01*
X6840Y665393D01*
X8184Y660963D01*
X10366Y656881D01*
X13303Y653303D01*
X16881Y650366D01*
X20963Y648184D01*
X25393Y646840D01*
X28730Y646511D01*
Y668730D01*
D02*
G37*
G36*
X118000Y675582D02*
X115520Y675256D01*
X113209Y674298D01*
X111225Y672775D01*
X109702Y670791D01*
X108745Y668480D01*
X108418Y666000D01*
Y656000D01*
X108745Y653520D01*
X109702Y651209D01*
X111225Y649225D01*
X113209Y647702D01*
X115520Y646745D01*
X118000Y646418D01*
X120480Y646745D01*
X122791Y647702D01*
X124775Y649225D01*
X126298Y651209D01*
X127255Y653520D01*
X127582Y656000D01*
Y666000D01*
X127255Y668480D01*
X126298Y670791D01*
X124775Y672775D01*
X122791Y674298D01*
X120480Y675256D01*
X118000Y675582D01*
D02*
G37*
G36*
X564001Y653582D02*
X561521Y653256D01*
X559210Y652298D01*
X557225Y650776D01*
X555703Y648791D01*
X554745Y646480D01*
X554641Y645690D01*
X553360D01*
X553256Y646480D01*
X552299Y648791D01*
X550776Y650776D01*
X548792Y652298D01*
X546481Y653256D01*
X544001Y653582D01*
X541521Y653256D01*
X539210Y652298D01*
X537225Y650776D01*
X535703Y648791D01*
X534745Y646480D01*
X534419Y644000D01*
Y634000D01*
X534745Y631520D01*
X535703Y629209D01*
X537225Y627225D01*
X537902Y626705D01*
Y614000D01*
X538290Y612049D01*
X539395Y610395D01*
X546902Y602888D01*
Y434256D01*
X546851Y434000D01*
X546902Y433744D01*
Y378000D01*
X547290Y376049D01*
X548395Y374395D01*
X563395Y359395D01*
X565049Y358290D01*
X567000Y357902D01*
X571937D01*
X573225Y356225D01*
X575209Y354702D01*
X577520Y353745D01*
X580000Y353418D01*
X590000D01*
X592480Y353745D01*
X594791Y354702D01*
X596776Y356225D01*
X598298Y358209D01*
X598632Y359015D01*
X599902Y358762D01*
Y348112D01*
X581785Y329995D01*
X580680Y328341D01*
X580292Y326390D01*
Y314569D01*
X577910Y314256D01*
X575599Y313298D01*
X573615Y311775D01*
X572092Y309791D01*
X571134Y307480D01*
X570808Y305000D01*
X571134Y302520D01*
X572092Y300209D01*
X573615Y298225D01*
X575599Y296702D01*
X577910Y295745D01*
X578700Y295641D01*
Y294360D01*
X577910Y294256D01*
X575599Y293298D01*
X573615Y291775D01*
X572092Y289791D01*
X571134Y287480D01*
X570808Y285000D01*
X571134Y282520D01*
X572092Y280209D01*
X573615Y278225D01*
X575599Y276702D01*
X577910Y275745D01*
X578902Y275614D01*
Y264112D01*
X526888Y212098D01*
X517369D01*
X517201Y212579D01*
X517157Y213368D01*
X518641Y214359D01*
X518786Y214576D01*
X523605Y219395D01*
X524710Y221049D01*
X525098Y223000D01*
Y301744D01*
X525149Y302000D01*
X524757Y303970D01*
X523641Y305641D01*
X521970Y306757D01*
X520000Y307149D01*
X518030Y306757D01*
X516359Y305641D01*
X515243Y303970D01*
X514851Y302000D01*
X514902Y301744D01*
Y225112D01*
X513271Y223481D01*
X512098Y223967D01*
Y348289D01*
X512246Y348415D01*
X513368Y348852D01*
X514366Y348185D01*
X514676Y348123D01*
Y352000D01*
Y355877D01*
X514366Y355815D01*
X513026Y354920D01*
X513019Y354909D01*
X512297Y354949D01*
X511625Y355108D01*
X510605Y356635D01*
X502048Y365191D01*
Y421048D01*
X501660Y422999D01*
X500555Y424653D01*
X499785Y425423D01*
X499640Y425640D01*
X497969Y426756D01*
X495999Y427148D01*
X495029Y426955D01*
X494047Y427761D01*
Y462694D01*
X494454Y462840D01*
X495317Y462905D01*
X496080Y461763D01*
X497420Y460868D01*
X497730Y460806D01*
Y464683D01*
Y468560D01*
X497420Y468498D01*
X496080Y467603D01*
X495317Y466461D01*
X494454Y466526D01*
X494047Y466672D01*
Y476572D01*
X494553Y476896D01*
X495317Y477124D01*
X496439Y476374D01*
X496730Y476316D01*
Y480142D01*
Y483967D01*
X496439Y483909D01*
X495317Y483160D01*
X494553Y483387D01*
X494047Y483711D01*
Y575083D01*
X494730Y575607D01*
Y580000D01*
Y584393D01*
X494047Y584917D01*
Y602795D01*
X494098Y603051D01*
Y613744D01*
X494149Y614000D01*
X493757Y615970D01*
X492641Y617641D01*
X490970Y618757D01*
X489000Y619149D01*
X487030Y618757D01*
X485359Y617641D01*
X484243Y615970D01*
X483851Y614000D01*
X483902Y613744D01*
Y603256D01*
X483851Y603000D01*
Y589675D01*
X482581Y589386D01*
X481884Y590429D01*
X480561Y591313D01*
X480270Y591371D01*
Y587545D01*
Y583720D01*
X480561Y583778D01*
X481884Y584661D01*
X482581Y585705D01*
X483851Y585415D01*
Y487130D01*
X482581Y486841D01*
X481884Y487884D01*
X480561Y488768D01*
X480270Y488826D01*
Y485000D01*
Y481174D01*
X480561Y481232D01*
X481884Y482116D01*
X482581Y483160D01*
X483851Y482870D01*
Y362596D01*
X484239Y360645D01*
X485344Y358991D01*
X494902Y349433D01*
Y340052D01*
X493782Y339453D01*
X493580Y339588D01*
X493270Y339650D01*
Y335773D01*
Y331897D01*
X493580Y331958D01*
X493782Y332093D01*
X494902Y331494D01*
Y228112D01*
X475395Y208605D01*
X474290Y206951D01*
X473902Y205000D01*
Y184875D01*
X470106Y181079D01*
X469741Y181230D01*
X467000Y181591D01*
X464259Y181230D01*
X461705Y180172D01*
X459511Y178489D01*
X457828Y176295D01*
X456770Y173741D01*
X456409Y171000D01*
X456770Y168259D01*
X457828Y165705D01*
X459511Y163511D01*
X461705Y161828D01*
X464259Y160770D01*
X467000Y160410D01*
X469741Y160770D01*
X472295Y161828D01*
X474489Y163511D01*
X476172Y165705D01*
X477230Y168259D01*
X477591Y171000D01*
X477230Y173741D01*
X477217Y173771D01*
X480729Y177282D01*
X481902Y176796D01*
Y174256D01*
X481851Y174000D01*
X482243Y172030D01*
X482646Y171426D01*
Y160976D01*
X480705Y160172D01*
X478511Y158489D01*
X476828Y156295D01*
X475770Y153741D01*
X475409Y151000D01*
X475770Y148259D01*
X476828Y145705D01*
X478511Y143511D01*
X480705Y141828D01*
X483259Y140770D01*
X486000Y140409D01*
X488741Y140770D01*
X491295Y141828D01*
X493489Y143511D01*
X495172Y145705D01*
X496230Y148259D01*
X496591Y151000D01*
X496230Y153741D01*
X495172Y156295D01*
X493489Y158489D01*
X491354Y160127D01*
Y171426D01*
X491757Y172030D01*
X492149Y174000D01*
X492098Y174256D01*
Y196917D01*
X500953Y205772D01*
X502169Y205403D01*
X502243Y205030D01*
X503359Y203359D01*
X505030Y202243D01*
X507000Y201851D01*
X507256Y201902D01*
X528996D01*
X528999Y201901D01*
X530950Y202290D01*
X532604Y203395D01*
X587605Y258395D01*
X588710Y260049D01*
X589098Y262000D01*
Y275418D01*
X590390D01*
X592870Y275745D01*
X595181Y276702D01*
X597165Y278225D01*
X598688Y280209D01*
X599646Y282520D01*
X599972Y285000D01*
X599646Y287480D01*
X598688Y289791D01*
X597165Y291775D01*
X595181Y293298D01*
X592870Y294256D01*
X592080Y294360D01*
Y295641D01*
X592870Y295745D01*
X595181Y296702D01*
X597165Y298225D01*
X598688Y300209D01*
X599646Y302520D01*
X599972Y305000D01*
X599646Y307480D01*
X598688Y309791D01*
X597165Y311775D01*
X595181Y313298D01*
X592870Y314256D01*
X590488Y314569D01*
Y324278D01*
X608605Y342395D01*
X609710Y344049D01*
X610098Y346000D01*
Y348397D01*
X610500Y349500D01*
X611368Y349500D01*
X629500D01*
Y368500D01*
X611368D01*
X610500Y368500D01*
X610098Y369604D01*
Y380162D01*
X611368Y380415D01*
X611702Y379609D01*
X613225Y377625D01*
X615209Y376102D01*
X617520Y375145D01*
X620000Y374818D01*
X622480Y375145D01*
X624791Y376102D01*
X626776Y377625D01*
X628298Y379609D01*
X629255Y381920D01*
X629582Y384400D01*
X629255Y386880D01*
X628298Y389191D01*
X626776Y391175D01*
X624791Y392698D01*
X622480Y393656D01*
X620000Y393982D01*
X617520Y393656D01*
X615209Y392698D01*
X613225Y391175D01*
X611702Y389191D01*
X611368Y388385D01*
X610098Y388638D01*
Y430600D01*
X628500D01*
Y449600D01*
X610098D01*
Y459410D01*
X611368Y459841D01*
X612225Y458725D01*
X614209Y457202D01*
X616520Y456245D01*
X619000Y455918D01*
X621480Y456245D01*
X623791Y457202D01*
X625775Y458725D01*
X627298Y460709D01*
X628256Y463020D01*
X628582Y465500D01*
X628256Y467980D01*
X627298Y470291D01*
X625775Y472276D01*
X623791Y473798D01*
X621480Y474756D01*
X619000Y475082D01*
X616520Y474756D01*
X614209Y473798D01*
X612225Y472276D01*
X611368Y471159D01*
X610098Y471590D01*
Y486861D01*
X611368Y487114D01*
X611575Y486613D01*
X612938Y484838D01*
X614713Y483475D01*
X616781Y482619D01*
X617730Y482494D01*
Y490900D01*
Y499306D01*
X616781Y499181D01*
X614713Y498325D01*
X612938Y496962D01*
X611575Y495187D01*
X611368Y494686D01*
X610098Y494939D01*
Y583000D01*
X609710Y584951D01*
X608605Y586605D01*
X569878Y625332D01*
X569961Y626599D01*
X570776Y627225D01*
X572299Y629209D01*
X573256Y631520D01*
X573583Y634000D01*
Y644000D01*
X573256Y646480D01*
X572299Y648791D01*
X570776Y650776D01*
X568792Y652298D01*
X566481Y653256D01*
X564001Y653582D01*
D02*
G37*
G36*
X399877Y647730D02*
X397270D01*
Y645123D01*
X397580Y645185D01*
X398920Y646080D01*
X399815Y647420D01*
X399877Y647730D01*
D02*
G37*
G36*
X394730D02*
X392123D01*
X392185Y647420D01*
X393080Y646080D01*
X394420Y645185D01*
X394730Y645123D01*
Y647730D01*
D02*
G37*
G36*
X99270Y645360D02*
Y642753D01*
X101877D01*
X101815Y643063D01*
X100920Y644403D01*
X99580Y645298D01*
X99270Y645360D01*
D02*
G37*
G36*
X96730D02*
X96420Y645298D01*
X95080Y644403D01*
X94185Y643063D01*
X94123Y642753D01*
X96730D01*
Y645360D01*
D02*
G37*
G36*
X419406Y647730D02*
X412270D01*
Y640594D01*
X413219Y640719D01*
X415287Y641575D01*
X417062Y642938D01*
X418425Y644713D01*
X419281Y646781D01*
X419406Y647730D01*
D02*
G37*
G36*
X409730D02*
X402594D01*
X402719Y646781D01*
X403575Y644713D01*
X404938Y642938D01*
X406713Y641575D01*
X408781Y640719D01*
X409730Y640594D01*
Y647730D01*
D02*
G37*
G36*
X525271Y652406D02*
Y640270D01*
X532574D01*
Y644000D01*
X532282Y646219D01*
X531426Y648287D01*
X530063Y650062D01*
X528288Y651425D01*
X526220Y652281D01*
X525271Y652406D01*
D02*
G37*
G36*
X522731D02*
X521782Y652281D01*
X519714Y651425D01*
X517939Y650062D01*
X516576Y648287D01*
X515720Y646219D01*
X515428Y644000D01*
Y640270D01*
X522731D01*
Y652406D01*
D02*
G37*
G36*
X101877Y640213D02*
X99270D01*
Y637607D01*
X99580Y637668D01*
X100920Y638563D01*
X101815Y639903D01*
X101877Y640213D01*
D02*
G37*
G36*
X96730D02*
X94123D01*
X94185Y639903D01*
X95080Y638563D01*
X96420Y637668D01*
X96730Y637607D01*
Y640213D01*
D02*
G37*
G36*
X587270Y633826D02*
Y631270D01*
X589826D01*
X589768Y631561D01*
X588884Y632884D01*
X587561Y633768D01*
X587270Y633826D01*
D02*
G37*
G36*
X584730D02*
X584439Y633768D01*
X583116Y632884D01*
X582232Y631561D01*
X582174Y631270D01*
X584730D01*
Y633826D01*
D02*
G37*
G36*
X467270D02*
Y631270D01*
X469826D01*
X469768Y631561D01*
X468884Y632884D01*
X467561Y633768D01*
X467270Y633826D01*
D02*
G37*
G36*
X464730D02*
X464439Y633768D01*
X463116Y632884D01*
X462232Y631561D01*
X462174Y631270D01*
X464730D01*
Y633826D01*
D02*
G37*
G36*
X47270D02*
Y631270D01*
X49826D01*
X49768Y631561D01*
X48884Y632884D01*
X47561Y633768D01*
X47270Y633826D01*
D02*
G37*
G36*
X44730D02*
X44439Y633768D01*
X43116Y632884D01*
X42232Y631561D01*
X42174Y631270D01*
X44730D01*
Y633826D01*
D02*
G37*
G36*
X302568Y637406D02*
Y630270D01*
X309704D01*
X309579Y631219D01*
X308723Y633287D01*
X307360Y635062D01*
X305585Y636425D01*
X303517Y637281D01*
X302568Y637406D01*
D02*
G37*
G36*
X96270Y635406D02*
Y628270D01*
X103406D01*
X103281Y629219D01*
X102425Y631287D01*
X101062Y633062D01*
X99287Y634425D01*
X97219Y635281D01*
X96270Y635406D01*
D02*
G37*
G36*
X93730D02*
X92781Y635281D01*
X90713Y634425D01*
X88938Y633062D01*
X87575Y631287D01*
X86719Y629219D01*
X86594Y628270D01*
X93730D01*
Y635406D01*
D02*
G37*
G36*
X589826Y628730D02*
X587270D01*
Y626174D01*
X587561Y626232D01*
X588884Y627116D01*
X589768Y628439D01*
X589826Y628730D01*
D02*
G37*
G36*
X584730D02*
X582174D01*
X582232Y628439D01*
X583116Y627116D01*
X584439Y626232D01*
X584730Y626174D01*
Y628730D01*
D02*
G37*
G36*
X469826D02*
X467270D01*
Y626174D01*
X467561Y626232D01*
X468884Y627116D01*
X469768Y628439D01*
X469826Y628730D01*
D02*
G37*
G36*
X464730D02*
X462174D01*
X462232Y628439D01*
X463116Y627116D01*
X464439Y626232D01*
X464730Y626174D01*
Y628730D01*
D02*
G37*
G36*
X49826D02*
X47270D01*
Y626174D01*
X47561Y626232D01*
X48884Y627116D01*
X49768Y628439D01*
X49826Y628730D01*
D02*
G37*
G36*
X44730D02*
X42174D01*
X42232Y628439D01*
X43116Y627116D01*
X44439Y626232D01*
X44730Y626174D01*
Y628730D01*
D02*
G37*
G36*
X532574Y637730D02*
X525271D01*
Y625594D01*
X526220Y625719D01*
X528288Y626575D01*
X530063Y627938D01*
X531426Y629713D01*
X532282Y631781D01*
X532574Y634000D01*
Y637730D01*
D02*
G37*
G36*
X522731D02*
X515428D01*
Y634000D01*
X515720Y631781D01*
X516576Y629713D01*
X517939Y627938D01*
X519714Y626575D01*
X521782Y625719D01*
X522731Y625594D01*
Y637730D01*
D02*
G37*
G36*
X226434Y627730D02*
X219298D01*
Y620594D01*
X220247Y620719D01*
X222315Y621575D01*
X224090Y622938D01*
X225453Y624713D01*
X226309Y626781D01*
X226434Y627730D01*
D02*
G37*
G36*
X309704Y627730D02*
X302568D01*
Y620594D01*
X303517Y620719D01*
X305585Y621575D01*
X307360Y622938D01*
X308723Y624713D01*
X309579Y626781D01*
X309704Y627730D01*
D02*
G37*
G36*
X216758Y627730D02*
X209622D01*
X209747Y626781D01*
X210604Y624713D01*
X211966Y622938D01*
X213741Y621575D01*
X215809Y620719D01*
X216758Y620594D01*
Y627730D01*
D02*
G37*
G36*
X129900Y636500D02*
X110900D01*
Y617500D01*
X129900D01*
Y636500D01*
D02*
G37*
G36*
X103406Y625730D02*
X95000D01*
X86594D01*
X86719Y624781D01*
X87575Y622713D01*
X88938Y620938D01*
X90713Y619575D01*
X92781Y618719D01*
X94054Y618551D01*
X94096Y617265D01*
X93420Y617130D01*
X92080Y616235D01*
X91185Y614896D01*
X91123Y614585D01*
X98877D01*
X98815Y614896D01*
X97920Y616235D01*
X96580Y617130D01*
X95904Y617265D01*
X95946Y618551D01*
X97219Y618719D01*
X99287Y619575D01*
X101062Y620938D01*
X102425Y622713D01*
X103281Y624781D01*
X103406Y625730D01*
D02*
G37*
G36*
X98877Y612045D02*
X96270D01*
Y609439D01*
X96580Y609500D01*
X97920Y610396D01*
X98815Y611735D01*
X98877Y612045D01*
D02*
G37*
G36*
X93730D02*
X91123D01*
X91185Y611735D01*
X92080Y610396D01*
X93420Y609500D01*
X93730Y609439D01*
Y612045D01*
D02*
G37*
G36*
X306855Y591802D02*
Y589195D01*
X309461D01*
X309400Y589506D01*
X308505Y590845D01*
X307165Y591740D01*
X306855Y591802D01*
D02*
G37*
G36*
X304315D02*
X304004Y591740D01*
X302665Y590845D01*
X301770Y589506D01*
X301708Y589195D01*
X304315D01*
Y591802D01*
D02*
G37*
G36*
X477730Y591371D02*
X477439Y591313D01*
X476116Y590429D01*
X475232Y589106D01*
X475174Y588815D01*
X477730D01*
Y591371D01*
D02*
G37*
G36*
X369568Y593995D02*
X357838D01*
Y586815D01*
X369568D01*
Y593995D01*
D02*
G37*
G36*
X355298D02*
X343568D01*
Y586815D01*
X355298D01*
Y593995D01*
D02*
G37*
G36*
X428838Y589052D02*
Y586445D01*
X431445D01*
X431383Y586756D01*
X430488Y588095D01*
X429148Y588990D01*
X428838Y589052D01*
D02*
G37*
G36*
X426298D02*
X425988Y588990D01*
X424648Y588095D01*
X423753Y586756D01*
X423691Y586445D01*
X426298D01*
Y589052D01*
D02*
G37*
G36*
X409838D02*
Y586445D01*
X412445D01*
X412383Y586756D01*
X411488Y588095D01*
X410148Y588990D01*
X409838Y589052D01*
D02*
G37*
G36*
X407298D02*
X406988Y588990D01*
X405648Y588095D01*
X404753Y586756D01*
X404691Y586445D01*
X407298D01*
Y589052D01*
D02*
G37*
G36*
X390838D02*
Y586445D01*
X393445D01*
X393383Y586756D01*
X392488Y588095D01*
X391148Y588990D01*
X390838Y589052D01*
D02*
G37*
G36*
X388298D02*
X387988Y588990D01*
X386648Y588095D01*
X385753Y586756D01*
X385691Y586445D01*
X388298D01*
Y589052D01*
D02*
G37*
G36*
X309461Y586655D02*
X306855D01*
Y584049D01*
X307165Y584110D01*
X308505Y585005D01*
X309400Y586345D01*
X309461Y586655D01*
D02*
G37*
G36*
X304315D02*
X301708D01*
X301770Y586345D01*
X302665Y585005D01*
X304004Y584110D01*
X304315Y584049D01*
Y586655D01*
D02*
G37*
G36*
X477730Y586275D02*
X475174D01*
X475232Y585985D01*
X476116Y584661D01*
X477439Y583778D01*
X477730Y583720D01*
Y586275D01*
D02*
G37*
G36*
X622770Y590178D02*
Y583041D01*
X629906D01*
X629781Y583991D01*
X628925Y586058D01*
X627562Y587834D01*
X625787Y589196D01*
X623719Y590053D01*
X622770Y590178D01*
D02*
G37*
G36*
X620230Y590178D02*
X619281Y590053D01*
X617213Y589196D01*
X615438Y587834D01*
X614075Y586058D01*
X613219Y583991D01*
X613094Y583041D01*
X620230D01*
Y590178D01*
D02*
G37*
G36*
X319838Y585519D02*
Y582912D01*
X322445D01*
X322383Y583222D01*
X321488Y584562D01*
X320148Y585457D01*
X319838Y585519D01*
D02*
G37*
G36*
X317298D02*
X316988Y585457D01*
X315648Y584562D01*
X314753Y583222D01*
X314692Y582912D01*
X317298D01*
Y585519D01*
D02*
G37*
G36*
X431445Y583905D02*
X428838D01*
Y581299D01*
X429148Y581360D01*
X430488Y582256D01*
X431383Y583595D01*
X431445Y583905D01*
D02*
G37*
G36*
X426298D02*
X423691D01*
X423753Y583595D01*
X424648Y582256D01*
X425988Y581360D01*
X426298Y581299D01*
Y583905D01*
D02*
G37*
G36*
X412445D02*
X409838D01*
Y581299D01*
X410148Y581360D01*
X411488Y582256D01*
X412383Y583595D01*
X412445Y583905D01*
D02*
G37*
G36*
X407298D02*
X404691D01*
X404753Y583595D01*
X405648Y582256D01*
X406988Y581360D01*
X407298Y581299D01*
Y583905D01*
D02*
G37*
G36*
X393445D02*
X390838D01*
Y581299D01*
X391148Y581360D01*
X392488Y582256D01*
X393383Y583595D01*
X393445Y583905D01*
D02*
G37*
G36*
X388298D02*
X385691D01*
X385753Y583595D01*
X386648Y582256D01*
X387988Y581360D01*
X388298Y581299D01*
Y583905D01*
D02*
G37*
G36*
X497270Y583826D02*
Y581270D01*
X499826D01*
X499768Y581561D01*
X498884Y582884D01*
X497561Y583768D01*
X497270Y583826D01*
D02*
G37*
G36*
X520984Y582826D02*
Y580270D01*
X523540D01*
X523482Y580561D01*
X522598Y581884D01*
X521275Y582768D01*
X520984Y582826D01*
D02*
G37*
G36*
X518444D02*
X518153Y582768D01*
X516830Y581884D01*
X515946Y580561D01*
X515888Y580270D01*
X518444D01*
Y582826D01*
D02*
G37*
G36*
X540480Y581826D02*
Y579270D01*
X543036D01*
X542978Y579561D01*
X542094Y580884D01*
X540771Y581768D01*
X540480Y581826D01*
D02*
G37*
G36*
X537940D02*
X537649Y581768D01*
X536326Y580884D01*
X535442Y579561D01*
X535384Y579270D01*
X537940D01*
Y581826D01*
D02*
G37*
G36*
X322445Y580372D02*
X319838D01*
Y577765D01*
X320148Y577827D01*
X321488Y578722D01*
X322383Y580062D01*
X322445Y580372D01*
D02*
G37*
G36*
X317298D02*
X314692D01*
X314753Y580062D01*
X315648Y578722D01*
X316988Y577827D01*
X317298Y577765D01*
Y580372D01*
D02*
G37*
G36*
X369568Y584275D02*
X357838D01*
Y577095D01*
X369568D01*
Y584275D01*
D02*
G37*
G36*
X355298D02*
X343568D01*
Y577095D01*
X355298D01*
Y584275D01*
D02*
G37*
G36*
X68967Y579330D02*
Y576724D01*
X71574D01*
X71512Y577034D01*
X70617Y578374D01*
X69277Y579269D01*
X68967Y579330D01*
D02*
G37*
G36*
X66427D02*
X66116Y579269D01*
X64777Y578374D01*
X63882Y577034D01*
X63820Y576724D01*
X66427D01*
Y579330D01*
D02*
G37*
G36*
X499826Y578730D02*
X497270D01*
Y576174D01*
X497561Y576232D01*
X498884Y577116D01*
X499768Y578439D01*
X499826Y578730D01*
D02*
G37*
G36*
X523540Y577730D02*
X520984D01*
Y575174D01*
X521275Y575232D01*
X522598Y576116D01*
X523482Y577439D01*
X523540Y577730D01*
D02*
G37*
G36*
X518444D02*
X515888D01*
X515946Y577439D01*
X516830Y576116D01*
X518153Y575232D01*
X518444Y575174D01*
Y577730D01*
D02*
G37*
G36*
X543036Y576730D02*
X540480D01*
Y574174D01*
X540771Y574232D01*
X542094Y575116D01*
X542978Y576439D01*
X543036Y576730D01*
D02*
G37*
G36*
X537940D02*
X535384D01*
X535442Y576439D01*
X536326Y575116D01*
X537649Y574232D01*
X537940Y574174D01*
Y576730D01*
D02*
G37*
G36*
X620230Y580502D02*
X613094D01*
X613219Y579553D01*
X614075Y577485D01*
X615438Y575709D01*
X616003Y575275D01*
X616003Y575267D01*
X615585Y573996D01*
X614439Y573768D01*
X613116Y572884D01*
X612232Y571561D01*
X612174Y571270D01*
X619826D01*
X619768Y571561D01*
X619340Y572202D01*
X620076Y573386D01*
X620230Y573366D01*
Y580502D01*
D02*
G37*
G36*
X629906D02*
X622770D01*
Y573365D01*
X623719Y573490D01*
X625787Y574347D01*
X627562Y575709D01*
X628925Y577485D01*
X629781Y579553D01*
X629906Y580502D01*
D02*
G37*
G36*
X71574Y574184D02*
X68967D01*
Y571577D01*
X69277Y571639D01*
X70617Y572534D01*
X71512Y573874D01*
X71574Y574184D01*
D02*
G37*
G36*
X66427D02*
X63820D01*
X63882Y573874D01*
X64777Y572534D01*
X66116Y571639D01*
X66427Y571577D01*
Y574184D01*
D02*
G37*
G36*
X317270Y573826D02*
Y571270D01*
X319826D01*
X319768Y571561D01*
X318884Y572884D01*
X317561Y573768D01*
X317270Y573826D01*
D02*
G37*
G36*
X314730D02*
X314439Y573768D01*
X313116Y572884D01*
X312232Y571561D01*
X312174Y571270D01*
X314730D01*
Y573826D01*
D02*
G37*
G36*
X307061Y569331D02*
Y566724D01*
X309667D01*
X309606Y567034D01*
X308711Y568374D01*
X307371Y569269D01*
X307061Y569331D01*
D02*
G37*
G36*
X304521D02*
X304210Y569269D01*
X302871Y568374D01*
X301976Y567034D01*
X301914Y566724D01*
X304521D01*
Y569331D01*
D02*
G37*
G36*
X319826Y568730D02*
X317270D01*
Y566174D01*
X317561Y566232D01*
X318884Y567116D01*
X319768Y568439D01*
X319826Y568730D01*
D02*
G37*
G36*
X314730D02*
X312174D01*
X312232Y568439D01*
X313116Y567116D01*
X314439Y566232D01*
X314730Y566174D01*
Y568730D01*
D02*
G37*
G36*
X309667Y564184D02*
X307061D01*
Y561577D01*
X307371Y561639D01*
X308711Y562534D01*
X309606Y563874D01*
X309667Y564184D01*
D02*
G37*
G36*
X304521D02*
X301914D01*
X301976Y563874D01*
X302871Y562534D01*
X304210Y561639D01*
X304521Y561577D01*
Y564184D01*
D02*
G37*
G36*
X376568Y616644D02*
X374617Y616255D01*
X372963Y615150D01*
X371858Y613497D01*
X371470Y611546D01*
X371858Y609595D01*
X372214Y609062D01*
Y564349D01*
X369246Y561381D01*
X368617Y561255D01*
X366963Y560150D01*
X365858Y558496D01*
X365470Y556545D01*
X365858Y554595D01*
X366963Y552941D01*
X368617Y551836D01*
X370568Y551447D01*
X372519Y551836D01*
X374173Y552941D01*
X375278Y554595D01*
X375403Y555224D01*
X379646Y559467D01*
X380590Y560879D01*
X380922Y562546D01*
Y609062D01*
X381278Y609595D01*
X381666Y611546D01*
X381278Y613497D01*
X380173Y615150D01*
X378519Y616255D01*
X376568Y616644D01*
D02*
G37*
G36*
X296270Y549537D02*
Y546982D01*
X298826D01*
X298768Y547272D01*
X297884Y548595D01*
X296561Y549479D01*
X296270Y549537D01*
D02*
G37*
G36*
X335000Y614240D02*
X333030Y613849D01*
X331359Y612732D01*
X330243Y611062D01*
X329851Y609092D01*
X329902Y608835D01*
Y569114D01*
X330290Y567163D01*
X331395Y565509D01*
X348463Y548441D01*
X350117Y547336D01*
X352068Y546948D01*
X354019Y547336D01*
X355673Y548441D01*
X356778Y550095D01*
X357166Y552046D01*
X356778Y553997D01*
X355673Y555650D01*
X340098Y571225D01*
Y608835D01*
X340149Y609092D01*
X339757Y611062D01*
X338641Y612732D01*
X336970Y613849D01*
X335000Y614240D01*
D02*
G37*
G36*
X619826Y568730D02*
X612174D01*
X612232Y568439D01*
X613116Y567116D01*
X614439Y566232D01*
X616000Y565922D01*
X616794Y566080D01*
X617165Y564859D01*
X616709Y564670D01*
X614725Y563147D01*
X613202Y561163D01*
X612245Y558852D01*
X611918Y556372D01*
X612245Y553892D01*
X613202Y551581D01*
X614725Y549596D01*
X616709Y548073D01*
X619020Y547116D01*
X621500Y546790D01*
X623980Y547116D01*
X626291Y548073D01*
X628275Y549596D01*
X629798Y551581D01*
X630756Y553892D01*
X631082Y556372D01*
X630756Y558852D01*
X629798Y561163D01*
X628275Y563147D01*
X626291Y564670D01*
X623980Y565627D01*
X621500Y565953D01*
X619020Y565627D01*
X618812Y565541D01*
X618211Y566666D01*
X618884Y567116D01*
X619768Y568439D01*
X619826Y568730D01*
D02*
G37*
G36*
X298826Y544441D02*
X296270D01*
Y541886D01*
X296561Y541944D01*
X297884Y542828D01*
X298768Y544151D01*
X298826Y544441D01*
D02*
G37*
G36*
X540770Y544468D02*
Y541862D01*
X543377D01*
X543315Y542172D01*
X542420Y543512D01*
X541080Y544407D01*
X540770Y544468D01*
D02*
G37*
G36*
X538230D02*
X537920Y544407D01*
X536580Y543512D01*
X535685Y542172D01*
X535623Y541862D01*
X538230D01*
Y544468D01*
D02*
G37*
G36*
X243108Y539509D02*
Y536953D01*
X245664D01*
X245606Y537244D01*
X244722Y538567D01*
X243399Y539451D01*
X243108Y539509D01*
D02*
G37*
G36*
X240568D02*
X240278Y539451D01*
X238955Y538567D01*
X238070Y537244D01*
X238013Y536953D01*
X240568D01*
Y539509D01*
D02*
G37*
G36*
X543377Y539322D02*
X540770D01*
Y536715D01*
X541080Y536777D01*
X542420Y537672D01*
X543315Y539011D01*
X543377Y539322D01*
D02*
G37*
G36*
X538230D02*
X535623D01*
X535685Y539011D01*
X536580Y537672D01*
X537920Y536777D01*
X538230Y536715D01*
Y539322D01*
D02*
G37*
G36*
X296358Y539150D02*
Y536594D01*
X298914D01*
X298856Y536885D01*
X297972Y538208D01*
X296649Y539092D01*
X296358Y539150D01*
D02*
G37*
G36*
X455520Y537616D02*
Y535060D01*
X458076D01*
X458018Y535351D01*
X457134Y536674D01*
X455811Y537558D01*
X455520Y537616D01*
D02*
G37*
G36*
X452980D02*
X452689Y537558D01*
X451366Y536674D01*
X450482Y535351D01*
X450424Y535060D01*
X452980D01*
Y537616D01*
D02*
G37*
G36*
X427404D02*
X427113Y537558D01*
X425790Y536674D01*
X424906Y535351D01*
X424848Y535060D01*
X427404D01*
Y537616D01*
D02*
G37*
G36*
X445900Y658500D02*
X426900D01*
Y639500D01*
X433940D01*
Y612045D01*
Y534329D01*
X432670Y534204D01*
X432595Y534580D01*
X432442Y535351D01*
X431558Y536674D01*
X430234Y537558D01*
X429944Y537616D01*
Y533790D01*
Y529965D01*
X430234Y530023D01*
X431558Y530907D01*
X432442Y532230D01*
X432595Y533001D01*
X432670Y533376D01*
X433940Y533251D01*
Y514330D01*
X432670Y514204D01*
X432595Y514580D01*
X432442Y515351D01*
X431558Y516674D01*
X430234Y517558D01*
X429944Y517616D01*
Y513790D01*
Y509965D01*
X430234Y510023D01*
X431558Y510907D01*
X432442Y512230D01*
X432595Y513001D01*
X432670Y513376D01*
X433940Y513251D01*
Y494329D01*
X432670Y494204D01*
X432595Y494579D01*
X432442Y495351D01*
X431558Y496674D01*
X430234Y497558D01*
X429944Y497616D01*
Y493790D01*
Y489964D01*
X430234Y490022D01*
X431558Y490906D01*
X432442Y492229D01*
X432595Y493000D01*
X432670Y493376D01*
X433940Y493251D01*
Y449000D01*
Y361519D01*
X432670Y360816D01*
X430999Y361148D01*
X429029Y360756D01*
X428427Y360354D01*
X399855D01*
X398189Y360022D01*
X396776Y359079D01*
X286734Y249036D01*
X286022Y248895D01*
X284352Y247778D01*
X283235Y246108D01*
X282843Y244138D01*
X283235Y242167D01*
X284352Y240497D01*
X286022Y239381D01*
X287992Y238989D01*
X289963Y239381D01*
X291633Y240497D01*
X292749Y242167D01*
X292891Y242879D01*
X401658Y351646D01*
X428424D01*
X429029Y351242D01*
X430999Y350850D01*
X432670Y351182D01*
X433940Y350479D01*
Y313521D01*
X432670Y312817D01*
X431000Y313149D01*
X430744Y313098D01*
X406303D01*
X404352Y312710D01*
X402698Y311605D01*
X339017Y247924D01*
X338800Y247778D01*
X337683Y246108D01*
X337291Y244138D01*
X337683Y242167D01*
X338800Y240497D01*
X340470Y239381D01*
X342440Y238989D01*
X344411Y239381D01*
X346081Y240497D01*
X346226Y240714D01*
X408414Y302902D01*
X430744D01*
X431000Y302851D01*
X432670Y303183D01*
X433940Y302479D01*
Y293925D01*
X374076Y234060D01*
X365000D01*
X363173Y233820D01*
X361470Y233114D01*
X360008Y231992D01*
X358886Y230530D01*
X358180Y228827D01*
X357940Y227000D01*
X358154Y225368D01*
X357919Y224767D01*
X356741Y224241D01*
X355970Y224756D01*
X353999Y225148D01*
X352029Y224756D01*
X350359Y223640D01*
X349242Y221970D01*
X348850Y219999D01*
X349242Y218029D01*
X349600Y217494D01*
X349429Y217083D01*
X348921Y216223D01*
X347461Y215248D01*
X346345Y213577D01*
X345953Y211607D01*
X346345Y209636D01*
X347192Y208368D01*
X346648Y207098D01*
X321112D01*
X318786Y209424D01*
X318641Y209641D01*
X316970Y210757D01*
X315000Y211149D01*
X313030Y210757D01*
X311359Y209641D01*
X310243Y207971D01*
X309851Y206000D01*
X310243Y204030D01*
X311359Y202359D01*
X311576Y202214D01*
X315395Y198395D01*
X317049Y197290D01*
X319000Y196902D01*
X401736D01*
X402415Y195632D01*
X402185Y195288D01*
X402123Y194978D01*
X409877D01*
X409815Y195288D01*
X409585Y195632D01*
X410264Y196902D01*
X432744D01*
X433000Y196851D01*
X434670Y197183D01*
X435940Y196479D01*
Y137000D01*
Y112893D01*
X434670Y112508D01*
X434605Y112605D01*
X432951Y113710D01*
X431000Y114098D01*
X429049Y113710D01*
X427395Y112605D01*
X426290Y110951D01*
X425902Y109000D01*
X426290Y107049D01*
X426646Y106516D01*
Y87803D01*
X411847Y73004D01*
X410674Y73490D01*
Y78680D01*
X410454Y79784D01*
X411344Y80841D01*
X411432Y80884D01*
X411500Y80871D01*
X413080Y81185D01*
X414420Y82080D01*
X415315Y83420D01*
X415377Y83730D01*
X411500D01*
Y85000D01*
X410230D01*
Y88877D01*
X409920Y88815D01*
X408580Y87920D01*
X407685Y86580D01*
X407467Y85486D01*
X406179Y84978D01*
X403501Y87656D01*
X403919Y89034D01*
X404970Y89243D01*
X406641Y90359D01*
X407757Y92030D01*
X408149Y94000D01*
X408098Y94256D01*
Y151000D01*
X407710Y152951D01*
X406605Y154605D01*
X376605Y184605D01*
X374951Y185710D01*
X373000Y186098D01*
X307110D01*
X293123Y200086D01*
X292749Y201963D01*
X291633Y203633D01*
X289963Y204749D01*
X287992Y205141D01*
X286022Y204749D01*
X284352Y203633D01*
X283235Y201963D01*
X282843Y199992D01*
X282894Y199736D01*
Y198006D01*
X283283Y196056D01*
X284388Y194402D01*
X301394Y177395D01*
X303048Y176290D01*
X304999Y175902D01*
X370888D01*
X397902Y148888D01*
Y106994D01*
X396632Y106315D01*
X395970Y106757D01*
X394000Y107149D01*
X392030Y106757D01*
X390359Y105641D01*
X389243Y103970D01*
X388851Y102000D01*
X389243Y100030D01*
X389646Y99426D01*
Y91000D01*
X389978Y89334D01*
X390922Y87922D01*
X390996Y87847D01*
X390510Y86674D01*
X361483D01*
X281454Y166703D01*
Y253297D01*
X364078Y335922D01*
X365022Y337334D01*
X365354Y339000D01*
Y387118D01*
X365726Y387245D01*
X366624Y387425D01*
X368705Y385828D01*
X371259Y384770D01*
X374000Y384409D01*
X376741Y384770D01*
X379295Y385828D01*
X381489Y387511D01*
X383172Y389705D01*
X384230Y392259D01*
X384591Y395000D01*
X384230Y397741D01*
X383172Y400295D01*
X381489Y402489D01*
X379295Y404172D01*
X376741Y405230D01*
X374000Y405591D01*
X371259Y405230D01*
X368705Y404172D01*
X366624Y402575D01*
X365726Y402755D01*
X365354Y402882D01*
Y424426D01*
X365757Y425030D01*
X366149Y427000D01*
X365757Y428970D01*
X364641Y430641D01*
X362970Y431757D01*
X361000Y432149D01*
X359030Y431757D01*
X357849Y430968D01*
X356950Y430743D01*
X356051Y430968D01*
X354870Y431757D01*
X352900Y432149D01*
X350930Y431757D01*
X349259Y430641D01*
X348143Y428970D01*
X347751Y427000D01*
X348143Y425030D01*
X348546Y424426D01*
Y403004D01*
X347276Y402652D01*
X345295Y404172D01*
X342741Y405230D01*
X340000Y405591D01*
X337259Y405230D01*
X334705Y404172D01*
X332511Y402489D01*
X330828Y400295D01*
X329770Y397741D01*
X329409Y395000D01*
X329770Y392259D01*
X330828Y389705D01*
X332511Y387511D01*
X334705Y385828D01*
X337259Y384770D01*
X340000Y384409D01*
X342741Y384770D01*
X345295Y385828D01*
X347276Y387349D01*
X348546Y386997D01*
Y343703D01*
X265922Y261078D01*
X264978Y259666D01*
X264646Y258000D01*
Y201892D01*
X263376Y201507D01*
X262920Y202190D01*
X261580Y203085D01*
X261270Y203147D01*
Y199270D01*
Y195393D01*
X261580Y195455D01*
X262920Y196350D01*
X263376Y197034D01*
X264646Y196648D01*
Y164000D01*
X264978Y162334D01*
X265922Y160921D01*
X353922Y72922D01*
X354367Y72624D01*
X353982Y71354D01*
X279803D01*
X217810Y133348D01*
X218105Y134848D01*
X218920Y135393D01*
X219815Y136733D01*
X219877Y137043D01*
X216000D01*
Y138313D01*
X214730D01*
Y142190D01*
X214420Y142128D01*
X213080Y141233D01*
X212535Y140418D01*
X211034Y140123D01*
X187354Y163803D01*
Y210195D01*
X190260Y213102D01*
X190972Y213243D01*
X192643Y214359D01*
X193759Y216030D01*
X194151Y218000D01*
X193759Y219970D01*
X192643Y221641D01*
X190972Y222757D01*
X189002Y223149D01*
X187032Y222757D01*
X185361Y221641D01*
X184245Y219970D01*
X184103Y219258D01*
X179921Y215077D01*
X178978Y213664D01*
X178646Y211998D01*
Y162000D01*
X178978Y160334D01*
X179921Y158922D01*
X274921Y63922D01*
X276334Y62978D01*
X278000Y62646D01*
X288830D01*
X289316Y61473D01*
X284197Y56354D01*
X280984D01*
X280451Y56710D01*
X278500Y57098D01*
X276881Y56776D01*
X216078Y117578D01*
X214666Y118522D01*
X213000Y118854D01*
X199873D01*
X199476Y120116D01*
X200361Y121439D01*
X200418Y121730D01*
X192767D01*
X192825Y121439D01*
X193709Y120116D01*
X193312Y118854D01*
X191500D01*
X189834Y118522D01*
X188421Y117578D01*
X182678Y111835D01*
X182049Y111710D01*
X180395Y110605D01*
X179290Y108951D01*
X178902Y107000D01*
X179290Y105049D01*
X180395Y103395D01*
X182049Y102290D01*
X184000Y101902D01*
X185594Y102219D01*
X186462Y101588D01*
X186699Y101262D01*
X186646Y101000D01*
Y81574D01*
X186243Y80970D01*
X185851Y79000D01*
X186243Y77030D01*
X186646Y76426D01*
Y74476D01*
X184705Y73672D01*
X182511Y71989D01*
X180828Y69795D01*
X179770Y67241D01*
X179409Y64500D01*
X179770Y61759D01*
X180828Y59205D01*
X182511Y57011D01*
X184705Y55328D01*
X187259Y54270D01*
X190000Y53910D01*
X192741Y54270D01*
X195295Y55328D01*
X197489Y57011D01*
X199172Y59205D01*
X200230Y61759D01*
X200591Y64500D01*
X200230Y67241D01*
X199172Y69795D01*
X197489Y71989D01*
X195354Y73627D01*
Y76426D01*
X195757Y77030D01*
X196149Y79000D01*
X195757Y80970D01*
X195354Y81574D01*
Y99197D01*
X199079Y102921D01*
X199153Y103033D01*
X199641Y103359D01*
X200757Y105030D01*
X201149Y107000D01*
X200776Y108876D01*
X200795Y109167D01*
X201318Y110146D01*
X211197D01*
X257533Y63810D01*
X257078Y62469D01*
X255259Y62230D01*
X252705Y61172D01*
X250511Y59489D01*
X248828Y57295D01*
X247770Y54741D01*
X247409Y52000D01*
X247770Y49259D01*
X248828Y46705D01*
X250511Y44511D01*
X252705Y42828D01*
X255259Y41770D01*
X258000Y41410D01*
X260741Y41770D01*
X263295Y42828D01*
X265489Y44511D01*
X267172Y46705D01*
X267562Y47646D01*
X275833D01*
X276834Y46978D01*
X278500Y46646D01*
X280166Y46978D01*
X281167Y47646D01*
X286000D01*
X287666Y47978D01*
X289079Y48922D01*
X291266Y51109D01*
X292440Y50623D01*
Y37500D01*
X292680Y35673D01*
X293386Y33970D01*
X294508Y32508D01*
X297781Y29234D01*
X297295Y28060D01*
X240153D01*
X239474Y29330D01*
X239534Y29420D01*
X239596Y29730D01*
X231842D01*
X231904Y29420D01*
X231964Y29330D01*
X231285Y28060D01*
X149060D01*
Y47000D01*
X148820Y48827D01*
X148115Y50530D01*
X146993Y51993D01*
X145530Y53115D01*
X143827Y53820D01*
X142000Y54060D01*
X140173Y53820D01*
X138470Y53115D01*
X137008Y51993D01*
X135886Y50530D01*
X135180Y48827D01*
X134940Y47000D01*
Y28060D01*
X114925D01*
X32060Y110925D01*
Y122237D01*
X32767Y122780D01*
X34512Y125054D01*
X35610Y127704D01*
X35984Y130546D01*
X35610Y133389D01*
X34512Y136038D01*
X32767Y138313D01*
X30492Y140059D01*
X27843Y141156D01*
X25000Y141530D01*
X22157Y141156D01*
X19508Y140059D01*
X17233Y138313D01*
X15488Y136038D01*
X14390Y133389D01*
X14016Y130546D01*
X14390Y127704D01*
X15488Y125054D01*
X17233Y122780D01*
X17940Y122237D01*
Y108000D01*
X18180Y106173D01*
X18886Y104470D01*
X20008Y103008D01*
X107008Y16008D01*
X108470Y14886D01*
X110173Y14180D01*
X112000Y13940D01*
X387000D01*
X388827Y14180D01*
X390530Y14886D01*
X391992Y16008D01*
X447993Y72008D01*
X449114Y73470D01*
X449820Y75173D01*
X450060Y77000D01*
Y118295D01*
X451234Y118781D01*
X464690Y105325D01*
Y98000D01*
X464930Y96173D01*
X465635Y94470D01*
X466758Y93008D01*
X468220Y91886D01*
X469923Y91180D01*
X471750Y90940D01*
X473577Y91180D01*
X475280Y91886D01*
X476743Y93008D01*
X477864Y94470D01*
X478570Y96173D01*
X478810Y98000D01*
Y108250D01*
X478570Y110077D01*
X477864Y111780D01*
X476743Y113243D01*
X450060Y139924D01*
Y228302D01*
X451330Y228760D01*
X452470Y227886D01*
X454173Y227180D01*
X456000Y226940D01*
X485000D01*
X486827Y227180D01*
X488530Y227886D01*
X489992Y229008D01*
X491115Y230470D01*
X491820Y232173D01*
X492060Y234000D01*
X491820Y235827D01*
X491115Y237530D01*
X489992Y238993D01*
X488530Y240114D01*
X486827Y240820D01*
X485000Y241060D01*
X458924D01*
X450060Y249925D01*
Y293000D01*
X449820Y294827D01*
X449114Y296530D01*
X448060Y297904D01*
Y449000D01*
Y612045D01*
Y644400D01*
X447820Y646227D01*
X447114Y647930D01*
X445993Y649392D01*
X445900Y649485D01*
Y658500D01*
D02*
G37*
G36*
X245664Y534413D02*
X243108D01*
Y531857D01*
X243399Y531915D01*
X244722Y532799D01*
X245606Y534122D01*
X245664Y534413D01*
D02*
G37*
G36*
X240568D02*
X238013D01*
X238070Y534122D01*
X238955Y532799D01*
X240278Y531915D01*
X240568Y531857D01*
Y534413D01*
D02*
G37*
G36*
X298914Y534054D02*
X296358D01*
Y531498D01*
X296649Y531556D01*
X297972Y532440D01*
X298856Y533763D01*
X298914Y534054D01*
D02*
G37*
G36*
X458076Y532520D02*
X455520D01*
Y529965D01*
X455811Y530023D01*
X457134Y530907D01*
X458018Y532230D01*
X458076Y532520D01*
D02*
G37*
G36*
X452980D02*
X450424D01*
X450482Y532230D01*
X451366Y530907D01*
X452689Y530023D01*
X452980Y529965D01*
Y532520D01*
D02*
G37*
G36*
X427404D02*
X424848D01*
X424906Y532230D01*
X425790Y530907D01*
X427113Y530023D01*
X427404Y529965D01*
Y532520D01*
D02*
G37*
G36*
X57270Y532215D02*
Y529608D01*
X59877D01*
X59815Y529918D01*
X58920Y531258D01*
X57580Y532153D01*
X57270Y532215D01*
D02*
G37*
G36*
X54730D02*
X54420Y532153D01*
X53080Y531258D01*
X52185Y529918D01*
X52123Y529608D01*
X54730D01*
Y532215D01*
D02*
G37*
G36*
X59877Y527068D02*
X57270D01*
Y524461D01*
X57580Y524523D01*
X58920Y525418D01*
X59815Y526758D01*
X59877Y527068D01*
D02*
G37*
G36*
X54730D02*
X52123D01*
X52185Y526758D01*
X53080Y525418D01*
X54420Y524523D01*
X54730Y524461D01*
Y527068D01*
D02*
G37*
G36*
X631000Y540472D02*
X612000D01*
Y521472D01*
X631000D01*
Y540472D01*
D02*
G37*
G36*
X288088Y527933D02*
X278108D01*
Y517953D01*
X288088D01*
Y527933D01*
D02*
G37*
G36*
X275568D02*
X265588D01*
Y517953D01*
X275568D01*
Y527933D01*
D02*
G37*
G36*
X455520Y517616D02*
Y515060D01*
X458076D01*
X458018Y515351D01*
X457134Y516674D01*
X455811Y517558D01*
X455520Y517616D01*
D02*
G37*
G36*
X452980D02*
X452689Y517558D01*
X451366Y516674D01*
X450482Y515351D01*
X450424Y515060D01*
X452980D01*
Y517616D01*
D02*
G37*
G36*
X427404D02*
X427113Y517558D01*
X425790Y516674D01*
X424906Y515351D01*
X424848Y515060D01*
X427404D01*
Y517616D01*
D02*
G37*
G36*
X407270Y513826D02*
Y511270D01*
X409826D01*
X409768Y511561D01*
X408884Y512884D01*
X407561Y513768D01*
X407270Y513826D01*
D02*
G37*
G36*
X404730D02*
X404439Y513768D01*
X403116Y512884D01*
X402232Y511561D01*
X402174Y511270D01*
X404730D01*
Y513826D01*
D02*
G37*
G36*
X347270D02*
Y511270D01*
X349826D01*
X349768Y511561D01*
X348884Y512884D01*
X347561Y513768D01*
X347270Y513826D01*
D02*
G37*
G36*
X344730D02*
X344439Y513768D01*
X343116Y512884D01*
X342232Y511561D01*
X342174Y511270D01*
X344730D01*
Y513826D01*
D02*
G37*
G36*
X47270D02*
Y511270D01*
X49826D01*
X49768Y511561D01*
X48884Y512884D01*
X47561Y513768D01*
X47270Y513826D01*
D02*
G37*
G36*
X44730D02*
X44439Y513768D01*
X43116Y512884D01*
X42232Y511561D01*
X42174Y511270D01*
X44730D01*
Y513826D01*
D02*
G37*
G36*
X458076Y512520D02*
X455520D01*
Y509965D01*
X455811Y510023D01*
X457134Y510907D01*
X458018Y512230D01*
X458076Y512520D01*
D02*
G37*
G36*
X452980D02*
X450424D01*
X450482Y512230D01*
X451366Y510907D01*
X452689Y510023D01*
X452980Y509965D01*
Y512520D01*
D02*
G37*
G36*
X427404D02*
X424848D01*
X424906Y512230D01*
X425790Y510907D01*
X427113Y510023D01*
X427404Y509965D01*
Y512520D01*
D02*
G37*
G36*
X220270Y512009D02*
Y509453D01*
X222826D01*
X222768Y509744D01*
X221884Y511067D01*
X220561Y511951D01*
X220270Y512009D01*
D02*
G37*
G36*
X217730D02*
X217439Y511951D01*
X216116Y511067D01*
X215232Y509744D01*
X215174Y509453D01*
X217730D01*
Y512009D01*
D02*
G37*
G36*
X542660Y510942D02*
Y508386D01*
X545216D01*
X545158Y508677D01*
X544274Y510000D01*
X542951Y510884D01*
X542660Y510942D01*
D02*
G37*
G36*
X540120D02*
X539829Y510884D01*
X538506Y510000D01*
X537622Y508677D01*
X537564Y508386D01*
X540120D01*
Y510942D01*
D02*
G37*
G36*
X409826Y508730D02*
X407270D01*
Y506174D01*
X407561Y506232D01*
X408884Y507116D01*
X409768Y508439D01*
X409826Y508730D01*
D02*
G37*
G36*
X404730D02*
X402174D01*
X402232Y508439D01*
X403116Y507116D01*
X404439Y506232D01*
X404730Y506174D01*
Y508730D01*
D02*
G37*
G36*
X349826D02*
X347270D01*
Y506174D01*
X347561Y506232D01*
X348884Y507116D01*
X349768Y508439D01*
X349826Y508730D01*
D02*
G37*
G36*
X344730D02*
X342174D01*
X342232Y508439D01*
X343116Y507116D01*
X344439Y506232D01*
X344730Y506174D01*
Y508730D01*
D02*
G37*
G36*
X49826D02*
X47270D01*
Y506174D01*
X47561Y506232D01*
X48884Y507116D01*
X49768Y508439D01*
X49826Y508730D01*
D02*
G37*
G36*
X44730D02*
X42174D01*
X42232Y508439D01*
X43116Y507116D01*
X44439Y506232D01*
X44730Y506174D01*
Y508730D01*
D02*
G37*
G36*
X288088Y515413D02*
X278108D01*
Y505433D01*
X288088D01*
Y515413D01*
D02*
G37*
G36*
X275568D02*
X265588D01*
Y505433D01*
X275568D01*
Y515413D01*
D02*
G37*
G36*
X222826Y506913D02*
X220270D01*
Y504357D01*
X220561Y504415D01*
X221884Y505299D01*
X222768Y506622D01*
X222826Y506913D01*
D02*
G37*
G36*
X217730D02*
X215174D01*
X215232Y506622D01*
X216116Y505299D01*
X217439Y504415D01*
X217730Y504357D01*
Y506913D01*
D02*
G37*
G36*
X545216Y505846D02*
X542660D01*
Y503291D01*
X542951Y503348D01*
X544274Y504232D01*
X545158Y505556D01*
X545216Y505846D01*
D02*
G37*
G36*
X540120D02*
X537564D01*
X537622Y505556D01*
X538506Y504232D01*
X539829Y503348D01*
X540120Y503291D01*
Y505846D01*
D02*
G37*
G36*
X199270Y502984D02*
Y500429D01*
X201826D01*
X201768Y500719D01*
X200884Y502042D01*
X199561Y502926D01*
X199270Y502984D01*
D02*
G37*
G36*
X196730D02*
X196439Y502926D01*
X195116Y502042D01*
X194232Y500719D01*
X194174Y500429D01*
X196730D01*
Y502984D01*
D02*
G37*
G36*
X259858Y499081D02*
Y496525D01*
X262414D01*
X262356Y496815D01*
X261472Y498139D01*
X260149Y499023D01*
X259858Y499081D01*
D02*
G37*
G36*
X257318D02*
X257027Y499023D01*
X255704Y498139D01*
X254820Y496815D01*
X254762Y496525D01*
X257318D01*
Y499081D01*
D02*
G37*
G36*
X201826Y497888D02*
X199270D01*
Y495333D01*
X199561Y495391D01*
X200884Y496275D01*
X201768Y497598D01*
X201826Y497888D01*
D02*
G37*
G36*
X196730D02*
X194174D01*
X194232Y497598D01*
X195116Y496275D01*
X196439Y495391D01*
X196730Y495333D01*
Y497888D01*
D02*
G37*
G36*
X455520Y497616D02*
Y495060D01*
X458076D01*
X458018Y495351D01*
X457134Y496674D01*
X455811Y497558D01*
X455520Y497616D01*
D02*
G37*
G36*
X452980D02*
X452689Y497558D01*
X451366Y496674D01*
X450482Y495351D01*
X450424Y495060D01*
X452980D01*
Y497616D01*
D02*
G37*
G36*
X427404D02*
X427113Y497558D01*
X425790Y496674D01*
X424906Y495351D01*
X424848Y495060D01*
X427404D01*
Y497616D01*
D02*
G37*
G36*
X299270Y495826D02*
Y493270D01*
X301826D01*
X301768Y493561D01*
X300884Y494884D01*
X299561Y495768D01*
X299270Y495826D01*
D02*
G37*
G36*
X296730D02*
X296439Y495768D01*
X295116Y494884D01*
X294232Y493561D01*
X294174Y493270D01*
X296730D01*
Y495826D01*
D02*
G37*
G36*
X620270Y499306D02*
Y492170D01*
X627406D01*
X627281Y493119D01*
X626425Y495187D01*
X625062Y496962D01*
X623287Y498325D01*
X621219Y499181D01*
X620270Y499306D01*
D02*
G37*
G36*
X262414Y493985D02*
X259858D01*
Y491429D01*
X260149Y491487D01*
X261472Y492371D01*
X262356Y493694D01*
X262414Y493985D01*
D02*
G37*
G36*
X257318D02*
X254762D01*
X254820Y493694D01*
X255704Y492371D01*
X257027Y491487D01*
X257318Y491429D01*
Y493985D01*
D02*
G37*
G36*
X458076Y492520D02*
X455520D01*
Y489964D01*
X455811Y490022D01*
X457134Y490906D01*
X458018Y492229D01*
X458076Y492520D01*
D02*
G37*
G36*
X452980D02*
X450424D01*
X450482Y492229D01*
X451366Y490906D01*
X452689Y490022D01*
X452980Y489964D01*
Y492520D01*
D02*
G37*
G36*
X427404D02*
X424848D01*
X424906Y492229D01*
X425790Y490906D01*
X427113Y490022D01*
X427404Y489964D01*
Y492520D01*
D02*
G37*
G36*
X204338Y491509D02*
Y488953D01*
X206893D01*
X206835Y489244D01*
X205951Y490567D01*
X204628Y491451D01*
X204338Y491509D01*
D02*
G37*
G36*
X201798D02*
X201507Y491451D01*
X200184Y490567D01*
X199300Y489244D01*
X199242Y488953D01*
X201798D01*
Y491509D01*
D02*
G37*
G36*
X301826Y490730D02*
X299270D01*
Y488174D01*
X299561Y488232D01*
X300884Y489116D01*
X301768Y490439D01*
X301826Y490730D01*
D02*
G37*
G36*
X296730D02*
X294174D01*
X294232Y490439D01*
X295116Y489116D01*
X296439Y488232D01*
X296730Y488174D01*
Y490730D01*
D02*
G37*
G36*
X477730Y488826D02*
X477439Y488768D01*
X476116Y487884D01*
X475232Y486561D01*
X475174Y486270D01*
X477730D01*
Y488826D01*
D02*
G37*
G36*
X206893Y486413D02*
X204338D01*
Y483857D01*
X204628Y483915D01*
X205951Y484799D01*
X206835Y486122D01*
X206893Y486413D01*
D02*
G37*
G36*
X201798D02*
X199242D01*
X199300Y486122D01*
X200184Y484799D01*
X201507Y483915D01*
X201798Y483857D01*
Y486413D01*
D02*
G37*
G36*
X627406Y489630D02*
X620270D01*
Y482494D01*
X621219Y482619D01*
X623287Y483475D01*
X625062Y484838D01*
X626425Y486613D01*
X627281Y488681D01*
X627406Y489630D01*
D02*
G37*
G36*
X499270Y483967D02*
Y481412D01*
X501826D01*
X501768Y481702D01*
X500884Y483025D01*
X499561Y483909D01*
X499270Y483967D01*
D02*
G37*
G36*
X477730Y483730D02*
X475174D01*
X475232Y483439D01*
X476116Y482116D01*
X477439Y481232D01*
X477730Y481174D01*
Y483730D01*
D02*
G37*
G36*
X501826Y478872D02*
X499270D01*
Y476316D01*
X499561Y476374D01*
X500884Y477258D01*
X501768Y478581D01*
X501826Y478872D01*
D02*
G37*
G36*
X455270Y474826D02*
Y472270D01*
X457826D01*
X457768Y472561D01*
X456884Y473884D01*
X455561Y474768D01*
X455270Y474826D01*
D02*
G37*
G36*
X452730D02*
X452439Y474768D01*
X451116Y473884D01*
X450232Y472561D01*
X450174Y472270D01*
X452730D01*
Y474826D01*
D02*
G37*
G36*
X429694D02*
Y472270D01*
X432249D01*
X432192Y472561D01*
X431307Y473884D01*
X429984Y474768D01*
X429694Y474826D01*
D02*
G37*
G36*
X427154D02*
X426863Y474768D01*
X425540Y473884D01*
X424656Y472561D01*
X424598Y472270D01*
X427154D01*
Y474826D01*
D02*
G37*
G36*
X250000Y493098D02*
X248049Y492710D01*
X246395Y491605D01*
X245290Y489951D01*
X245165Y489322D01*
X238922Y483078D01*
X237978Y481666D01*
X237646Y480000D01*
Y468538D01*
X236376Y467906D01*
X235561Y468451D01*
X235270Y468509D01*
Y464683D01*
Y460857D01*
X235561Y460915D01*
X236376Y461460D01*
X237646Y460829D01*
Y177484D01*
X237290Y176951D01*
X236902Y175000D01*
X237290Y173049D01*
X237646Y172516D01*
Y123000D01*
X237978Y121334D01*
X238922Y119922D01*
X243922Y114922D01*
X245334Y113978D01*
X247000Y113646D01*
X250426D01*
X251030Y113243D01*
X253000Y112851D01*
X254970Y113243D01*
X256641Y114359D01*
X257757Y116030D01*
X258149Y118000D01*
X257757Y119971D01*
X256641Y121641D01*
X254970Y122757D01*
X253000Y123149D01*
X251030Y122757D01*
X250426Y122354D01*
X248803D01*
X246354Y124803D01*
Y172516D01*
X246710Y173049D01*
X247098Y175000D01*
X246710Y176951D01*
X246354Y177484D01*
Y478197D01*
X251322Y483165D01*
X251951Y483290D01*
X253605Y484395D01*
X254710Y486049D01*
X255098Y488000D01*
X254710Y489951D01*
X253605Y491605D01*
X251951Y492710D01*
X250000Y493098D01*
D02*
G37*
G36*
X457826Y469730D02*
X455270D01*
Y467174D01*
X455561Y467232D01*
X456884Y468116D01*
X457768Y469439D01*
X457826Y469730D01*
D02*
G37*
G36*
X452730D02*
X450174D01*
X450232Y469439D01*
X451116Y468116D01*
X452439Y467232D01*
X452730Y467174D01*
Y469730D01*
D02*
G37*
G36*
X432249D02*
X429694D01*
Y467174D01*
X429984Y467232D01*
X431307Y468116D01*
X432192Y469439D01*
X432249Y469730D01*
D02*
G37*
G36*
X427154D02*
X424598D01*
X424656Y469439D01*
X425540Y468116D01*
X426863Y467232D01*
X427154Y467174D01*
Y469730D01*
D02*
G37*
G36*
X500270Y468560D02*
Y465953D01*
X502877D01*
X502815Y466263D01*
X501920Y467603D01*
X500580Y468498D01*
X500270Y468560D01*
D02*
G37*
G36*
X232730Y468509D02*
X232439Y468451D01*
X231116Y467567D01*
X230232Y466244D01*
X230174Y465953D01*
X232730D01*
Y468509D01*
D02*
G37*
G36*
Y463413D02*
X230174D01*
X230232Y463122D01*
X231116Y461799D01*
X232439Y460915D01*
X232730Y460857D01*
Y463413D01*
D02*
G37*
G36*
X502877D02*
X500270D01*
Y460806D01*
X500580Y460868D01*
X501920Y461763D01*
X502815Y463103D01*
X502877Y463413D01*
D02*
G37*
G36*
X359672Y462560D02*
Y459953D01*
X362279D01*
X362217Y460263D01*
X361322Y461603D01*
X359982Y462498D01*
X359672Y462560D01*
D02*
G37*
G36*
X357132D02*
X356822Y462498D01*
X355482Y461603D01*
X354587Y460263D01*
X354525Y459953D01*
X357132D01*
Y462560D01*
D02*
G37*
G36*
X362279Y457413D02*
X359672D01*
Y454807D01*
X359982Y454868D01*
X361322Y455763D01*
X362217Y457103D01*
X362279Y457413D01*
D02*
G37*
G36*
X357132D02*
X354525D01*
X354587Y457103D01*
X355482Y455763D01*
X356822Y454868D01*
X357132Y454807D01*
Y457413D01*
D02*
G37*
G36*
X339672Y453389D02*
Y450782D01*
X342279D01*
X342217Y451092D01*
X341322Y452432D01*
X339982Y453327D01*
X339672Y453389D01*
D02*
G37*
G36*
X337132D02*
X336822Y453327D01*
X335482Y452432D01*
X334587Y451092D01*
X334525Y450782D01*
X337132D01*
Y453389D01*
D02*
G37*
G36*
X529270Y449877D02*
Y447270D01*
X531877D01*
X531815Y447580D01*
X530920Y448920D01*
X529580Y449815D01*
X529270Y449877D01*
D02*
G37*
G36*
X31250Y461315D02*
X26250D01*
X24292Y461057D01*
X22468Y460301D01*
X20901Y459099D01*
X19699Y457532D01*
X18943Y455708D01*
X18685Y453750D01*
X18943Y451792D01*
X19699Y449967D01*
X20901Y448401D01*
X22468Y447199D01*
X24292Y446443D01*
X26250Y446185D01*
X31250D01*
X33208Y446443D01*
X35032Y447199D01*
X36599Y448401D01*
X37801Y449967D01*
X38557Y451792D01*
X38815Y453750D01*
X38557Y455708D01*
X37801Y457532D01*
X36599Y459099D01*
X35032Y460301D01*
X33208Y461057D01*
X31250Y461315D01*
D02*
G37*
G36*
X342279Y448242D02*
X339672D01*
Y445635D01*
X339982Y445697D01*
X341322Y446592D01*
X342217Y447932D01*
X342279Y448242D01*
D02*
G37*
G36*
X337132D02*
X334525D01*
X334587Y447932D01*
X335482Y446592D01*
X336822Y445697D01*
X337132Y445635D01*
Y448242D01*
D02*
G37*
G36*
X531877Y444730D02*
X529270D01*
Y442123D01*
X529580Y442185D01*
X530920Y443080D01*
X531815Y444420D01*
X531877Y444730D01*
D02*
G37*
G36*
X504000Y533149D02*
X502030Y532757D01*
X500359Y531641D01*
X499243Y529970D01*
X498851Y528000D01*
X499243Y526030D01*
X500359Y524359D01*
X500576Y524214D01*
X514902Y509888D01*
Y383059D01*
X514199Y382713D01*
X513632Y382574D01*
X512430Y383377D01*
X512139Y383435D01*
Y379609D01*
Y375783D01*
X512430Y375841D01*
X513632Y376645D01*
X514199Y376506D01*
X514902Y376159D01*
Y372756D01*
X514851Y372500D01*
X515243Y370530D01*
X516359Y368859D01*
X518030Y367743D01*
X520000Y367351D01*
X521970Y367743D01*
X523641Y368859D01*
X524757Y370530D01*
X525149Y372500D01*
X525098Y372756D01*
Y441721D01*
X526218Y442320D01*
X526420Y442185D01*
X526730Y442123D01*
Y446000D01*
Y449877D01*
X526420Y449815D01*
X526218Y449680D01*
X525098Y450279D01*
Y512000D01*
X524710Y513951D01*
X523605Y515605D01*
X507786Y531424D01*
X507641Y531641D01*
X505970Y532757D01*
X504000Y533149D01*
D02*
G37*
G36*
X175390Y441877D02*
Y439270D01*
X177996D01*
X177935Y439580D01*
X177040Y440920D01*
X175700Y441815D01*
X175390Y441877D01*
D02*
G37*
G36*
X172850D02*
X172540Y441815D01*
X171200Y440920D01*
X170305Y439580D01*
X170243Y439270D01*
X172850D01*
Y441877D01*
D02*
G37*
G36*
X122770Y438326D02*
Y435770D01*
X125326D01*
X125268Y436060D01*
X124384Y437384D01*
X123061Y438268D01*
X122770Y438326D01*
D02*
G37*
G36*
X120230D02*
X119939Y438268D01*
X118616Y437384D01*
X117732Y436060D01*
X117674Y435770D01*
X120230D01*
Y438326D01*
D02*
G37*
G36*
X177996Y436730D02*
X175390D01*
Y434123D01*
X175700Y434185D01*
X177040Y435080D01*
X177935Y436420D01*
X177996Y436730D01*
D02*
G37*
G36*
X172850D02*
X170243D01*
X170305Y436420D01*
X171200Y435080D01*
X172540Y434185D01*
X172850Y434123D01*
Y436730D01*
D02*
G37*
G36*
X125326Y433230D02*
X122770D01*
Y430674D01*
X123061Y430732D01*
X124384Y431616D01*
X125268Y432939D01*
X125326Y433230D01*
D02*
G37*
G36*
X120230D02*
X117674D01*
X117732Y432939D01*
X118616Y431616D01*
X119939Y430732D01*
X120230Y430674D01*
Y433230D01*
D02*
G37*
G36*
X162828Y429826D02*
Y427270D01*
X165384D01*
X165326Y427561D01*
X164442Y428884D01*
X163119Y429768D01*
X162828Y429826D01*
D02*
G37*
G36*
X160288D02*
X159997Y429768D01*
X158674Y428884D01*
X157790Y427561D01*
X157732Y427270D01*
X160288D01*
Y429826D01*
D02*
G37*
G36*
X165384Y424730D02*
X162828D01*
Y422174D01*
X163119Y422232D01*
X164442Y423116D01*
X165326Y424439D01*
X165384Y424730D01*
D02*
G37*
G36*
X160288D02*
X157732D01*
X157790Y424439D01*
X158674Y423116D01*
X159997Y422232D01*
X160288Y422174D01*
Y424730D01*
D02*
G37*
G36*
X181000Y423249D02*
X179030Y422857D01*
X177359Y421741D01*
X176782Y420876D01*
X174820Y418915D01*
X129021D01*
X128649Y419472D01*
X126979Y420588D01*
X125008Y420980D01*
X123038Y420588D01*
X121367Y419472D01*
X120251Y417801D01*
X119859Y415831D01*
X120251Y413860D01*
X121040Y412680D01*
X121265Y411781D01*
X121040Y410881D01*
X120251Y409701D01*
X119859Y407731D01*
X120251Y405760D01*
X121367Y404090D01*
X123038Y402974D01*
X125008Y402582D01*
X126979Y402974D01*
X128649Y404090D01*
X129021Y404646D01*
X180000D01*
X181666Y404978D01*
X181679Y404986D01*
X182970Y405243D01*
X184641Y406359D01*
X185757Y408030D01*
X186149Y410000D01*
X185757Y411970D01*
X184968Y413151D01*
X184743Y414050D01*
X184968Y414949D01*
X185757Y416130D01*
X186149Y418100D01*
X185757Y420070D01*
X184641Y421741D01*
X182970Y422857D01*
X181000Y423249D01*
D02*
G37*
G36*
X227270Y413826D02*
Y411270D01*
X229826D01*
X229768Y411561D01*
X228884Y412884D01*
X227561Y413768D01*
X227270Y413826D01*
D02*
G37*
G36*
X224730D02*
X224439Y413768D01*
X223116Y412884D01*
X222232Y411561D01*
X222174Y411270D01*
X224730D01*
Y413826D01*
D02*
G37*
G36*
X257731Y412616D02*
Y410060D01*
X260287D01*
X260229Y410351D01*
X259345Y411674D01*
X258022Y412558D01*
X257731Y412616D01*
D02*
G37*
G36*
X255191D02*
X254900Y412558D01*
X253577Y411674D01*
X252693Y410351D01*
X252635Y410060D01*
X255191D01*
Y412616D01*
D02*
G37*
G36*
X229826Y408730D02*
X227270D01*
Y406174D01*
X227561Y406232D01*
X228884Y407116D01*
X229768Y408439D01*
X229826Y408730D01*
D02*
G37*
G36*
X224730D02*
X222174D01*
X222232Y408439D01*
X223116Y407116D01*
X224439Y406232D01*
X224730Y406174D01*
Y408730D01*
D02*
G37*
G36*
X260287Y407520D02*
X257731D01*
Y404965D01*
X258022Y405023D01*
X259345Y405907D01*
X260229Y407230D01*
X260287Y407520D01*
D02*
G37*
G36*
X255191D02*
X252635D01*
X252693Y407230D01*
X253577Y405907D01*
X254900Y405023D01*
X255191Y404965D01*
Y407520D01*
D02*
G37*
G36*
X70770Y407326D02*
Y404770D01*
X73326D01*
X73268Y405061D01*
X72384Y406384D01*
X71061Y407268D01*
X70770Y407326D01*
D02*
G37*
G36*
X68230D02*
X67939Y407268D01*
X66616Y406384D01*
X65732Y405061D01*
X65674Y404770D01*
X68230D01*
Y407326D01*
D02*
G37*
G36*
X305520Y403950D02*
Y401394D01*
X308076D01*
X308018Y401685D01*
X307134Y403008D01*
X305811Y403892D01*
X305520Y403950D01*
D02*
G37*
G36*
X302980D02*
X302689Y403892D01*
X301366Y403008D01*
X300482Y401685D01*
X300424Y401394D01*
X302980D01*
Y403950D01*
D02*
G37*
G36*
X73326Y402230D02*
X70770D01*
Y399674D01*
X71061Y399732D01*
X72384Y400616D01*
X73268Y401939D01*
X73326Y402230D01*
D02*
G37*
G36*
X68230D02*
X65674D01*
X65732Y401939D01*
X66616Y400616D01*
X67939Y399732D01*
X68230Y399674D01*
Y402230D01*
D02*
G37*
G36*
X308076Y398854D02*
X305520D01*
Y396298D01*
X305811Y396356D01*
X307134Y397240D01*
X308018Y398564D01*
X308076Y398854D01*
D02*
G37*
G36*
X302980D02*
X300424D01*
X300482Y398564D01*
X301366Y397240D01*
X302689Y396356D01*
X302980Y396298D01*
Y398854D01*
D02*
G37*
G36*
X145560Y398826D02*
Y396270D01*
X148116D01*
X148058Y396561D01*
X147174Y397884D01*
X145851Y398768D01*
X145560Y398826D01*
D02*
G37*
G36*
X143020D02*
X142730Y398768D01*
X141406Y397884D01*
X140522Y396561D01*
X140464Y396270D01*
X143020D01*
Y398826D01*
D02*
G37*
G36*
X187822Y395856D02*
Y393300D01*
X190377D01*
X190319Y393591D01*
X189436Y394914D01*
X188112Y395798D01*
X187822Y395856D01*
D02*
G37*
G36*
X185282D02*
X184991Y395798D01*
X183668Y394914D01*
X182784Y393591D01*
X182726Y393300D01*
X185282D01*
Y395856D01*
D02*
G37*
G36*
X325520Y394820D02*
Y392264D01*
X328076D01*
X328018Y392555D01*
X327134Y393878D01*
X325811Y394762D01*
X325520Y394820D01*
D02*
G37*
G36*
X322980D02*
X322689Y394762D01*
X321366Y393878D01*
X320482Y392555D01*
X320424Y392264D01*
X322980D01*
Y394820D01*
D02*
G37*
G36*
X407270Y393826D02*
Y391270D01*
X409826D01*
X409768Y391561D01*
X408884Y392884D01*
X407561Y393768D01*
X407270Y393826D01*
D02*
G37*
G36*
X404730D02*
X404439Y393768D01*
X403116Y392884D01*
X402232Y391561D01*
X402174Y391270D01*
X404730D01*
Y393826D01*
D02*
G37*
G36*
X287270D02*
Y391270D01*
X289826D01*
X289768Y391561D01*
X288884Y392884D01*
X287561Y393768D01*
X287270Y393826D01*
D02*
G37*
G36*
X284730D02*
X284439Y393768D01*
X283116Y392884D01*
X282232Y391561D01*
X282174Y391270D01*
X284730D01*
Y393826D01*
D02*
G37*
G36*
X227270D02*
Y391270D01*
X229826D01*
X229768Y391561D01*
X228884Y392884D01*
X227561Y393768D01*
X227270Y393826D01*
D02*
G37*
G36*
X224730D02*
X224439Y393768D01*
X223116Y392884D01*
X222232Y391561D01*
X222174Y391270D01*
X224730D01*
Y393826D01*
D02*
G37*
G36*
X148116Y393730D02*
X145560D01*
Y391174D01*
X145851Y391232D01*
X147174Y392116D01*
X148058Y393439D01*
X148116Y393730D01*
D02*
G37*
G36*
X143020D02*
X140464D01*
X140522Y393439D01*
X141406Y392116D01*
X142730Y391232D01*
X143020Y391174D01*
Y393730D01*
D02*
G37*
G36*
X257731Y392616D02*
Y390060D01*
X260287D01*
X260229Y390351D01*
X259345Y391674D01*
X258022Y392558D01*
X257731Y392616D01*
D02*
G37*
G36*
X255191D02*
X254900Y392558D01*
X253577Y391674D01*
X252693Y390351D01*
X252635Y390060D01*
X255191D01*
Y392616D01*
D02*
G37*
G36*
X190377Y390760D02*
X187822D01*
Y388204D01*
X188112Y388262D01*
X189436Y389146D01*
X190319Y390470D01*
X190377Y390760D01*
D02*
G37*
G36*
X185282D02*
X182726D01*
X182784Y390470D01*
X183668Y389146D01*
X184991Y388262D01*
X185282Y388204D01*
Y390760D01*
D02*
G37*
G36*
X328076Y389724D02*
X325520D01*
Y387169D01*
X325811Y387226D01*
X327134Y388111D01*
X328018Y389434D01*
X328076Y389724D01*
D02*
G37*
G36*
X322980D02*
X320424D01*
X320482Y389434D01*
X321366Y388111D01*
X322689Y387226D01*
X322980Y387169D01*
Y389724D01*
D02*
G37*
G36*
X409826Y388730D02*
X407270D01*
Y386174D01*
X407561Y386232D01*
X408884Y387116D01*
X409768Y388439D01*
X409826Y388730D01*
D02*
G37*
G36*
X404730D02*
X402174D01*
X402232Y388439D01*
X403116Y387116D01*
X404439Y386232D01*
X404730Y386174D01*
Y388730D01*
D02*
G37*
G36*
X289826D02*
X287270D01*
Y386174D01*
X287561Y386232D01*
X288884Y387116D01*
X289768Y388439D01*
X289826Y388730D01*
D02*
G37*
G36*
X284730D02*
X282174D01*
X282232Y388439D01*
X283116Y387116D01*
X284439Y386232D01*
X284730Y386174D01*
Y388730D01*
D02*
G37*
G36*
X229826D02*
X227270D01*
Y386174D01*
X227561Y386232D01*
X228884Y387116D01*
X229768Y388439D01*
X229826Y388730D01*
D02*
G37*
G36*
X224730D02*
X222174D01*
X222232Y388439D01*
X223116Y387116D01*
X224439Y386232D01*
X224730Y386174D01*
Y388730D01*
D02*
G37*
G36*
X260287Y387520D02*
X257731D01*
Y384965D01*
X258022Y385023D01*
X259345Y385907D01*
X260229Y387230D01*
X260287Y387520D01*
D02*
G37*
G36*
X255191D02*
X252635D01*
X252693Y387230D01*
X253577Y385907D01*
X254900Y385023D01*
X255191Y384965D01*
Y387520D01*
D02*
G37*
G36*
X305520Y383950D02*
Y381394D01*
X308076D01*
X308018Y381685D01*
X307134Y383008D01*
X305811Y383892D01*
X305520Y383950D01*
D02*
G37*
G36*
X302980D02*
X302689Y383892D01*
X301366Y383008D01*
X300482Y381685D01*
X300424Y381394D01*
X302980D01*
Y383950D01*
D02*
G37*
G36*
X509599Y383435D02*
X509308Y383377D01*
X507985Y382493D01*
X507101Y381170D01*
X507043Y380879D01*
X509599D01*
Y383435D01*
D02*
G37*
G36*
X31750Y394815D02*
X26750D01*
X24792Y394557D01*
X22968Y393801D01*
X21401Y392599D01*
X20199Y391032D01*
X19443Y389208D01*
X19185Y387250D01*
X19443Y385292D01*
X20199Y383467D01*
X21401Y381901D01*
X22968Y380699D01*
X24792Y379943D01*
X26750Y379685D01*
X31750D01*
X33708Y379943D01*
X35532Y380699D01*
X37099Y381901D01*
X38301Y383467D01*
X39057Y385292D01*
X39315Y387250D01*
X39057Y389208D01*
X38301Y391032D01*
X37099Y392599D01*
X35532Y393801D01*
X33708Y394557D01*
X31750Y394815D01*
D02*
G37*
G36*
X308076Y378854D02*
X305520D01*
Y376299D01*
X305811Y376356D01*
X307134Y377240D01*
X308018Y378564D01*
X308076Y378854D01*
D02*
G37*
G36*
X302980D02*
X300424D01*
X300482Y378564D01*
X301366Y377240D01*
X302689Y376356D01*
X302980Y376299D01*
Y378854D01*
D02*
G37*
G36*
X509599Y378339D02*
X507043D01*
X507101Y378048D01*
X507985Y376725D01*
X509308Y375841D01*
X509599Y375783D01*
Y378339D01*
D02*
G37*
G36*
X154162Y378306D02*
Y375750D01*
X156718D01*
X156660Y376041D01*
X155776Y377364D01*
X154453Y378248D01*
X154162Y378306D01*
D02*
G37*
G36*
X151622D02*
X151331Y378248D01*
X150008Y377364D01*
X149124Y376041D01*
X149066Y375750D01*
X151622D01*
Y378306D01*
D02*
G37*
G36*
X227304Y377596D02*
Y375040D01*
X229860D01*
X229802Y375331D01*
X228918Y376654D01*
X227595Y377538D01*
X227304Y377596D01*
D02*
G37*
G36*
X224764D02*
X224473Y377538D01*
X223150Y376654D01*
X222266Y375331D01*
X222208Y375040D01*
X224764D01*
Y377596D01*
D02*
G37*
G36*
X122770Y376326D02*
Y373770D01*
X125326D01*
X125268Y374061D01*
X124384Y375384D01*
X123061Y376268D01*
X122770Y376326D01*
D02*
G37*
G36*
X120230D02*
X119939Y376268D01*
X118616Y375384D01*
X117732Y374061D01*
X117674Y373770D01*
X120230D01*
Y376326D01*
D02*
G37*
G36*
X187822Y375856D02*
Y373300D01*
X190377D01*
X190319Y373591D01*
X189436Y374914D01*
X188112Y375798D01*
X187822Y375856D01*
D02*
G37*
G36*
X185282D02*
X184991Y375798D01*
X183668Y374914D01*
X182784Y373591D01*
X182726Y373300D01*
X185282D01*
Y375856D01*
D02*
G37*
G36*
X325520Y374820D02*
Y372264D01*
X328076D01*
X328018Y372555D01*
X327134Y373878D01*
X325811Y374762D01*
X325520Y374820D01*
D02*
G37*
G36*
X322980D02*
X322689Y374762D01*
X321366Y373878D01*
X320482Y372555D01*
X320424Y372264D01*
X322980D01*
Y374820D01*
D02*
G37*
G36*
X287520Y373373D02*
Y370817D01*
X290076D01*
X290018Y371108D01*
X289134Y372431D01*
X287811Y373315D01*
X287520Y373373D01*
D02*
G37*
G36*
X284980D02*
X284689Y373315D01*
X283366Y372431D01*
X282482Y371108D01*
X282424Y370817D01*
X284980D01*
Y373373D01*
D02*
G37*
G36*
X156718Y373210D02*
X154162D01*
Y370654D01*
X154453Y370712D01*
X155776Y371596D01*
X156660Y372919D01*
X156718Y373210D01*
D02*
G37*
G36*
X151622D02*
X149066D01*
X149124Y372919D01*
X150008Y371596D01*
X151331Y370712D01*
X151622Y370654D01*
Y373210D01*
D02*
G37*
G36*
X257731Y372616D02*
Y370060D01*
X260287D01*
X260229Y370351D01*
X259345Y371674D01*
X258022Y372558D01*
X257731Y372616D01*
D02*
G37*
G36*
X255191D02*
X254900Y372558D01*
X253577Y371674D01*
X252693Y370351D01*
X252635Y370060D01*
X255191D01*
Y372616D01*
D02*
G37*
G36*
X229860Y372500D02*
X227304D01*
Y369945D01*
X227595Y370003D01*
X228918Y370887D01*
X229802Y372210D01*
X229860Y372500D01*
D02*
G37*
G36*
X224764D02*
X222208D01*
X222266Y372210D01*
X223150Y370887D01*
X224473Y370003D01*
X224764Y369945D01*
Y372500D01*
D02*
G37*
G36*
X136662Y371326D02*
Y368770D01*
X139218D01*
X139160Y369061D01*
X138276Y370384D01*
X136953Y371268D01*
X136662Y371326D01*
D02*
G37*
G36*
X134122D02*
X133831Y371268D01*
X132508Y370384D01*
X131624Y369061D01*
X131566Y368770D01*
X134122D01*
Y371326D01*
D02*
G37*
G36*
X125326Y371230D02*
X122770D01*
Y368674D01*
X123061Y368732D01*
X124384Y369616D01*
X125268Y370939D01*
X125326Y371230D01*
D02*
G37*
G36*
X120230D02*
X117674D01*
X117732Y370939D01*
X118616Y369616D01*
X119939Y368732D01*
X120230Y368674D01*
Y371230D01*
D02*
G37*
G36*
X190377Y370760D02*
X187822D01*
Y368204D01*
X188112Y368262D01*
X189436Y369146D01*
X190319Y370470D01*
X190377Y370760D01*
D02*
G37*
G36*
X185282D02*
X182726D01*
X182784Y370470D01*
X183668Y369146D01*
X184991Y368262D01*
X185282Y368204D01*
Y370760D01*
D02*
G37*
G36*
X328076Y369724D02*
X325520D01*
Y367168D01*
X325811Y367226D01*
X327134Y368110D01*
X328018Y369433D01*
X328076Y369724D01*
D02*
G37*
G36*
X322980D02*
X320424D01*
X320482Y369433D01*
X321366Y368110D01*
X322689Y367226D01*
X322980Y367168D01*
Y369724D01*
D02*
G37*
G36*
X290076Y368277D02*
X287520D01*
Y365722D01*
X287811Y365779D01*
X289134Y366664D01*
X290018Y367987D01*
X290076Y368277D01*
D02*
G37*
G36*
X284980D02*
X282424D01*
X282482Y367987D01*
X283366Y366664D01*
X284689Y365779D01*
X284980Y365722D01*
Y368277D01*
D02*
G37*
G36*
X260287Y367520D02*
X257731D01*
Y364964D01*
X258022Y365022D01*
X259345Y365906D01*
X260229Y367229D01*
X260287Y367520D01*
D02*
G37*
G36*
X255191D02*
X252635D01*
X252693Y367229D01*
X253577Y365906D01*
X254900Y365022D01*
X255191Y364964D01*
Y367520D01*
D02*
G37*
G36*
X139218Y366230D02*
X136662D01*
Y363674D01*
X136953Y363732D01*
X138276Y364616D01*
X139160Y365939D01*
X139218Y366230D01*
D02*
G37*
G36*
X134122D02*
X131566D01*
X131624Y365939D01*
X132508Y364616D01*
X133831Y363732D01*
X134122Y363674D01*
Y366230D01*
D02*
G37*
G36*
X305520Y363950D02*
Y361394D01*
X308076D01*
X308018Y361685D01*
X307134Y363008D01*
X305811Y363892D01*
X305520Y363950D01*
D02*
G37*
G36*
X302980D02*
X302689Y363892D01*
X301366Y363008D01*
X300482Y361685D01*
X300424Y361394D01*
X302980D01*
Y363950D01*
D02*
G37*
G36*
X308076Y358854D02*
X305520D01*
Y356298D01*
X305811Y356356D01*
X307134Y357240D01*
X308018Y358563D01*
X308076Y358854D01*
D02*
G37*
G36*
X302980D02*
X300424D01*
X300482Y358563D01*
X301366Y357240D01*
X302689Y356356D01*
X302980Y356298D01*
Y358854D01*
D02*
G37*
G36*
X227304Y357596D02*
Y355040D01*
X229860D01*
X229802Y355331D01*
X228918Y356654D01*
X227595Y357538D01*
X227304Y357596D01*
D02*
G37*
G36*
X224764D02*
X224473Y357538D01*
X223150Y356654D01*
X222266Y355331D01*
X222208Y355040D01*
X224764D01*
Y357596D01*
D02*
G37*
G36*
X129162Y356326D02*
Y353770D01*
X131718D01*
X131660Y354061D01*
X130776Y355384D01*
X129453Y356268D01*
X129162Y356326D01*
D02*
G37*
G36*
X126622D02*
X126331Y356268D01*
X125008Y355384D01*
X124124Y354061D01*
X124066Y353770D01*
X126622D01*
Y356326D01*
D02*
G37*
G36*
X187822Y355856D02*
Y353300D01*
X190377D01*
X190319Y353591D01*
X189436Y354914D01*
X188112Y355798D01*
X187822Y355856D01*
D02*
G37*
G36*
X185282D02*
X184991Y355798D01*
X183668Y354914D01*
X182784Y353591D01*
X182726Y353300D01*
X185282D01*
Y355856D01*
D02*
G37*
G36*
X517216Y355877D02*
Y353270D01*
X519823D01*
X519761Y353580D01*
X518866Y354920D01*
X517527Y355815D01*
X517216Y355877D01*
D02*
G37*
G36*
X154132Y353846D02*
Y351290D01*
X156688D01*
X156630Y351581D01*
X155746Y352904D01*
X154423Y353788D01*
X154132Y353846D01*
D02*
G37*
G36*
X151592D02*
X151301Y353788D01*
X149978Y352904D01*
X149094Y351581D01*
X149036Y351290D01*
X151592D01*
Y353846D01*
D02*
G37*
G36*
X287520Y353373D02*
Y350817D01*
X290076D01*
X290018Y351108D01*
X289134Y352431D01*
X287811Y353315D01*
X287520Y353373D01*
D02*
G37*
G36*
X284980D02*
X284689Y353315D01*
X283366Y352431D01*
X282482Y351108D01*
X282424Y350817D01*
X284980D01*
Y353373D01*
D02*
G37*
G36*
X229860Y352500D02*
X227304D01*
Y349945D01*
X227595Y350003D01*
X228918Y350887D01*
X229802Y352210D01*
X229860Y352500D01*
D02*
G37*
G36*
X224764D02*
X222208D01*
X222266Y352210D01*
X223150Y350887D01*
X224473Y350003D01*
X224764Y349945D01*
Y352500D01*
D02*
G37*
G36*
X325270Y352030D02*
Y349474D01*
X327826D01*
X327768Y349765D01*
X326884Y351088D01*
X325561Y351972D01*
X325270Y352030D01*
D02*
G37*
G36*
X322730D02*
X322439Y351972D01*
X321116Y351088D01*
X320232Y349765D01*
X320174Y349474D01*
X322730D01*
Y352030D01*
D02*
G37*
G36*
X131718Y351230D02*
X129162D01*
Y348674D01*
X129453Y348732D01*
X130776Y349616D01*
X131660Y350939D01*
X131718Y351230D01*
D02*
G37*
G36*
X126622D02*
X124066D01*
X124124Y350939D01*
X125008Y349616D01*
X126331Y348732D01*
X126622Y348674D01*
Y351230D01*
D02*
G37*
G36*
X158555Y348826D02*
X158264Y348768D01*
X157944Y348554D01*
X157649Y348750D01*
X154132D01*
Y346194D01*
X154423Y346252D01*
X154744Y346467D01*
X155038Y346270D01*
X158555D01*
Y348826D01*
D02*
G37*
G36*
X190377Y350760D02*
X187822D01*
Y348204D01*
X188112Y348262D01*
X189436Y349146D01*
X190319Y350469D01*
X190377Y350760D01*
D02*
G37*
G36*
X185282D02*
X182726D01*
X182784Y350469D01*
X183668Y349146D01*
X184991Y348262D01*
X185282Y348204D01*
Y350760D01*
D02*
G37*
G36*
X519823Y350730D02*
X517216D01*
Y348123D01*
X517527Y348185D01*
X518866Y349080D01*
X519761Y350420D01*
X519823Y350730D01*
D02*
G37*
G36*
X257481Y349826D02*
Y347270D01*
X260037D01*
X259979Y347561D01*
X259095Y348884D01*
X257772Y349768D01*
X257481Y349826D01*
D02*
G37*
G36*
X254941D02*
X254650Y349768D01*
X253327Y348884D01*
X252443Y347561D01*
X252385Y347270D01*
X254941D01*
Y349826D01*
D02*
G37*
G36*
X161095Y348826D02*
Y346270D01*
X163651D01*
X163593Y346561D01*
X162709Y347884D01*
X161386Y348768D01*
X161095Y348826D01*
D02*
G37*
G36*
X151592Y348750D02*
X149036D01*
X149094Y348460D01*
X149978Y347136D01*
X151301Y346252D01*
X151592Y346194D01*
Y348750D01*
D02*
G37*
G36*
X290076Y348277D02*
X287520D01*
Y345722D01*
X287811Y345779D01*
X289134Y346664D01*
X290018Y347987D01*
X290076Y348277D01*
D02*
G37*
G36*
X284980D02*
X282424D01*
X282482Y347987D01*
X283366Y346664D01*
X284689Y345779D01*
X284980Y345722D01*
Y348277D01*
D02*
G37*
G36*
X327826Y346934D02*
X325270D01*
Y344378D01*
X325561Y344436D01*
X326884Y345320D01*
X327768Y346643D01*
X327826Y346934D01*
D02*
G37*
G36*
X322730D02*
X320174D01*
X320232Y346643D01*
X321116Y345320D01*
X322439Y344436D01*
X322730Y344378D01*
Y346934D01*
D02*
G37*
G36*
X260037Y344730D02*
X257481D01*
Y342174D01*
X257772Y342232D01*
X259095Y343116D01*
X259979Y344439D01*
X260037Y344730D01*
D02*
G37*
G36*
X254941D02*
X252385D01*
X252443Y344439D01*
X253327Y343116D01*
X254650Y342232D01*
X254941Y342174D01*
Y344730D01*
D02*
G37*
G36*
X163651Y343730D02*
X161095D01*
Y341174D01*
X161386Y341232D01*
X162709Y342116D01*
X163593Y343439D01*
X163651Y343730D01*
D02*
G37*
G36*
X158555D02*
X155999D01*
X156057Y343439D01*
X156941Y342116D01*
X158264Y341232D01*
X158555Y341174D01*
Y343730D01*
D02*
G37*
G36*
X305270Y341160D02*
Y338604D01*
X307826D01*
X307768Y338895D01*
X306884Y340218D01*
X305561Y341102D01*
X305270Y341160D01*
D02*
G37*
G36*
X302730D02*
X302439Y341102D01*
X301116Y340218D01*
X300232Y338895D01*
X300174Y338604D01*
X302730D01*
Y341160D01*
D02*
G37*
G36*
X490730Y339650D02*
X490420Y339588D01*
X489080Y338693D01*
X488185Y337354D01*
X488123Y337043D01*
X490730D01*
Y339650D01*
D02*
G37*
G36*
X227304Y337596D02*
Y335040D01*
X229860D01*
X229802Y335331D01*
X228918Y336654D01*
X227595Y337538D01*
X227304Y337596D01*
D02*
G37*
G36*
X224764D02*
X224473Y337538D01*
X223150Y336654D01*
X222266Y335331D01*
X222208Y335040D01*
X224764D01*
Y337596D01*
D02*
G37*
G36*
X307826Y336064D02*
X305270D01*
Y333508D01*
X305561Y333566D01*
X306884Y334450D01*
X307768Y335773D01*
X307826Y336064D01*
D02*
G37*
G36*
X302730D02*
X300174D01*
X300232Y335773D01*
X301116Y334450D01*
X302439Y333566D01*
X302730Y333508D01*
Y336064D01*
D02*
G37*
G36*
X490730Y334503D02*
X488123D01*
X488185Y334193D01*
X489080Y332853D01*
X490420Y331958D01*
X490730Y331897D01*
Y334503D01*
D02*
G37*
G36*
X617270Y333826D02*
Y331270D01*
X619826D01*
X619768Y331561D01*
X618884Y332884D01*
X617561Y333768D01*
X617270Y333826D01*
D02*
G37*
G36*
X614730D02*
X614439Y333768D01*
X613116Y332884D01*
X612232Y331561D01*
X612174Y331270D01*
X614730D01*
Y333826D01*
D02*
G37*
G36*
X557270D02*
Y331270D01*
X559826D01*
X559768Y331561D01*
X558884Y332884D01*
X557561Y333768D01*
X557270Y333826D01*
D02*
G37*
G36*
X554730D02*
X554439Y333768D01*
X553116Y332884D01*
X552232Y331561D01*
X552174Y331270D01*
X554730D01*
Y333826D01*
D02*
G37*
G36*
X317270D02*
Y331270D01*
X319826D01*
X319768Y331561D01*
X318884Y332884D01*
X317561Y333768D01*
X317270Y333826D01*
D02*
G37*
G36*
X314730D02*
X314439Y333768D01*
X313116Y332884D01*
X312232Y331561D01*
X312174Y331270D01*
X314730D01*
Y333826D01*
D02*
G37*
G36*
X257270D02*
Y331270D01*
X259826D01*
X259768Y331561D01*
X258884Y332884D01*
X257561Y333768D01*
X257270Y333826D01*
D02*
G37*
G36*
X254730D02*
X254439Y333768D01*
X253116Y332884D01*
X252232Y331561D01*
X252174Y331270D01*
X254730D01*
Y333826D01*
D02*
G37*
G36*
X77270D02*
Y331270D01*
X79826D01*
X79768Y331561D01*
X78884Y332884D01*
X77561Y333768D01*
X77270Y333826D01*
D02*
G37*
G36*
X74730D02*
X74439Y333768D01*
X73116Y332884D01*
X72232Y331561D01*
X72174Y331270D01*
X74730D01*
Y333826D01*
D02*
G37*
G36*
X287520Y333373D02*
Y330817D01*
X290076D01*
X290018Y331108D01*
X289134Y332431D01*
X287811Y333315D01*
X287520Y333373D01*
D02*
G37*
G36*
X284980D02*
X284689Y333315D01*
X283366Y332431D01*
X282482Y331108D01*
X282424Y330817D01*
X284980D01*
Y333373D01*
D02*
G37*
G36*
X187572Y333066D02*
Y330510D01*
X190127D01*
X190070Y330801D01*
X189186Y332124D01*
X187862Y333008D01*
X187572Y333066D01*
D02*
G37*
G36*
X185032D02*
X184741Y333008D01*
X183418Y332124D01*
X182534Y330801D01*
X182476Y330510D01*
X185032D01*
Y333066D01*
D02*
G37*
G36*
X229860Y332500D02*
X227304D01*
Y329944D01*
X227595Y330002D01*
X228918Y330886D01*
X229802Y332209D01*
X229860Y332500D01*
D02*
G37*
G36*
X224764D02*
X222208D01*
X222266Y332209D01*
X223150Y330886D01*
X224473Y330002D01*
X224764Y329944D01*
Y332500D01*
D02*
G37*
G36*
X619826Y328730D02*
X617270D01*
Y326174D01*
X617561Y326232D01*
X618884Y327116D01*
X619768Y328439D01*
X619826Y328730D01*
D02*
G37*
G36*
X614730D02*
X612174D01*
X612232Y328439D01*
X613116Y327116D01*
X614439Y326232D01*
X614730Y326174D01*
Y328730D01*
D02*
G37*
G36*
X559826D02*
X557270D01*
Y326174D01*
X557561Y326232D01*
X558884Y327116D01*
X559768Y328439D01*
X559826Y328730D01*
D02*
G37*
G36*
X554730D02*
X552174D01*
X552232Y328439D01*
X553116Y327116D01*
X554439Y326232D01*
X554730Y326174D01*
Y328730D01*
D02*
G37*
G36*
X319826D02*
X317270D01*
Y326174D01*
X317561Y326232D01*
X318884Y327116D01*
X319768Y328439D01*
X319826Y328730D01*
D02*
G37*
G36*
X314730D02*
X312174D01*
X312232Y328439D01*
X313116Y327116D01*
X314439Y326232D01*
X314730Y326174D01*
Y328730D01*
D02*
G37*
G36*
X259826D02*
X257270D01*
Y326174D01*
X257561Y326232D01*
X258884Y327116D01*
X259768Y328439D01*
X259826Y328730D01*
D02*
G37*
G36*
X254730D02*
X252174D01*
X252232Y328439D01*
X253116Y327116D01*
X254439Y326232D01*
X254730Y326174D01*
Y328730D01*
D02*
G37*
G36*
X79826D02*
X77270D01*
Y326174D01*
X77561Y326232D01*
X78884Y327116D01*
X79768Y328439D01*
X79826Y328730D01*
D02*
G37*
G36*
X74730D02*
X72174D01*
X72232Y328439D01*
X73116Y327116D01*
X74439Y326232D01*
X74730Y326174D01*
Y328730D01*
D02*
G37*
G36*
X290076Y328277D02*
X287520D01*
Y325721D01*
X287811Y325779D01*
X289134Y326663D01*
X290018Y327986D01*
X290076Y328277D01*
D02*
G37*
G36*
X284980D02*
X282424D01*
X282482Y327986D01*
X283366Y326663D01*
X284689Y325779D01*
X284980Y325721D01*
Y328277D01*
D02*
G37*
G36*
X190127Y327970D02*
X187572D01*
Y325414D01*
X187862Y325472D01*
X189186Y326356D01*
X190070Y327679D01*
X190127Y327970D01*
D02*
G37*
G36*
X185032D02*
X182476D01*
X182534Y327679D01*
X183418Y326356D01*
X184741Y325472D01*
X185032Y325414D01*
Y327970D01*
D02*
G37*
G36*
X164822Y321606D02*
Y319050D01*
X167378D01*
X167320Y319341D01*
X166436Y320664D01*
X165113Y321548D01*
X164822Y321606D01*
D02*
G37*
G36*
X162282D02*
X161991Y321548D01*
X160668Y320664D01*
X159784Y319341D01*
X159726Y319050D01*
X162282D01*
Y321606D01*
D02*
G37*
G36*
X167378Y316510D02*
X164822D01*
Y313954D01*
X165113Y314012D01*
X166436Y314896D01*
X167320Y316219D01*
X167378Y316510D01*
D02*
G37*
G36*
X162282D02*
X159726D01*
X159784Y316219D01*
X160668Y314896D01*
X161991Y314012D01*
X162282Y313954D01*
Y316510D01*
D02*
G37*
G36*
X154132Y315856D02*
Y313300D01*
X156688D01*
X156630Y313591D01*
X155746Y314914D01*
X154423Y315798D01*
X154132Y315856D01*
D02*
G37*
G36*
X151592D02*
X151301Y315798D01*
X149978Y314914D01*
X149094Y313591D01*
X149036Y313300D01*
X151592D01*
Y315856D01*
D02*
G37*
G36*
X129162D02*
Y313300D01*
X131718D01*
X131660Y313591D01*
X130776Y314914D01*
X129453Y315798D01*
X129162Y315856D01*
D02*
G37*
G36*
X126622D02*
X126331Y315798D01*
X125008Y314914D01*
X124124Y313591D01*
X124066Y313300D01*
X126622D01*
Y315856D01*
D02*
G37*
G36*
X227054Y314806D02*
Y312250D01*
X229610D01*
X229552Y312541D01*
X228668Y313864D01*
X227345Y314748D01*
X227054Y314806D01*
D02*
G37*
G36*
X224514D02*
X224223Y314748D01*
X222900Y313864D01*
X222016Y312541D01*
X221958Y312250D01*
X224514D01*
Y314806D01*
D02*
G37*
G36*
X156688Y310760D02*
X154132D01*
Y308204D01*
X154423Y308262D01*
X155746Y309146D01*
X156630Y310469D01*
X156688Y310760D01*
D02*
G37*
G36*
X151592D02*
X149036D01*
X149094Y310469D01*
X149978Y309146D01*
X151301Y308262D01*
X151592Y308204D01*
Y310760D01*
D02*
G37*
G36*
X131718D02*
X129162D01*
Y308204D01*
X129453Y308262D01*
X130776Y309146D01*
X131660Y310469D01*
X131718Y310760D01*
D02*
G37*
G36*
X126622D02*
X124066D01*
X124124Y310469D01*
X125008Y309146D01*
X126331Y308262D01*
X126622Y308204D01*
Y310760D01*
D02*
G37*
G36*
X287270Y310583D02*
Y308027D01*
X289826D01*
X289768Y308318D01*
X288884Y309641D01*
X287561Y310525D01*
X287270Y310583D01*
D02*
G37*
G36*
X284730D02*
X284439Y310525D01*
X283116Y309641D01*
X282232Y308318D01*
X282174Y308027D01*
X284730D01*
Y310583D01*
D02*
G37*
G36*
X229610Y309710D02*
X227054D01*
Y307154D01*
X227345Y307212D01*
X228668Y308096D01*
X229552Y309419D01*
X229610Y309710D01*
D02*
G37*
G36*
X224514D02*
X221958D01*
X222016Y309419D01*
X222900Y308096D01*
X224223Y307212D01*
X224514Y307154D01*
Y309710D01*
D02*
G37*
G36*
X289826Y305487D02*
X287270D01*
Y302931D01*
X287561Y302989D01*
X288884Y303873D01*
X289768Y305196D01*
X289826Y305487D01*
D02*
G37*
G36*
X284730D02*
X282174D01*
X282232Y305196D01*
X283116Y303873D01*
X284439Y302989D01*
X284730Y302931D01*
Y305487D01*
D02*
G37*
G36*
X621390Y318982D02*
X618910Y318655D01*
X616599Y317698D01*
X614615Y316175D01*
X613092Y314191D01*
X612135Y311880D01*
X611808Y309400D01*
X612135Y306920D01*
X613092Y304609D01*
X614615Y302625D01*
X616599Y301102D01*
X618910Y300145D01*
X621390Y299818D01*
X623870Y300145D01*
X626181Y301102D01*
X628166Y302625D01*
X629688Y304609D01*
X630645Y306920D01*
X630972Y309400D01*
X630645Y311880D01*
X629688Y314191D01*
X628166Y316175D01*
X626181Y317698D01*
X623870Y318655D01*
X621390Y318982D01*
D02*
G37*
G36*
X154132Y280826D02*
Y278270D01*
X156688D01*
X156630Y278561D01*
X155746Y279884D01*
X154423Y280768D01*
X154132Y280826D01*
D02*
G37*
G36*
X151592D02*
X151301Y280768D01*
X149978Y279884D01*
X149094Y278561D01*
X149036Y278270D01*
X151592D01*
Y280826D01*
D02*
G37*
G36*
X129162D02*
Y278270D01*
X131718D01*
X131660Y278561D01*
X130776Y279884D01*
X129453Y280768D01*
X129162Y280826D01*
D02*
G37*
G36*
X126622D02*
X126331Y280768D01*
X125008Y279884D01*
X124124Y278561D01*
X124066Y278270D01*
X126622D01*
Y280826D01*
D02*
G37*
G36*
X74270Y278277D02*
Y275670D01*
X76877D01*
X76815Y275980D01*
X75920Y277320D01*
X74580Y278215D01*
X74270Y278277D01*
D02*
G37*
G36*
X71730D02*
X71420Y278215D01*
X70080Y277320D01*
X69185Y275980D01*
X69123Y275670D01*
X71730D01*
Y278277D01*
D02*
G37*
G36*
X48924Y286649D02*
Y275670D01*
X59903D01*
X59647Y277614D01*
X58407Y280608D01*
X56433Y283180D01*
X53862Y285153D01*
X50867Y286393D01*
X48924Y286649D01*
D02*
G37*
G36*
X46384D02*
X44440Y286393D01*
X41446Y285153D01*
X38874Y283180D01*
X36901Y280608D01*
X35661Y277614D01*
X35405Y275670D01*
X46384D01*
Y286649D01*
D02*
G37*
G36*
X30520Y278277D02*
Y275670D01*
X33127D01*
X33065Y275980D01*
X32170Y277320D01*
X30830Y278215D01*
X30520Y278277D01*
D02*
G37*
G36*
X27980D02*
X27670Y278215D01*
X26330Y277320D01*
X25435Y275980D01*
X25373Y275670D01*
X27980D01*
Y278277D01*
D02*
G37*
G36*
X99724Y286649D02*
Y275670D01*
X110703D01*
X110447Y277614D01*
X109206Y280608D01*
X107233Y283180D01*
X104662Y285153D01*
X101667Y286393D01*
X99724Y286649D01*
D02*
G37*
G36*
X97184Y286649D02*
X95240Y286393D01*
X92246Y285153D01*
X89674Y283180D01*
X87701Y280608D01*
X86461Y277614D01*
X86205Y275670D01*
X97184D01*
Y286649D01*
D02*
G37*
G36*
X630890Y293500D02*
X611890D01*
Y274500D01*
X630890D01*
Y293500D01*
D02*
G37*
G36*
X156688Y275730D02*
X154132D01*
Y273174D01*
X154423Y273232D01*
X155746Y274116D01*
X156630Y275439D01*
X156688Y275730D01*
D02*
G37*
G36*
X151592D02*
X149036D01*
X149094Y275439D01*
X149978Y274116D01*
X151301Y273232D01*
X151592Y273174D01*
Y275730D01*
D02*
G37*
G36*
X131718D02*
X129162D01*
Y273174D01*
X129453Y273232D01*
X130776Y274116D01*
X131660Y275439D01*
X131718Y275730D01*
D02*
G37*
G36*
X126622D02*
X124066D01*
X124124Y275439D01*
X125008Y274116D01*
X126331Y273232D01*
X126622Y273174D01*
Y275730D01*
D02*
G37*
G36*
X467270Y273826D02*
Y271270D01*
X469826D01*
X469768Y271561D01*
X468884Y272884D01*
X467561Y273768D01*
X467270Y273826D01*
D02*
G37*
G36*
X464730D02*
X464439Y273768D01*
X463116Y272884D01*
X462232Y271561D01*
X462174Y271270D01*
X464730D01*
Y273826D01*
D02*
G37*
G36*
X76877Y273130D02*
X74270D01*
Y270523D01*
X74580Y270585D01*
X75920Y271480D01*
X76815Y272820D01*
X76877Y273130D01*
D02*
G37*
G36*
X71730D02*
X69123D01*
X69185Y272820D01*
X70080Y271480D01*
X71420Y270585D01*
X71730Y270523D01*
Y273130D01*
D02*
G37*
G36*
X33127D02*
X30520D01*
Y270523D01*
X30830Y270585D01*
X32170Y271480D01*
X33065Y272820D01*
X33127Y273130D01*
D02*
G37*
G36*
X27980D02*
X25373D01*
X25435Y272820D01*
X26330Y271480D01*
X27670Y270585D01*
X27980Y270523D01*
Y273130D01*
D02*
G37*
G36*
X469826Y268730D02*
X467270D01*
Y266174D01*
X467561Y266232D01*
X468884Y267116D01*
X469768Y268439D01*
X469826Y268730D01*
D02*
G37*
G36*
X464730D02*
X462174D01*
X462232Y268439D01*
X463116Y267116D01*
X464439Y266232D01*
X464730Y266174D01*
Y268730D01*
D02*
G37*
G36*
X271392Y424608D02*
X269246Y424181D01*
X267426Y422965D01*
X266211Y421146D01*
X265784Y419000D01*
Y408500D01*
Y291323D01*
X257426Y282966D01*
X256211Y281146D01*
X255784Y279000D01*
Y271000D01*
X256211Y268854D01*
X257426Y267035D01*
X259246Y265819D01*
X261392Y265392D01*
X263538Y265819D01*
X265357Y267035D01*
X266573Y268854D01*
X266999Y271000D01*
Y276677D01*
X275357Y285035D01*
X276572Y286854D01*
X276999Y289000D01*
Y408500D01*
Y419000D01*
X276572Y421146D01*
X275357Y422965D01*
X273538Y424181D01*
X271392Y424608D01*
D02*
G37*
G36*
X97184Y273130D02*
X86205D01*
X86461Y271187D01*
X87701Y268192D01*
X89674Y265620D01*
X90151Y265254D01*
X89613Y264067D01*
X89554Y264078D01*
X87993Y263768D01*
X86670Y262884D01*
X85786Y261561D01*
X85728Y261270D01*
X93379D01*
X93322Y261561D01*
X93076Y261929D01*
X93918Y262955D01*
X95240Y262407D01*
X97184Y262151D01*
Y273130D01*
D02*
G37*
G36*
X152270Y264942D02*
Y262386D01*
X154826D01*
X154768Y262677D01*
X153884Y264000D01*
X152561Y264884D01*
X152270Y264942D01*
D02*
G37*
G36*
X149730D02*
X149439Y264884D01*
X148116Y264000D01*
X147232Y262677D01*
X147174Y262386D01*
X149730D01*
Y264942D01*
D02*
G37*
G36*
X129046D02*
Y262386D01*
X131601D01*
X131544Y262677D01*
X130660Y264000D01*
X129337Y264884D01*
X129046Y264942D01*
D02*
G37*
G36*
X126506D02*
X126215Y264884D01*
X124892Y264000D01*
X124008Y262677D01*
X123950Y262386D01*
X126506D01*
Y264942D01*
D02*
G37*
G36*
X110703Y273130D02*
X99724D01*
Y262151D01*
X101667Y262407D01*
X104662Y263647D01*
X107233Y265620D01*
X109206Y268192D01*
X110447Y271187D01*
X110703Y273130D01*
D02*
G37*
G36*
X46384Y273130D02*
X35405D01*
X35661Y271187D01*
X36901Y268192D01*
X38874Y265620D01*
X41446Y263647D01*
X44440Y262407D01*
X46384Y262151D01*
Y273130D01*
D02*
G37*
G36*
X113654Y263826D02*
Y261270D01*
X116209D01*
X116152Y261561D01*
X115268Y262884D01*
X113945Y263768D01*
X113654Y263826D01*
D02*
G37*
G36*
X111114D02*
X110823Y263768D01*
X109500Y262884D01*
X108616Y261561D01*
X108558Y261270D01*
X111114D01*
Y263826D01*
D02*
G37*
G36*
X58594D02*
Y261270D01*
X61150D01*
X61092Y261561D01*
X60208Y262884D01*
X58885Y263768D01*
X58594Y263826D01*
D02*
G37*
G36*
X59903Y273130D02*
X48924D01*
Y262151D01*
X50867Y262407D01*
X53255Y263396D01*
X54097Y262370D01*
X53556Y261561D01*
X53498Y261270D01*
X56054D01*
Y264237D01*
X55687Y265048D01*
X56433Y265620D01*
X58407Y268192D01*
X59647Y271187D01*
X59903Y273130D01*
D02*
G37*
G36*
X154826Y259846D02*
X152270D01*
Y257290D01*
X152561Y257348D01*
X153884Y258232D01*
X154768Y259555D01*
X154826Y259846D01*
D02*
G37*
G36*
X149730D02*
X147174D01*
X147232Y259555D01*
X148116Y258232D01*
X149439Y257348D01*
X149730Y257290D01*
Y259846D01*
D02*
G37*
G36*
X131601D02*
X129046D01*
Y257290D01*
X129337Y257348D01*
X130660Y258232D01*
X131544Y259555D01*
X131601Y259846D01*
D02*
G37*
G36*
X126506D02*
X123950D01*
X124008Y259555D01*
X124892Y258232D01*
X126215Y257348D01*
X126506Y257290D01*
Y259846D01*
D02*
G37*
G36*
X116209Y258730D02*
X113654D01*
Y256174D01*
X113945Y256232D01*
X115268Y257116D01*
X116152Y258439D01*
X116209Y258730D01*
D02*
G37*
G36*
X111114D02*
X108558D01*
X108616Y258439D01*
X109500Y257116D01*
X110823Y256232D01*
X111114Y256174D01*
Y258730D01*
D02*
G37*
G36*
X93379D02*
X90824D01*
Y256174D01*
X91115Y256232D01*
X92438Y257116D01*
X93322Y258439D01*
X93379Y258730D01*
D02*
G37*
G36*
X88284D02*
X85728D01*
X85786Y258439D01*
X86670Y257116D01*
X87993Y256232D01*
X88284Y256174D01*
Y258730D01*
D02*
G37*
G36*
X61150D02*
X58594D01*
Y256174D01*
X58885Y256232D01*
X60208Y257116D01*
X61092Y258439D01*
X61150Y258730D01*
D02*
G37*
G36*
X56054D02*
X53498D01*
X53556Y258439D01*
X54440Y257116D01*
X55763Y256232D01*
X56054Y256174D01*
Y258730D01*
D02*
G37*
G36*
X145270Y247747D02*
Y245192D01*
X147826D01*
X147768Y245482D01*
X146884Y246806D01*
X145561Y247690D01*
X145270Y247747D01*
D02*
G37*
G36*
X142730D02*
X142439Y247690D01*
X141116Y246806D01*
X140232Y245482D01*
X140174Y245192D01*
X142730D01*
Y247747D01*
D02*
G37*
G36*
X188260Y242815D02*
Y240259D01*
X190816D01*
X190758Y240550D01*
X189874Y241873D01*
X188551Y242757D01*
X188260Y242815D01*
D02*
G37*
G36*
X185721D02*
X185430Y242757D01*
X184107Y241873D01*
X183223Y240550D01*
X183165Y240259D01*
X185721D01*
Y242815D01*
D02*
G37*
G36*
X147826Y242652D02*
X145270D01*
Y240096D01*
X145561Y240154D01*
X146884Y241038D01*
X147768Y242361D01*
X147826Y242652D01*
D02*
G37*
G36*
X142730D02*
X140174D01*
X140232Y242361D01*
X141116Y241038D01*
X142439Y240154D01*
X142730Y240096D01*
Y242652D01*
D02*
G37*
G36*
X129432Y242063D02*
Y239507D01*
X131988D01*
X131930Y239798D01*
X131046Y241121D01*
X129723Y242005D01*
X129432Y242063D01*
D02*
G37*
G36*
X126892D02*
X126601Y242005D01*
X125278Y241121D01*
X124394Y239798D01*
X124336Y239507D01*
X126892D01*
Y242063D01*
D02*
G37*
G36*
X113654Y241826D02*
Y239270D01*
X116209D01*
X116152Y239561D01*
X115268Y240884D01*
X113945Y241768D01*
X113654Y241826D01*
D02*
G37*
G36*
X111114D02*
X110823Y241768D01*
X109500Y240884D01*
X108616Y239561D01*
X108558Y239270D01*
X111114D01*
Y241826D01*
D02*
G37*
G36*
X91162D02*
Y239270D01*
X93718D01*
X93660Y239561D01*
X92776Y240884D01*
X91453Y241768D01*
X91162Y241826D01*
D02*
G37*
G36*
X88622D02*
X88331Y241768D01*
X87008Y240884D01*
X86124Y239561D01*
X86066Y239270D01*
X88622D01*
Y241826D01*
D02*
G37*
G36*
X58594D02*
Y239270D01*
X61150D01*
X61092Y239561D01*
X60208Y240884D01*
X58885Y241768D01*
X58594Y241826D01*
D02*
G37*
G36*
X56054D02*
X55763Y241768D01*
X54440Y240884D01*
X53556Y239561D01*
X53498Y239270D01*
X56054D01*
Y241826D01*
D02*
G37*
G36*
X73054Y262425D02*
X69579Y261968D01*
X66341Y260626D01*
X63561Y258493D01*
X61427Y255713D01*
X60086Y252475D01*
X59629Y249000D01*
X60086Y245525D01*
X61427Y242288D01*
X63561Y239507D01*
X66341Y237374D01*
X69579Y236033D01*
X73054Y235575D01*
X76528Y236033D01*
X79766Y237374D01*
X82547Y239507D01*
X84680Y242288D01*
X86021Y245525D01*
X86479Y249000D01*
X86021Y252475D01*
X84680Y255713D01*
X82547Y258493D01*
X79766Y260626D01*
X76528Y261968D01*
X73054Y262425D01*
D02*
G37*
G36*
X190816Y237719D02*
X188260D01*
Y235163D01*
X188551Y235221D01*
X189874Y236105D01*
X190758Y237428D01*
X190816Y237719D01*
D02*
G37*
G36*
X185721D02*
X183165D01*
X183223Y237428D01*
X184107Y236105D01*
X185430Y235221D01*
X185721Y235163D01*
Y237719D01*
D02*
G37*
G36*
X56054Y236730D02*
X53498D01*
X53556Y236439D01*
X54097Y235630D01*
X53255Y234604D01*
X50867Y235593D01*
X48924Y235849D01*
Y224870D01*
X59903D01*
X59647Y226814D01*
X58407Y229808D01*
X56433Y232380D01*
X55687Y232952D01*
X56054Y233762D01*
Y236730D01*
D02*
G37*
G36*
X131988Y236967D02*
X129432D01*
Y234412D01*
X129723Y234469D01*
X131046Y235353D01*
X131930Y236677D01*
X131988Y236967D01*
D02*
G37*
G36*
X126892D02*
X124336D01*
X124394Y236677D01*
X125278Y235353D01*
X126601Y234469D01*
X126892Y234412D01*
Y236967D01*
D02*
G37*
G36*
X116209Y236730D02*
X113654D01*
Y234174D01*
X113945Y234232D01*
X115268Y235116D01*
X116152Y236439D01*
X116209Y236730D01*
D02*
G37*
G36*
X111114D02*
X108558D01*
X108616Y236439D01*
X109500Y235116D01*
X110823Y234232D01*
X111114Y234174D01*
Y236730D01*
D02*
G37*
G36*
X61150D02*
X58594D01*
Y234174D01*
X58885Y234232D01*
X60208Y235116D01*
X61092Y236439D01*
X61150Y236730D01*
D02*
G37*
G36*
X72770Y227477D02*
Y224870D01*
X75377D01*
X75315Y225180D01*
X74420Y226520D01*
X73080Y227415D01*
X72770Y227477D01*
D02*
G37*
G36*
X70230D02*
X69920Y227415D01*
X68580Y226520D01*
X67685Y225180D01*
X67623Y224870D01*
X70230D01*
Y227477D01*
D02*
G37*
G36*
X99724Y235849D02*
Y224870D01*
X110703D01*
X110447Y226814D01*
X109206Y229808D01*
X107233Y232380D01*
X104662Y234353D01*
X101667Y235593D01*
X99724Y235849D01*
D02*
G37*
G36*
X93718Y236730D02*
X86066D01*
X86124Y236439D01*
X87008Y235116D01*
X88331Y234232D01*
X89658Y233968D01*
X89993Y233247D01*
X90077Y232689D01*
X89674Y232380D01*
X87701Y229808D01*
X86461Y226814D01*
X86205Y224870D01*
X97184D01*
Y235849D01*
X95240Y235593D01*
X94385Y235239D01*
X93543Y236265D01*
X93660Y236439D01*
X93718Y236730D01*
D02*
G37*
G36*
X28622Y227022D02*
X28312Y226961D01*
X26972Y226066D01*
X26077Y224726D01*
X26015Y224416D01*
X28622D01*
Y227022D01*
D02*
G37*
G36*
X46384Y235849D02*
X44440Y235593D01*
X41446Y234353D01*
X38874Y232380D01*
X36901Y229808D01*
X35661Y226814D01*
X35282Y223937D01*
X34991Y223709D01*
X33794Y224288D01*
X33707Y224726D01*
X32812Y226066D01*
X31472Y226961D01*
X31162Y227022D01*
Y223146D01*
Y219269D01*
X31472Y219331D01*
X32812Y220226D01*
X33707Y221565D01*
X33802Y222044D01*
X35207Y222598D01*
X35387Y222468D01*
X35661Y220387D01*
X36901Y217392D01*
X38874Y214820D01*
X41446Y212847D01*
X44440Y211607D01*
X46384Y211351D01*
Y223600D01*
Y235849D01*
D02*
G37*
G36*
X75377Y222330D02*
X72770D01*
Y219723D01*
X73080Y219785D01*
X74420Y220680D01*
X75315Y222020D01*
X75377Y222330D01*
D02*
G37*
G36*
X70230D02*
X67623D01*
X67685Y222020D01*
X68580Y220680D01*
X69920Y219785D01*
X70230Y219723D01*
Y222330D01*
D02*
G37*
G36*
X28622Y221876D02*
X26015D01*
X26077Y221565D01*
X26972Y220226D01*
X28312Y219331D01*
X28622Y219269D01*
Y221876D01*
D02*
G37*
G36*
X110703Y222330D02*
X99724D01*
Y211351D01*
X101667Y211607D01*
X104662Y212847D01*
X107233Y214820D01*
X109206Y217392D01*
X110447Y220387D01*
X110703Y222330D01*
D02*
G37*
G36*
X97184D02*
X86205D01*
X86461Y220387D01*
X87701Y217392D01*
X89674Y214820D01*
X92246Y212847D01*
X95240Y211607D01*
X97184Y211351D01*
Y222330D01*
D02*
G37*
G36*
X59903Y222330D02*
X48924D01*
Y211351D01*
X50867Y211607D01*
X53862Y212847D01*
X56433Y214820D01*
X58407Y217392D01*
X59647Y220387D01*
X59903Y222330D01*
D02*
G37*
G36*
X617270Y213826D02*
Y211270D01*
X619826D01*
X619768Y211561D01*
X618884Y212884D01*
X617561Y213768D01*
X617270Y213826D01*
D02*
G37*
G36*
X614730D02*
X614439Y213768D01*
X613116Y212884D01*
X612232Y211561D01*
X612174Y211270D01*
X614730D01*
Y213826D01*
D02*
G37*
G36*
X557270D02*
Y211270D01*
X559826D01*
X559768Y211561D01*
X558884Y212884D01*
X557561Y213768D01*
X557270Y213826D01*
D02*
G37*
G36*
X554730D02*
X554439Y213768D01*
X553116Y212884D01*
X552232Y211561D01*
X552174Y211270D01*
X554730D01*
Y213826D01*
D02*
G37*
G36*
X137270D02*
Y211270D01*
X139826D01*
X139768Y211561D01*
X138884Y212884D01*
X137561Y213768D01*
X137270Y213826D01*
D02*
G37*
G36*
X134730D02*
X134439Y213768D01*
X133116Y212884D01*
X132232Y211561D01*
X132174Y211270D01*
X134730D01*
Y213826D01*
D02*
G37*
G36*
X77270D02*
Y211270D01*
X79826D01*
X79768Y211561D01*
X78884Y212884D01*
X77561Y213768D01*
X77270Y213826D01*
D02*
G37*
G36*
X74730D02*
X74439Y213768D01*
X73116Y212884D01*
X72232Y211561D01*
X72174Y211270D01*
X74730D01*
Y213826D01*
D02*
G37*
G36*
X619826Y208730D02*
X617270D01*
Y206174D01*
X617561Y206232D01*
X618884Y207116D01*
X619768Y208439D01*
X619826Y208730D01*
D02*
G37*
G36*
X614730D02*
X612174D01*
X612232Y208439D01*
X613116Y207116D01*
X614439Y206232D01*
X614730Y206174D01*
Y208730D01*
D02*
G37*
G36*
X559826D02*
X557270D01*
Y206174D01*
X557561Y206232D01*
X558884Y207116D01*
X559768Y208439D01*
X559826Y208730D01*
D02*
G37*
G36*
X554730D02*
X552174D01*
X552232Y208439D01*
X553116Y207116D01*
X554439Y206232D01*
X554730Y206174D01*
Y208730D01*
D02*
G37*
G36*
X139826D02*
X137270D01*
Y206174D01*
X137561Y206232D01*
X138884Y207116D01*
X139768Y208439D01*
X139826Y208730D01*
D02*
G37*
G36*
X134730D02*
X132174D01*
X132232Y208439D01*
X133116Y207116D01*
X134439Y206232D01*
X134730Y206174D01*
Y208730D01*
D02*
G37*
G36*
X79826D02*
X77270D01*
Y206174D01*
X77561Y206232D01*
X78884Y207116D01*
X79768Y208439D01*
X79826Y208730D01*
D02*
G37*
G36*
X74730D02*
X72174D01*
X72232Y208439D01*
X73116Y207116D01*
X74439Y206232D01*
X74730Y206174D01*
Y208730D01*
D02*
G37*
G36*
X258730Y203147D02*
X258420Y203085D01*
X257080Y202190D01*
X256185Y200850D01*
X256123Y200540D01*
X258730D01*
Y203147D01*
D02*
G37*
G36*
X26270Y202213D02*
Y199606D01*
X28877D01*
X28815Y199917D01*
X27920Y201256D01*
X26580Y202151D01*
X26270Y202213D01*
D02*
G37*
G36*
X23730D02*
X23420Y202151D01*
X22080Y201256D01*
X21185Y199917D01*
X21123Y199606D01*
X23730D01*
Y202213D01*
D02*
G37*
G36*
X258730Y198000D02*
X256123D01*
X256185Y197690D01*
X257080Y196350D01*
X258420Y195455D01*
X258730Y195393D01*
Y198000D01*
D02*
G37*
G36*
X28877Y197066D02*
X26270D01*
Y194460D01*
X26580Y194521D01*
X27920Y195417D01*
X28815Y196756D01*
X28877Y197066D01*
D02*
G37*
G36*
X23730D02*
X21123D01*
X21185Y196756D01*
X22080Y195417D01*
X23420Y194521D01*
X23730Y194460D01*
Y197066D01*
D02*
G37*
G36*
X409877Y192438D02*
X407270D01*
Y189831D01*
X407580Y189893D01*
X408920Y190788D01*
X409815Y192128D01*
X409877Y192438D01*
D02*
G37*
G36*
X404730D02*
X402123D01*
X402185Y192128D01*
X403080Y190788D01*
X404420Y189893D01*
X404730Y189831D01*
Y192438D01*
D02*
G37*
G36*
X26270Y191154D02*
Y182616D01*
X34808D01*
X34636Y183928D01*
X33639Y186334D01*
X32054Y188400D01*
X29988Y189985D01*
X27582Y190982D01*
X26270Y191154D01*
D02*
G37*
G36*
X8270Y185223D02*
Y182616D01*
X10877D01*
X10815Y182927D01*
X9920Y184266D01*
X8580Y185161D01*
X8270Y185223D01*
D02*
G37*
G36*
X5730D02*
X5420Y185161D01*
X4080Y184266D01*
X3185Y182927D01*
X3123Y182616D01*
X5730D01*
Y185223D01*
D02*
G37*
G36*
X23730Y191154D02*
X22418Y190982D01*
X20012Y189985D01*
X17946Y188400D01*
X16361Y186334D01*
X15365Y183928D01*
X15192Y182616D01*
X23730D01*
Y191154D01*
D02*
G37*
G36*
X10877Y180076D02*
X8270D01*
Y177470D01*
X8580Y177531D01*
X9920Y178426D01*
X10815Y179766D01*
X10877Y180076D01*
D02*
G37*
G36*
X5730D02*
X3123D01*
X3185Y179766D01*
X4080Y178426D01*
X5420Y177531D01*
X5730Y177470D01*
Y180076D01*
D02*
G37*
G36*
X34808D02*
X26270D01*
Y171538D01*
X27582Y171711D01*
X29988Y172708D01*
X32054Y174293D01*
X33639Y176359D01*
X34636Y178765D01*
X34808Y180076D01*
D02*
G37*
G36*
X23730D02*
X15192D01*
X15365Y178765D01*
X16361Y176359D01*
X17946Y174293D01*
X20012Y172708D01*
X22418Y171711D01*
X23730Y171538D01*
Y180076D01*
D02*
G37*
G36*
X50400Y192330D02*
X47557Y191956D01*
X44908Y190859D01*
X42633Y189113D01*
X40888Y186838D01*
X39790Y184189D01*
X39416Y181346D01*
X39790Y178503D01*
X40888Y175854D01*
X42633Y173580D01*
X44908Y171834D01*
X47557Y170737D01*
X50400Y170362D01*
X53243Y170737D01*
X55892Y171834D01*
X58167Y173580D01*
X59912Y175854D01*
X61010Y178503D01*
X61384Y181346D01*
X61010Y184189D01*
X59912Y186838D01*
X58167Y189113D01*
X55892Y190859D01*
X53243Y191956D01*
X50400Y192330D01*
D02*
G37*
G36*
X587270Y153826D02*
Y151270D01*
X589826D01*
X589768Y151561D01*
X588884Y152884D01*
X587561Y153768D01*
X587270Y153826D01*
D02*
G37*
G36*
X584730D02*
X584439Y153768D01*
X583116Y152884D01*
X582232Y151561D01*
X582174Y151270D01*
X584730D01*
Y153826D01*
D02*
G37*
G36*
X527270D02*
Y151270D01*
X529826D01*
X529768Y151561D01*
X528884Y152884D01*
X527561Y153768D01*
X527270Y153826D01*
D02*
G37*
G36*
X524730D02*
X524439Y153768D01*
X523116Y152884D01*
X522232Y151561D01*
X522174Y151270D01*
X524730D01*
Y153826D01*
D02*
G37*
G36*
X347270D02*
Y151270D01*
X349826D01*
X349768Y151561D01*
X348884Y152884D01*
X347561Y153768D01*
X347270Y153826D01*
D02*
G37*
G36*
X344730D02*
X344439Y153768D01*
X343116Y152884D01*
X342232Y151561D01*
X342174Y151270D01*
X344730D01*
Y153826D01*
D02*
G37*
G36*
X167270D02*
Y151270D01*
X169826D01*
X169768Y151561D01*
X168884Y152884D01*
X167561Y153768D01*
X167270Y153826D01*
D02*
G37*
G36*
X164730D02*
X164439Y153768D01*
X163116Y152884D01*
X162232Y151561D01*
X162174Y151270D01*
X164730D01*
Y153826D01*
D02*
G37*
G36*
X229770Y150877D02*
Y148270D01*
X232377D01*
X232315Y148580D01*
X231420Y149920D01*
X230080Y150815D01*
X229770Y150877D01*
D02*
G37*
G36*
X227230D02*
X226920Y150815D01*
X225580Y149920D01*
X224685Y148580D01*
X224623Y148270D01*
X227230D01*
Y150877D01*
D02*
G37*
G36*
X589826Y148730D02*
X587270D01*
Y146174D01*
X587561Y146232D01*
X588884Y147116D01*
X589768Y148439D01*
X589826Y148730D01*
D02*
G37*
G36*
X584730D02*
X582174D01*
X582232Y148439D01*
X583116Y147116D01*
X584439Y146232D01*
X584730Y146174D01*
Y148730D01*
D02*
G37*
G36*
X529826D02*
X527270D01*
Y146174D01*
X527561Y146232D01*
X528884Y147116D01*
X529768Y148439D01*
X529826Y148730D01*
D02*
G37*
G36*
X524730D02*
X522174D01*
X522232Y148439D01*
X523116Y147116D01*
X524439Y146232D01*
X524730Y146174D01*
Y148730D01*
D02*
G37*
G36*
X349826D02*
X347270D01*
Y146174D01*
X347561Y146232D01*
X348884Y147116D01*
X349768Y148439D01*
X349826Y148730D01*
D02*
G37*
G36*
X344730D02*
X342174D01*
X342232Y148439D01*
X343116Y147116D01*
X344439Y146232D01*
X344730Y146174D01*
Y148730D01*
D02*
G37*
G36*
X169826D02*
X167270D01*
Y146174D01*
X167561Y146232D01*
X168884Y147116D01*
X169768Y148439D01*
X169826Y148730D01*
D02*
G37*
G36*
X164730D02*
X162174D01*
X162232Y148439D01*
X163116Y147116D01*
X164439Y146232D01*
X164730Y146174D01*
Y148730D01*
D02*
G37*
G36*
X50400Y166930D02*
X47557Y166556D01*
X44908Y165459D01*
X42633Y163713D01*
X40888Y161438D01*
X39790Y158789D01*
X39416Y155946D01*
X39790Y153104D01*
X40888Y150454D01*
X42633Y148180D01*
X44908Y146434D01*
X47557Y145337D01*
X50400Y144962D01*
X53243Y145337D01*
X55892Y146434D01*
X58167Y148180D01*
X59912Y150454D01*
X61010Y153104D01*
X61384Y155946D01*
X61010Y158789D01*
X59912Y161438D01*
X58167Y163713D01*
X55892Y165459D01*
X53243Y166556D01*
X50400Y166930D01*
D02*
G37*
G36*
X25000D02*
X22157Y166556D01*
X19508Y165459D01*
X17233Y163713D01*
X15488Y161438D01*
X14390Y158789D01*
X14016Y155946D01*
X14390Y153104D01*
X15488Y150454D01*
X17233Y148180D01*
X19508Y146434D01*
X22157Y145337D01*
X25000Y144962D01*
X27843Y145337D01*
X30492Y146434D01*
X32767Y148180D01*
X34512Y150454D01*
X35610Y153104D01*
X35984Y155946D01*
X35610Y158789D01*
X34512Y161438D01*
X32767Y163713D01*
X30492Y165459D01*
X27843Y166556D01*
X25000Y166930D01*
D02*
G37*
G36*
X232377Y145730D02*
X229770D01*
Y143123D01*
X230080Y143185D01*
X231420Y144080D01*
X232315Y145420D01*
X232377Y145730D01*
D02*
G37*
G36*
X227230D02*
X224623D01*
X224685Y145420D01*
X225580Y144080D01*
X226920Y143185D01*
X227230Y143123D01*
Y145730D01*
D02*
G37*
G36*
X217270Y142190D02*
Y139583D01*
X219877D01*
X219815Y139893D01*
X218920Y141233D01*
X217580Y142128D01*
X217270Y142190D01*
D02*
G37*
G36*
X511513Y131877D02*
Y129270D01*
X514120D01*
X514058Y129580D01*
X513163Y130920D01*
X511823Y131815D01*
X511513Y131877D01*
D02*
G37*
G36*
X508973D02*
X508663Y131815D01*
X507323Y130920D01*
X506428Y129580D01*
X506366Y129270D01*
X508973D01*
Y131877D01*
D02*
G37*
G36*
X197863Y126826D02*
Y124270D01*
X200418D01*
X200361Y124561D01*
X199476Y125884D01*
X198153Y126768D01*
X197863Y126826D01*
D02*
G37*
G36*
X195323D02*
X195032Y126768D01*
X193709Y125884D01*
X192825Y124561D01*
X192767Y124270D01*
X195323D01*
Y126826D01*
D02*
G37*
G36*
X514120Y126730D02*
X511513D01*
Y124123D01*
X511823Y124185D01*
X513163Y125080D01*
X514058Y126420D01*
X514120Y126730D01*
D02*
G37*
G36*
X508973D02*
X506366D01*
X506428Y126420D01*
X507323Y125080D01*
X508663Y124185D01*
X508973Y124123D01*
Y126730D01*
D02*
G37*
G36*
X50400Y141530D02*
X47557Y141156D01*
X44908Y140059D01*
X42633Y138313D01*
X40888Y136038D01*
X39790Y133389D01*
X39416Y130546D01*
X39790Y127704D01*
X40888Y125054D01*
X42633Y122780D01*
X44908Y121034D01*
X47557Y119937D01*
X50400Y119562D01*
X53243Y119937D01*
X55892Y121034D01*
X58167Y122780D01*
X59912Y125054D01*
X61010Y127704D01*
X61384Y130546D01*
X61010Y133389D01*
X59912Y136038D01*
X58167Y138313D01*
X55892Y140059D01*
X53243Y141156D01*
X50400Y141530D01*
D02*
G37*
G36*
X617270Y93826D02*
Y91270D01*
X619826D01*
X619768Y91561D01*
X618884Y92884D01*
X617561Y93768D01*
X617270Y93826D01*
D02*
G37*
G36*
X614730D02*
X614439Y93768D01*
X613116Y92884D01*
X612232Y91561D01*
X612174Y91270D01*
X614730D01*
Y93826D01*
D02*
G37*
G36*
X557270D02*
Y91270D01*
X559826D01*
X559768Y91561D01*
X558884Y92884D01*
X557561Y93768D01*
X557270Y93826D01*
D02*
G37*
G36*
X554730D02*
X554439Y93768D01*
X553116Y92884D01*
X552232Y91561D01*
X552174Y91270D01*
X554730D01*
Y93826D01*
D02*
G37*
G36*
X497270D02*
Y91270D01*
X499826D01*
X499768Y91561D01*
X498884Y92884D01*
X497561Y93768D01*
X497270Y93826D01*
D02*
G37*
G36*
X494730D02*
X494439Y93768D01*
X493116Y92884D01*
X492232Y91561D01*
X492174Y91270D01*
X494730D01*
Y93826D01*
D02*
G37*
G36*
X317270D02*
Y91270D01*
X319826D01*
X319768Y91561D01*
X318884Y92884D01*
X317561Y93768D01*
X317270Y93826D01*
D02*
G37*
G36*
X314730D02*
X314439Y93768D01*
X313116Y92884D01*
X312232Y91561D01*
X312174Y91270D01*
X314730D01*
Y93826D01*
D02*
G37*
G36*
X77270D02*
Y91270D01*
X79826D01*
X79768Y91561D01*
X78884Y92884D01*
X77561Y93768D01*
X77270Y93826D01*
D02*
G37*
G36*
X74730D02*
X74439Y93768D01*
X73116Y92884D01*
X72232Y91561D01*
X72174Y91270D01*
X74730D01*
Y93826D01*
D02*
G37*
G36*
X412770Y88877D02*
Y86270D01*
X415377D01*
X415315Y86580D01*
X414420Y87920D01*
X413080Y88815D01*
X412770Y88877D01*
D02*
G37*
G36*
X619826Y88730D02*
X617270D01*
Y86174D01*
X617561Y86232D01*
X618884Y87116D01*
X619768Y88439D01*
X619826Y88730D01*
D02*
G37*
G36*
X614730D02*
X612174D01*
X612232Y88439D01*
X613116Y87116D01*
X614439Y86232D01*
X614730Y86174D01*
Y88730D01*
D02*
G37*
G36*
X559826D02*
X557270D01*
Y86174D01*
X557561Y86232D01*
X558884Y87116D01*
X559768Y88439D01*
X559826Y88730D01*
D02*
G37*
G36*
X554730D02*
X552174D01*
X552232Y88439D01*
X553116Y87116D01*
X554439Y86232D01*
X554730Y86174D01*
Y88730D01*
D02*
G37*
G36*
X499826D02*
X497270D01*
Y86174D01*
X497561Y86232D01*
X498884Y87116D01*
X499768Y88439D01*
X499826Y88730D01*
D02*
G37*
G36*
X494730D02*
X492174D01*
X492232Y88439D01*
X493116Y87116D01*
X494439Y86232D01*
X494730Y86174D01*
Y88730D01*
D02*
G37*
G36*
X319826D02*
X317270D01*
Y86174D01*
X317561Y86232D01*
X318884Y87116D01*
X319768Y88439D01*
X319826Y88730D01*
D02*
G37*
G36*
X314730D02*
X312174D01*
X312232Y88439D01*
X313116Y87116D01*
X314439Y86232D01*
X314730Y86174D01*
Y88730D01*
D02*
G37*
G36*
X79826D02*
X77270D01*
Y86174D01*
X77561Y86232D01*
X78884Y87116D01*
X79768Y88439D01*
X79826Y88730D01*
D02*
G37*
G36*
X74730D02*
X72174D01*
X72232Y88439D01*
X73116Y87116D01*
X74439Y86232D01*
X74730Y86174D01*
Y88730D01*
D02*
G37*
G36*
X131000Y137149D02*
X129030Y136757D01*
X127359Y135641D01*
X126243Y133970D01*
X125851Y132000D01*
X126243Y130030D01*
X126306Y129936D01*
Y89637D01*
X125903Y89033D01*
X125511Y87063D01*
X125903Y85093D01*
X127019Y83422D01*
X128689Y82306D01*
X130660Y81914D01*
X132630Y82306D01*
X134300Y83422D01*
X135417Y85093D01*
X135808Y87063D01*
X135417Y89033D01*
X135013Y89637D01*
Y128917D01*
X135757Y130030D01*
X136149Y132000D01*
X135757Y133970D01*
X134641Y135641D01*
X132970Y136757D01*
X131000Y137149D01*
D02*
G37*
G36*
X151662Y103149D02*
X149691Y102757D01*
X148021Y101641D01*
X146905Y99970D01*
X146513Y98000D01*
X146905Y96030D01*
X147238Y95531D01*
Y81574D01*
X146835Y80970D01*
X146443Y79000D01*
X146835Y77030D01*
X147951Y75359D01*
X149622Y74243D01*
X151592Y73851D01*
X153562Y74243D01*
X155233Y75359D01*
X156349Y77030D01*
X156741Y79000D01*
X156349Y80970D01*
X155946Y81574D01*
Y95322D01*
X156419Y96030D01*
X156811Y98000D01*
X156419Y99970D01*
X155303Y101641D01*
X153632Y102757D01*
X151662Y103149D01*
D02*
G37*
G36*
X512050Y48877D02*
Y46270D01*
X514657D01*
X514595Y46580D01*
X513700Y47920D01*
X512360Y48815D01*
X512050Y48877D01*
D02*
G37*
G36*
X509510D02*
X509200Y48815D01*
X507860Y47920D01*
X506965Y46580D01*
X506903Y46270D01*
X509510D01*
Y48877D01*
D02*
G37*
G36*
X514657Y43730D02*
X512050D01*
Y41123D01*
X512360Y41185D01*
X513700Y42080D01*
X514595Y43420D01*
X514657Y43730D01*
D02*
G37*
G36*
X509510D02*
X506903D01*
X506965Y43420D01*
X507860Y42080D01*
X509200Y41185D01*
X509510Y41123D01*
Y43730D01*
D02*
G37*
G36*
X236989Y34877D02*
Y32270D01*
X239596D01*
X239534Y32580D01*
X238639Y33920D01*
X237299Y34815D01*
X236989Y34877D01*
D02*
G37*
G36*
X234449D02*
X234139Y34815D01*
X232799Y33920D01*
X231904Y32580D01*
X231842Y32270D01*
X234449D01*
Y34877D01*
D02*
G37*
G36*
X31162Y53489D02*
Y31270D01*
X53381D01*
X53052Y34607D01*
X51708Y39037D01*
X49526Y43119D01*
X46589Y46698D01*
X43011Y49634D01*
X38928Y51816D01*
X34499Y53160D01*
X31162Y53489D01*
D02*
G37*
G36*
X587270Y33826D02*
Y31270D01*
X589826D01*
X589768Y31561D01*
X588884Y32884D01*
X587561Y33768D01*
X587270Y33826D01*
D02*
G37*
G36*
X584730D02*
X584439Y33768D01*
X583116Y32884D01*
X582232Y31561D01*
X582174Y31270D01*
X584730D01*
Y33826D01*
D02*
G37*
G36*
X527270D02*
Y31270D01*
X529826D01*
X529768Y31561D01*
X528884Y32884D01*
X527561Y33768D01*
X527270Y33826D01*
D02*
G37*
G36*
X524730D02*
X524439Y33768D01*
X523116Y32884D01*
X522232Y31561D01*
X522174Y31270D01*
X524730D01*
Y33826D01*
D02*
G37*
G36*
X467270D02*
Y31270D01*
X469826D01*
X469768Y31561D01*
X468884Y32884D01*
X467561Y33768D01*
X467270Y33826D01*
D02*
G37*
G36*
X464730D02*
X464439Y33768D01*
X463116Y32884D01*
X462232Y31561D01*
X462174Y31270D01*
X464730D01*
Y33826D01*
D02*
G37*
G36*
X28622Y53489D02*
X25285Y53160D01*
X20855Y51816D01*
X16773Y49634D01*
X13195Y46698D01*
X10258Y43119D01*
X8076Y39037D01*
X6732Y34607D01*
X6403Y31270D01*
X28622D01*
Y53489D01*
D02*
G37*
G36*
X621270Y53489D02*
Y31270D01*
X643489D01*
X643160Y34607D01*
X641816Y39037D01*
X639634Y43119D01*
X636697Y46697D01*
X633119Y49634D01*
X629037Y51816D01*
X624607Y53160D01*
X621270Y53489D01*
D02*
G37*
G36*
X618730D02*
X615393Y53160D01*
X610963Y51816D01*
X606881Y49634D01*
X603303Y46697D01*
X600366Y43119D01*
X598184Y39037D01*
X596840Y34607D01*
X596511Y31270D01*
X618730D01*
Y53489D01*
D02*
G37*
G36*
X589826Y28730D02*
X587270D01*
Y26174D01*
X587561Y26232D01*
X588884Y27116D01*
X589768Y28439D01*
X589826Y28730D01*
D02*
G37*
G36*
X584730D02*
X582174D01*
X582232Y28439D01*
X583116Y27116D01*
X584439Y26232D01*
X584730Y26174D01*
Y28730D01*
D02*
G37*
G36*
X529826D02*
X527270D01*
Y26174D01*
X527561Y26232D01*
X528884Y27116D01*
X529768Y28439D01*
X529826Y28730D01*
D02*
G37*
G36*
X524730D02*
X522174D01*
X522232Y28439D01*
X523116Y27116D01*
X524439Y26232D01*
X524730Y26174D01*
Y28730D01*
D02*
G37*
G36*
X469826D02*
X467270D01*
Y26174D01*
X467561Y26232D01*
X468884Y27116D01*
X469768Y28439D01*
X469826Y28730D01*
D02*
G37*
G36*
X464730D02*
X462174D01*
X462232Y28439D01*
X463116Y27116D01*
X464439Y26232D01*
X464730Y26174D01*
Y28730D01*
D02*
G37*
G36*
X410967Y27877D02*
Y25270D01*
X413573D01*
X413512Y25580D01*
X412617Y26920D01*
X411277Y27815D01*
X410967Y27877D01*
D02*
G37*
G36*
X408427D02*
X408117Y27815D01*
X406777Y26920D01*
X405882Y25580D01*
X405820Y25270D01*
X408427D01*
Y27877D01*
D02*
G37*
G36*
X413573Y22730D02*
X410967D01*
Y20123D01*
X411277Y20185D01*
X412617Y21080D01*
X413512Y22420D01*
X413573Y22730D01*
D02*
G37*
G36*
X408427D02*
X405820D01*
X405882Y22420D01*
X406777Y21080D01*
X408117Y20185D01*
X408427Y20123D01*
Y22730D01*
D02*
G37*
G36*
X53381Y28730D02*
X31162D01*
Y6511D01*
X34499Y6840D01*
X38928Y8184D01*
X43011Y10366D01*
X46589Y13303D01*
X49526Y16881D01*
X51708Y20963D01*
X53052Y25393D01*
X53381Y28730D01*
D02*
G37*
G36*
X28622D02*
X6403D01*
X6732Y25393D01*
X8076Y20963D01*
X10258Y16881D01*
X13195Y13303D01*
X16773Y10366D01*
X20855Y8184D01*
X25285Y6840D01*
X28622Y6511D01*
Y28730D01*
D02*
G37*
G36*
X643489Y28730D02*
X621270D01*
Y6511D01*
X624607Y6840D01*
X629037Y8184D01*
X633119Y10366D01*
X636697Y13303D01*
X639634Y16881D01*
X641816Y20963D01*
X643160Y25393D01*
X643489Y28730D01*
D02*
G37*
G36*
X618730D02*
X596511D01*
X596840Y25393D01*
X598184Y20963D01*
X600366Y16881D01*
X603303Y13303D01*
X606881Y10366D01*
X610963Y8184D01*
X615393Y6840D01*
X618730Y6511D01*
Y28730D01*
D02*
G37*
%LPD*%
G36*
X284398Y673683D02*
X284935D01*
X285545Y672413D01*
X284745Y670480D01*
X284418Y668000D01*
Y658000D01*
X284745Y655520D01*
X285702Y653209D01*
X287225Y651225D01*
X289209Y649702D01*
X289838Y649441D01*
Y535683D01*
X269838Y535683D01*
Y538753D01*
X273804Y542718D01*
X275019Y544537D01*
X275446Y546683D01*
X275019Y548829D01*
X273804Y550648D01*
X271984Y551864D01*
X269838Y552291D01*
X269838Y552291D01*
Y583183D01*
X259838Y593183D01*
Y639000D01*
X203000D01*
Y631530D01*
X122379Y550909D01*
X100219Y550909D01*
X100219Y575219D01*
X171000Y646000D01*
X205000Y680000D01*
X284398Y680000D01*
Y673683D01*
D02*
G37*
%LPC*%
G36*
X275270Y676406D02*
Y664270D01*
X282573D01*
Y668000D01*
X282281Y670219D01*
X281425Y672287D01*
X281227Y672544D01*
X280062Y674062D01*
X278287Y675425D01*
X276219Y676281D01*
X275270Y676406D01*
D02*
G37*
G36*
X272730Y676406D02*
X271781Y676281D01*
X269713Y675425D01*
X267938Y674062D01*
X266575Y672287D01*
X265719Y670219D01*
X265427Y668000D01*
Y664270D01*
X272730D01*
Y676406D01*
D02*
G37*
G36*
Y661730D02*
X265427D01*
Y658000D01*
X265719Y655781D01*
X266575Y653713D01*
X267938Y651938D01*
X269713Y650575D01*
X271781Y649719D01*
X272730Y649594D01*
Y661730D01*
D02*
G37*
G36*
X282573D02*
X275270D01*
Y649594D01*
X276219Y649719D01*
X278287Y650575D01*
X280062Y651938D01*
X281425Y653713D01*
X282281Y655781D01*
X282573Y658000D01*
Y661730D01*
D02*
G37*
G36*
X284398Y637500D02*
X277168D01*
Y630270D01*
X284398D01*
Y637500D01*
D02*
G37*
G36*
X274628D02*
X267398D01*
Y630270D01*
X274628D01*
Y637500D01*
D02*
G37*
G36*
X284398Y627730D02*
X277168D01*
Y620500D01*
X284398D01*
Y627730D01*
D02*
G37*
G36*
X274628D02*
X267398D01*
Y620500D01*
X274628D01*
Y627730D01*
D02*
G37*
G36*
X115986Y578501D02*
X115676Y578439D01*
X114413Y577596D01*
X114048Y577435D01*
X113208D01*
X112843Y577596D01*
X111580Y578439D01*
X111270Y578501D01*
Y574624D01*
X110000D01*
Y573354D01*
X106123D01*
X106185Y573044D01*
X107080Y571704D01*
Y570448D01*
X106185Y569109D01*
X106123Y568799D01*
X110000D01*
Y566259D01*
X106123D01*
X106185Y565948D01*
X107080Y564609D01*
Y563353D01*
X106185Y562013D01*
X106123Y561703D01*
X110000D01*
Y560433D01*
X111270D01*
Y556556D01*
X111580Y556618D01*
X112843Y557462D01*
X113208Y557622D01*
X114048D01*
X114413Y557462D01*
X115676Y556618D01*
X115986Y556556D01*
Y560433D01*
X117256D01*
Y561703D01*
X121132D01*
X121071Y562013D01*
X120176Y563353D01*
Y564609D01*
X121071Y565948D01*
X121132Y566259D01*
X117256D01*
Y568799D01*
X121132D01*
X121071Y569109D01*
X120176Y570448D01*
Y571704D01*
X121071Y573044D01*
X121132Y573354D01*
X117256D01*
Y574624D01*
X115986D01*
Y578501D01*
D02*
G37*
G36*
X118526D02*
Y575894D01*
X121132D01*
X121071Y576204D01*
X120176Y577544D01*
X118836Y578439D01*
X118526Y578501D01*
D02*
G37*
G36*
X108730D02*
X108420Y578439D01*
X107080Y577544D01*
X106185Y576204D01*
X106123Y575894D01*
X108730D01*
Y578501D01*
D02*
G37*
G36*
X121132Y559163D02*
X118526D01*
Y556556D01*
X118836Y556618D01*
X120176Y557513D01*
X121071Y558853D01*
X121132Y559163D01*
D02*
G37*
G36*
X108730D02*
X106123D01*
X106185Y558853D01*
X107080Y557513D01*
X108420Y556618D01*
X108730Y556556D01*
Y559163D01*
D02*
G37*
G36*
X281765Y553073D02*
Y550517D01*
X284321D01*
X284263Y550808D01*
X283379Y552131D01*
X282056Y553015D01*
X281765Y553073D01*
D02*
G37*
G36*
X279225D02*
X278934Y553015D01*
X277611Y552131D01*
X276727Y550808D01*
X276670Y550517D01*
X279225D01*
Y553073D01*
D02*
G37*
G36*
X284321Y547977D02*
X281765D01*
Y545421D01*
X282056Y545479D01*
X283379Y546363D01*
X284263Y547686D01*
X284321Y547977D01*
D02*
G37*
G36*
X279225D02*
X276670D01*
X276727Y547686D01*
X277611Y546363D01*
X278934Y545479D01*
X279225Y545421D01*
Y547977D01*
D02*
G37*
%LPD*%
G36*
X554745Y631520D02*
X555703Y629209D01*
X557225Y627225D01*
X558903Y625937D01*
Y623999D01*
X559291Y622048D01*
X560396Y620394D01*
X599902Y580888D01*
Y387238D01*
X598632Y386985D01*
X598298Y387791D01*
X596776Y389776D01*
X594791Y391298D01*
X592480Y392256D01*
X590000Y392582D01*
X580000D01*
X577520Y392256D01*
X575209Y391298D01*
X573225Y389776D01*
X571702Y387791D01*
X570745Y385480D01*
X570418Y383000D01*
X570745Y380520D01*
X571702Y378209D01*
X573225Y376225D01*
X575209Y374702D01*
X577520Y373745D01*
X578311Y373641D01*
Y372360D01*
X577520Y372256D01*
X575209Y371298D01*
X573225Y369776D01*
X571937Y368098D01*
X569112D01*
X557098Y380112D01*
Y433744D01*
X557149Y434000D01*
X557098Y434256D01*
Y538636D01*
X558368Y538761D01*
X558432Y538439D01*
X559316Y537116D01*
X560639Y536232D01*
X560930Y536174D01*
Y540000D01*
Y543826D01*
X560639Y543768D01*
X559316Y542884D01*
X558432Y541561D01*
X558368Y541239D01*
X557098Y541364D01*
Y605000D01*
X556710Y606951D01*
X555605Y608605D01*
X548098Y616112D01*
Y625415D01*
X548792Y625702D01*
X550776Y627225D01*
X552299Y629209D01*
X553256Y631520D01*
X553360Y632311D01*
X554641D01*
X554745Y631520D01*
D02*
G37*
%LPC*%
G36*
X582730Y584945D02*
X579000D01*
X576781Y584653D01*
X574713Y583796D01*
X572938Y582434D01*
X571575Y580658D01*
X570794Y578772D01*
X570171Y578564D01*
X569430Y578529D01*
X568920Y579291D01*
X567580Y580187D01*
X567270Y580248D01*
Y576372D01*
Y572495D01*
X567580Y572557D01*
X568920Y573452D01*
X569430Y574215D01*
X570171Y574179D01*
X570794Y573971D01*
X571575Y572085D01*
X572938Y570309D01*
X574713Y568947D01*
X576781Y568090D01*
X579000Y567798D01*
X582730D01*
Y576372D01*
Y584945D01*
D02*
G37*
G36*
X589000D02*
X585270D01*
Y577642D01*
X597406D01*
X597281Y578591D01*
X596425Y580658D01*
X595062Y582434D01*
X593287Y583796D01*
X591219Y584653D01*
X589000Y584945D01*
D02*
G37*
G36*
X564730Y580248D02*
X564420Y580187D01*
X563080Y579291D01*
X562185Y577952D01*
X562123Y577642D01*
X564730D01*
Y580248D01*
D02*
G37*
G36*
Y575102D02*
X562123D01*
X562185Y574791D01*
X563080Y573452D01*
X564420Y572557D01*
X564730Y572495D01*
Y575102D01*
D02*
G37*
G36*
X597406Y575102D02*
X585270D01*
Y567798D01*
X589000D01*
X591219Y568090D01*
X593287Y568947D01*
X595062Y570309D01*
X596425Y572085D01*
X597281Y574153D01*
X597406Y575102D01*
D02*
G37*
G36*
X563470Y543826D02*
Y541270D01*
X566026D01*
X565968Y541561D01*
X565084Y542884D01*
X563761Y543768D01*
X563470Y543826D01*
D02*
G37*
G36*
X566026Y538730D02*
X563470D01*
Y536174D01*
X563761Y536232D01*
X565084Y537116D01*
X565968Y538439D01*
X566026Y538730D01*
D02*
G37*
G36*
X589000Y565953D02*
X579000D01*
X576520Y565627D01*
X574209Y564670D01*
X572225Y563147D01*
X570702Y561163D01*
X569745Y558852D01*
X569418Y556372D01*
X569745Y553892D01*
X570702Y551581D01*
X572225Y549596D01*
X574209Y548073D01*
X576520Y547116D01*
X577311Y547012D01*
Y545731D01*
X576520Y545627D01*
X574209Y544670D01*
X572225Y543147D01*
X570702Y541162D01*
X569745Y538852D01*
X569418Y536372D01*
X569745Y533892D01*
X570702Y531581D01*
X572225Y529596D01*
X574209Y528073D01*
X576520Y527116D01*
X579000Y526790D01*
X589000D01*
X591480Y527116D01*
X593791Y528073D01*
X595775Y529596D01*
X597298Y531581D01*
X598256Y533892D01*
X598582Y536372D01*
X598256Y538852D01*
X597298Y541162D01*
X595775Y543147D01*
X593791Y544670D01*
X591480Y545627D01*
X590690Y545731D01*
Y547012D01*
X591480Y547116D01*
X593791Y548073D01*
X595775Y549596D01*
X597298Y551581D01*
X598256Y553892D01*
X598582Y556372D01*
X598256Y558852D01*
X597298Y561163D01*
X595775Y563147D01*
X593791Y564670D01*
X591480Y565627D01*
X589000Y565953D01*
D02*
G37*
G36*
X587270Y513826D02*
Y511270D01*
X589826D01*
X589768Y511561D01*
X588884Y512884D01*
X587561Y513768D01*
X587270Y513826D01*
D02*
G37*
G36*
X584730D02*
X584439Y513768D01*
X583116Y512884D01*
X582232Y511561D01*
X582174Y511270D01*
X584730D01*
Y513826D01*
D02*
G37*
G36*
X564393Y509826D02*
Y507270D01*
X566949D01*
X566891Y507561D01*
X566007Y508884D01*
X564684Y509768D01*
X564393Y509826D01*
D02*
G37*
G36*
X561853D02*
X561563Y509768D01*
X560239Y508884D01*
X559355Y507561D01*
X559298Y507270D01*
X561853D01*
Y509826D01*
D02*
G37*
G36*
X589826Y508730D02*
X587270D01*
Y506174D01*
X587561Y506232D01*
X588884Y507116D01*
X589768Y508439D01*
X589826Y508730D01*
D02*
G37*
G36*
X584730D02*
X582174D01*
X582232Y508439D01*
X583116Y507116D01*
X584439Y506232D01*
X584730Y506174D01*
Y508730D01*
D02*
G37*
G36*
X566949Y504730D02*
X564393D01*
Y502174D01*
X564684Y502232D01*
X566007Y503116D01*
X566891Y504439D01*
X566949Y504730D01*
D02*
G37*
G36*
X561853D02*
X559298D01*
X559355Y504439D01*
X560239Y503116D01*
X561563Y502232D01*
X561853Y502174D01*
Y504730D01*
D02*
G37*
G36*
X582730Y487445D02*
X579000D01*
X576781Y487153D01*
X574713Y486296D01*
X572938Y484934D01*
X571575Y483158D01*
X571210Y482276D01*
X570656Y482123D01*
X569738Y482042D01*
X568580Y482815D01*
X568270Y482877D01*
Y479000D01*
Y475123D01*
X568580Y475185D01*
X569655Y475903D01*
X570741Y475776D01*
X571144Y475626D01*
X571575Y474585D01*
X572938Y472809D01*
X574713Y471447D01*
X576781Y470590D01*
X579000Y470298D01*
X582730D01*
Y478872D01*
Y487445D01*
D02*
G37*
G36*
X565730Y482877D02*
X565420Y482815D01*
X564080Y481920D01*
X563185Y480580D01*
X563123Y480270D01*
X565730D01*
Y482877D01*
D02*
G37*
G36*
X589000Y487445D02*
X585270D01*
Y480142D01*
X597406D01*
X597281Y481091D01*
X596425Y483158D01*
X595062Y484934D01*
X593287Y486296D01*
X591219Y487153D01*
X589000Y487445D01*
D02*
G37*
G36*
X565730Y477730D02*
X563123D01*
X563185Y477420D01*
X564080Y476080D01*
X565420Y475185D01*
X565730Y475123D01*
Y477730D01*
D02*
G37*
G36*
X597406Y477602D02*
X585270D01*
Y470298D01*
X589000D01*
X591219Y470590D01*
X593287Y471447D01*
X595062Y472809D01*
X596425Y474585D01*
X597281Y476653D01*
X597406Y477602D01*
D02*
G37*
G36*
X589000Y468453D02*
X579000D01*
X576520Y468127D01*
X574209Y467170D01*
X572225Y465647D01*
X570702Y463662D01*
X569745Y461352D01*
X569418Y458872D01*
X569745Y456392D01*
X570702Y454081D01*
X572225Y452096D01*
X574209Y450573D01*
X576520Y449616D01*
X577311Y449512D01*
Y448231D01*
X576520Y448127D01*
X574209Y447170D01*
X572225Y445647D01*
X570702Y443662D01*
X569745Y441352D01*
X569418Y438872D01*
X569745Y436392D01*
X570702Y434081D01*
X572225Y432096D01*
X574209Y430573D01*
X576520Y429616D01*
X579000Y429290D01*
X589000D01*
X591480Y429616D01*
X593791Y430573D01*
X595775Y432096D01*
X597298Y434081D01*
X598256Y436392D01*
X598582Y438872D01*
X598256Y441352D01*
X597298Y443662D01*
X595775Y445647D01*
X593791Y447170D01*
X591480Y448127D01*
X590690Y448231D01*
Y449512D01*
X591480Y449616D01*
X593791Y450573D01*
X595775Y452096D01*
X597298Y454081D01*
X598256Y456392D01*
X598582Y458872D01*
X598256Y461352D01*
X597298Y463662D01*
X595775Y465647D01*
X593791Y467170D01*
X591480Y468127D01*
X589000Y468453D01*
D02*
G37*
%LPD*%
G36*
X435940Y274295D02*
Y247000D01*
Y235983D01*
X434670Y235598D01*
X434641Y235641D01*
X432970Y236757D01*
X431000Y237149D01*
X429030Y236757D01*
X427359Y235641D01*
X427214Y235424D01*
X415888Y224098D01*
X410755D01*
X410104Y225078D01*
X401850D01*
X401198Y224098D01*
X385742D01*
X385256Y225271D01*
X434766Y274781D01*
X435940Y274295D01*
D02*
G37*
G36*
Y83421D02*
Y79925D01*
X384076Y28060D01*
X318925D01*
X306560Y40425D01*
Y54000D01*
X306320Y55827D01*
X306092Y56376D01*
X306941Y57646D01*
X407000D01*
X408666Y57978D01*
X410079Y58922D01*
X434078Y82922D01*
X434670Y83806D01*
X435940Y83421D01*
D02*
G37*
%LPC*%
G36*
X407247Y230225D02*
Y227618D01*
X409853D01*
X409792Y227928D01*
X408897Y229268D01*
X407557Y230163D01*
X407247Y230225D01*
D02*
G37*
G36*
X404707D02*
X404397Y230163D01*
X403057Y229268D01*
X402162Y227928D01*
X402100Y227618D01*
X404707D01*
Y230225D01*
D02*
G37*
%LPD*%
D10*
X183000Y211998D02*
X189002Y218000D01*
X190500Y64000D02*
X191000Y64500D01*
Y79000D01*
X258000Y52000D02*
X275500D01*
X213000Y114500D02*
X275500Y52000D01*
X278500D01*
X286000D02*
X296000Y62000D01*
X278500Y52000D02*
X286000D01*
X288000Y54000D01*
X361000Y395000D02*
Y427000D01*
Y339000D02*
Y395000D01*
X374000D01*
X352900D02*
Y427000D01*
Y341900D02*
Y395000D01*
X340000D02*
X352900D01*
X487000Y152000D02*
Y174000D01*
X486000Y151000D02*
X487000Y152000D01*
X278500Y51000D02*
Y52000D01*
X184000Y107000D02*
X191500Y114500D01*
X213000D01*
X191000Y79000D02*
Y101000D01*
X130660Y131660D02*
X131000Y132000D01*
X130660Y87063D02*
Y131660D01*
X247000Y118000D02*
X253000D01*
X196000Y106000D02*
Y107000D01*
X191000Y101000D02*
X196000Y106000D01*
X242000Y123000D02*
X247000Y118000D01*
X242000Y123000D02*
Y175000D01*
Y480000D01*
X430999Y355999D02*
X431000Y356000D01*
Y356000D01*
X399855D02*
X431000D01*
X287992Y244138D02*
X399855Y356000D01*
X400000Y76000D02*
Y76838D01*
X406320Y70320D02*
Y78680D01*
X394000Y91000D02*
X406320Y78680D01*
X403000Y67000D02*
X406320Y70320D01*
X357000Y76000D02*
X391900D01*
X269000Y164000D02*
X357000Y76000D01*
X394518Y82320D02*
X400000Y76838D01*
X394000Y91000D02*
Y102000D01*
X278000Y67000D02*
X403000D01*
X183000Y162000D02*
X278000Y67000D01*
X296000Y62000D02*
X407000D01*
X431000Y86000D01*
X183000Y162000D02*
Y211998D01*
X277100Y255100D02*
X361000Y339000D01*
X277100Y164900D02*
Y255100D01*
X269000Y258000D02*
X352900Y341900D01*
X269000Y164000D02*
Y258000D01*
X359680Y82320D02*
X394518D01*
X277100Y164900D02*
X359680Y82320D01*
X361000Y427000D02*
X361000Y427000D01*
X431000Y86000D02*
Y109000D01*
X125008Y415831D02*
X126277Y414562D01*
X125008Y407731D02*
X126277Y409000D01*
X176624Y414562D02*
X180162Y418100D01*
X181000D01*
X126277Y414562D02*
X176624D01*
X126277Y409000D02*
X180000D01*
X181000Y410000D01*
X151592Y97930D02*
X151662Y98000D01*
X151592Y79000D02*
Y97930D01*
X242000Y480000D02*
X250000Y488000D01*
X376568Y562546D02*
Y611546D01*
X370568Y556545D02*
X376568Y562546D01*
D15*
X467237Y171000D02*
X479000Y182763D01*
X467000Y171000D02*
X467237D01*
X605000Y346000D02*
Y583000D01*
X564001Y623999D02*
Y639000D01*
Y623999D02*
X605000Y583000D01*
X585390Y326390D02*
X605000Y346000D01*
X585390Y305000D02*
Y326390D01*
X543000Y637999D02*
X544001Y639000D01*
X543000Y614000D02*
Y637999D01*
Y614000D02*
X552000Y605000D01*
Y434000D02*
Y605000D01*
X287992Y198006D02*
Y199992D01*
Y198006D02*
X304999Y181000D01*
X567000Y363000D02*
X585000D01*
X552000Y378000D02*
X567000Y363000D01*
X552000Y378000D02*
Y434000D01*
X403000Y94000D02*
Y151000D01*
X373000Y181000D02*
X403000Y151000D01*
X304999Y181000D02*
X373000D01*
X489000Y603051D02*
Y614000D01*
X488949Y603000D02*
X489000Y603051D01*
X488949Y362596D02*
Y603000D01*
Y362596D02*
X500000Y351545D01*
Y226000D02*
Y351545D01*
X479000Y205000D02*
X500000Y226000D01*
X479000Y182763D02*
Y205000D01*
X520000Y372500D02*
Y512000D01*
X504000Y528000D02*
X520000Y512000D01*
X515000Y218000D02*
X520000Y223000D01*
Y302000D01*
X496950Y363080D02*
X507000Y353030D01*
Y219028D02*
Y353030D01*
X487000Y199028D02*
X507000Y219028D01*
Y207000D02*
X528999D01*
X528999Y206999D01*
X495999Y421999D02*
X496950Y421048D01*
Y363080D02*
Y421048D01*
X487000Y174000D02*
Y199028D01*
X584000Y283610D02*
X585390Y285000D01*
X584000Y262000D02*
Y283610D01*
X528999Y206999D02*
X584000Y262000D01*
X319000Y202000D02*
X433000D01*
X315000Y206000D02*
X319000Y202000D01*
X406303Y308000D02*
X431000D01*
X342440Y244138D02*
X406303Y308000D01*
X354999Y219000D02*
X418000D01*
X353999Y219999D02*
X354999Y219000D01*
X351102Y211607D02*
X430000D01*
X418000Y219000D02*
X431000Y232000D01*
X432000Y213607D02*
Y222000D01*
X430000Y211607D02*
X432000Y213607D01*
X335000Y569114D02*
Y609092D01*
Y569114D02*
X352068Y552046D01*
D66*
X467000Y171000D02*
D03*
X486000Y151000D02*
D03*
X340000Y395000D02*
D03*
X374000D02*
D03*
X258000Y52000D02*
D03*
X190000Y64500D02*
D03*
X546400Y676000D02*
D03*
X521000D02*
D03*
X620000Y384400D02*
D03*
X301298Y629000D02*
D03*
X411000Y649000D02*
D03*
X218028Y629000D02*
D03*
X95000Y627000D02*
D03*
X621390Y309400D02*
D03*
X619000Y465500D02*
D03*
Y490900D02*
D03*
X621500Y556372D02*
D03*
Y581772D02*
D03*
D74*
X356568Y585545D02*
D03*
D78*
X276838Y516683D02*
D03*
D103*
X169827Y499000D02*
X180000D01*
X159629D02*
X169827D01*
X180000D02*
X247000Y566000D01*
X471750Y98000D02*
Y108250D01*
X443000Y137000D02*
X471750Y108250D01*
X299500Y37500D02*
X316000Y21000D01*
X299500Y37500D02*
Y54000D01*
X25000Y108000D02*
Y130546D01*
Y108000D02*
X112000Y21000D01*
X142000D01*
Y47000D01*
Y21000D02*
X316000D01*
X441000Y291000D02*
Y449000D01*
X456000Y234000D02*
X485000D01*
X443000Y247000D02*
X456000Y234000D01*
X365000Y227000D02*
X377000D01*
X441000Y291000D01*
X247000Y605000D02*
Y612045D01*
Y566000D02*
Y605000D01*
X441000Y449000D02*
Y612045D01*
X436400Y649000D02*
X441000Y644400D01*
Y612045D02*
Y644400D01*
X316000Y21000D02*
X387000D01*
X441000Y291000D02*
X443000Y293000D01*
X387000Y21000D02*
X443000Y77000D01*
Y137000D01*
Y247000D02*
Y293000D01*
Y137000D02*
Y247000D01*
D105*
X245838Y522683D02*
X269838Y546683D01*
X261392Y271000D02*
Y279000D01*
X271392Y289000D02*
Y408500D01*
Y419000D01*
X261392Y279000D02*
X271392Y289000D01*
X245838Y516683D02*
Y522683D01*
D111*
X620000Y670000D02*
D03*
X30000D02*
D03*
X620000Y30000D02*
D03*
X29892Y30000D02*
D03*
D112*
X50400Y130546D02*
D03*
X25000D02*
D03*
X50400Y155946D02*
D03*
X25000D02*
D03*
X50400Y181346D02*
D03*
X25000D02*
D03*
D113*
X98000Y661000D02*
D03*
X118000D02*
D03*
X564001Y639000D02*
D03*
X544001D02*
D03*
X524001D02*
D03*
X274000Y663000D02*
D03*
X294000D02*
D03*
D114*
X47654Y274400D02*
D03*
Y223600D02*
D03*
X98454D02*
D03*
Y274400D02*
D03*
X73054Y249000D02*
D03*
D115*
X29250Y387250D02*
D03*
X28750Y453750D02*
D03*
D116*
X585000Y363000D02*
D03*
Y383000D02*
D03*
X585390Y285000D02*
D03*
Y305000D02*
D03*
X584000Y438872D02*
D03*
Y458872D02*
D03*
Y478872D02*
D03*
Y536372D02*
D03*
Y556372D02*
D03*
Y576372D02*
D03*
D117*
X571800Y676000D02*
D03*
X275898Y629000D02*
D03*
X436400Y649000D02*
D03*
X243428Y629000D02*
D03*
X120400Y627000D02*
D03*
D118*
X620000Y359000D02*
D03*
X621390Y284000D02*
D03*
X619000Y440100D02*
D03*
X621500Y530972D02*
D03*
D119*
X492000Y335773D02*
D03*
X515946Y352000D02*
D03*
X189002Y218000D02*
D03*
X183000Y689000D02*
D03*
X155000Y679420D02*
D03*
X427568Y585175D02*
D03*
X408568D02*
D03*
X389568D02*
D03*
X305791Y565454D02*
D03*
X305585Y587925D02*
D03*
X318568Y581642D02*
D03*
X528000Y446000D02*
D03*
X499000Y464683D02*
D03*
X174120Y438000D02*
D03*
X358402Y458683D02*
D03*
X338402Y449512D02*
D03*
X71500Y223600D02*
D03*
X73000Y274400D02*
D03*
X29250D02*
D03*
X29892Y223146D02*
D03*
X25000Y198336D02*
D03*
X7000Y181346D02*
D03*
X409697Y24000D02*
D03*
X235719Y31000D02*
D03*
X510780Y45000D02*
D03*
X567000Y479000D02*
D03*
X566000Y576372D02*
D03*
X504000Y676000D02*
D03*
X521000Y662000D02*
D03*
X411000Y664270D02*
D03*
X396000Y649000D02*
D03*
X307500Y672149D02*
D03*
Y654187D02*
D03*
X294406Y682000D02*
D03*
X307500Y663000D02*
D03*
X167374Y655520D02*
D03*
X98000Y681000D02*
D03*
X82000Y661000D02*
D03*
X98000Y641483D02*
D03*
X95000Y613315D02*
D03*
X67697Y575454D02*
D03*
X56000Y528338D02*
D03*
X411500Y85000D02*
D03*
X406000Y193708D02*
D03*
X405977Y226348D02*
D03*
X260000Y199270D02*
D03*
X216000Y138313D02*
D03*
X228500Y147000D02*
D03*
X510243Y128000D02*
D03*
X471750Y98000D02*
D03*
X539500Y540592D02*
D03*
X299500Y54000D02*
D03*
X191000Y79000D02*
D03*
X131000Y132000D02*
D03*
X130660Y87063D02*
D03*
X253000Y118000D02*
D03*
X196000Y107000D02*
D03*
X142000Y47000D02*
D03*
X430999Y355999D02*
D03*
X287992Y244138D02*
D03*
X400000Y76000D02*
D03*
X391900D02*
D03*
X287992Y199992D02*
D03*
X394000Y102000D02*
D03*
X361000Y427000D02*
D03*
X352900D02*
D03*
X552000Y434000D02*
D03*
X117256Y574624D02*
D03*
Y560433D02*
D03*
Y567529D02*
D03*
X110000D02*
D03*
Y560433D02*
D03*
Y574624D02*
D03*
X403000Y94000D02*
D03*
X125008Y415831D02*
D03*
Y407731D02*
D03*
X181000Y418100D02*
D03*
Y410000D02*
D03*
X489000Y614000D02*
D03*
X479000Y182763D02*
D03*
X520000Y372500D02*
D03*
X507000Y207000D02*
D03*
X515000Y218000D02*
D03*
X485000Y234000D02*
D03*
X495999Y421999D02*
D03*
X487000Y174000D02*
D03*
X520000Y302000D02*
D03*
X433000Y202000D02*
D03*
X315000Y206000D02*
D03*
X342440Y244138D02*
D03*
X365000Y227000D02*
D03*
X353999Y219999D02*
D03*
X351102Y211607D02*
D03*
X431000Y308000D02*
D03*
X504000Y528000D02*
D03*
X431000Y232000D02*
D03*
X432000Y222000D02*
D03*
X151662Y98000D02*
D03*
X151592Y79000D02*
D03*
X335000Y609092D02*
D03*
D120*
X636023Y679454D02*
D03*
X629454Y653977D02*
D03*
X603977Y660546D02*
D03*
X610546Y686023D02*
D03*
X639125Y670000D02*
D03*
X620000Y650875D02*
D03*
X600875Y670000D02*
D03*
X636023Y660000D02*
D03*
X610000Y653977D02*
D03*
X603977Y680000D02*
D03*
X630000Y686023D02*
D03*
X620000Y689125D02*
D03*
X46023Y679454D02*
D03*
X39454Y653977D02*
D03*
X13977Y660546D02*
D03*
X20546Y686023D02*
D03*
X49125Y670000D02*
D03*
X30000Y650875D02*
D03*
X10875Y670000D02*
D03*
X46023Y660000D02*
D03*
X20000Y653977D02*
D03*
X13977Y680000D02*
D03*
X40000Y686023D02*
D03*
X30000Y689125D02*
D03*
X636023Y39454D02*
D03*
X629454Y13977D02*
D03*
X603977Y20546D02*
D03*
X610546Y46023D02*
D03*
X639125Y30000D02*
D03*
X620000Y10875D02*
D03*
X600875Y30000D02*
D03*
X636023Y20000D02*
D03*
X610000Y13977D02*
D03*
X603977Y40000D02*
D03*
X630000Y46023D02*
D03*
X620000Y49125D02*
D03*
X29892Y49125D02*
D03*
X39892Y46023D02*
D03*
X13869Y40000D02*
D03*
X19892Y13977D02*
D03*
X45915Y20000D02*
D03*
X10767Y30000D02*
D03*
X29892Y10875D02*
D03*
X49017Y30000D02*
D03*
X20438Y46023D02*
D03*
X13869Y20546D02*
D03*
X39346Y13977D02*
D03*
X45915Y39454D02*
D03*
X363568Y585545D02*
D03*
X349568D02*
D03*
X282338Y522183D02*
D03*
Y511183D02*
D03*
X271338D02*
D03*
Y522183D02*
D03*
X496000Y580000D02*
D03*
X519714Y579000D02*
D03*
X539210Y578000D02*
D03*
X562200Y540000D02*
D03*
X563123Y506000D02*
D03*
X541390Y507116D02*
D03*
X498000Y480142D02*
D03*
X479000Y485000D02*
D03*
X454250Y533790D02*
D03*
Y513790D02*
D03*
Y493790D02*
D03*
X454000Y471000D02*
D03*
X428674Y533790D02*
D03*
Y513790D02*
D03*
Y493790D02*
D03*
X428424Y471000D02*
D03*
X226000Y410000D02*
D03*
X324250Y390994D02*
D03*
Y370994D02*
D03*
X324000Y348204D02*
D03*
X304250Y400124D02*
D03*
Y380124D02*
D03*
Y360124D02*
D03*
X304000Y337334D02*
D03*
X286250Y369547D02*
D03*
Y349547D02*
D03*
Y329547D02*
D03*
X286000Y306757D02*
D03*
X256461Y408790D02*
D03*
Y388790D02*
D03*
Y368790D02*
D03*
X256211Y346000D02*
D03*
X226034Y373770D02*
D03*
Y353770D02*
D03*
Y333770D02*
D03*
X225784Y310980D02*
D03*
X586000Y630000D02*
D03*
X616000Y570000D02*
D03*
X586000Y510000D02*
D03*
X616000Y330000D02*
D03*
Y210000D02*
D03*
X586000Y150000D02*
D03*
X616000Y90000D02*
D03*
X586000Y30000D02*
D03*
X556000Y330000D02*
D03*
Y210000D02*
D03*
X526000Y150000D02*
D03*
X556000Y90000D02*
D03*
X526000Y30000D02*
D03*
X466000Y630000D02*
D03*
Y270000D02*
D03*
X496000Y90000D02*
D03*
X466000Y30000D02*
D03*
X406000Y510000D02*
D03*
Y390000D02*
D03*
X346000Y510000D02*
D03*
Y150000D02*
D03*
X316000Y570000D02*
D03*
X286000Y390000D02*
D03*
X316000Y330000D02*
D03*
Y90000D02*
D03*
X226000Y390000D02*
D03*
X256000Y330000D02*
D03*
X166000Y150000D02*
D03*
X136000Y210000D02*
D03*
X46000Y630000D02*
D03*
Y510000D02*
D03*
X76000Y330000D02*
D03*
Y210000D02*
D03*
Y90000D02*
D03*
X46000Y30000D02*
D03*
X144290Y395000D02*
D03*
X161558Y426000D02*
D03*
X203067Y487683D02*
D03*
X198000Y499159D02*
D03*
X234000Y464683D02*
D03*
X258588Y495255D02*
D03*
X298000Y492000D02*
D03*
X295000Y545712D02*
D03*
X295088Y535324D02*
D03*
X479000Y587545D02*
D03*
X510869Y379609D02*
D03*
X196593Y123000D02*
D03*
X186991Y238989D02*
D03*
X159629Y499000D02*
D03*
X169827D02*
D03*
X269838Y546683D02*
D03*
X219000Y508183D02*
D03*
X159825Y345000D02*
D03*
X186302Y329240D02*
D03*
X278500Y52000D02*
D03*
X184000Y107000D02*
D03*
X242000Y175000D02*
D03*
X152862Y277000D02*
D03*
X441000Y449000D02*
D03*
X271399Y397000D02*
D03*
X271392Y408500D02*
D03*
X261392Y271000D02*
D03*
X247000Y605000D02*
D03*
Y612045D02*
D03*
X121500Y372500D02*
D03*
Y434500D02*
D03*
X69500Y403500D02*
D03*
X250000Y488000D02*
D03*
X431000Y109000D02*
D03*
X57324Y238000D02*
D03*
Y260000D02*
D03*
X89554D02*
D03*
X89892Y238000D02*
D03*
X112384D02*
D03*
Y260000D02*
D03*
X127776Y261116D02*
D03*
X128162Y238237D02*
D03*
X144000Y243922D02*
D03*
X151000Y261116D02*
D03*
X127892Y277000D02*
D03*
X441000Y612045D02*
D03*
X241838Y535683D02*
D03*
X245838Y516683D02*
D03*
X152862Y312030D02*
D03*
Y350020D02*
D03*
X280495Y549247D02*
D03*
X127892Y352500D02*
D03*
X135392Y367500D02*
D03*
X261392Y279000D02*
D03*
X271392Y419000D02*
D03*
X376568Y611546D02*
D03*
X370568Y556545D02*
D03*
X352068Y552046D02*
D03*
X163552Y317780D02*
D03*
X152892Y374480D02*
D03*
X186552Y352030D02*
D03*
Y372030D02*
D03*
Y392030D02*
D03*
X127892Y312030D02*
D03*
M02*
