G04*
G04 #@! TF.GenerationSoftware,Altium Limited,Altium Designer,18.1.9 (240)*
G04*
G04 Layer_Color=32896*
%FSLAX44Y44*%
%MOMM*%
G71*
G01*
G75*
%ADD10C,0.2540*%
%ADD14C,0.2000*%
%ADD15C,0.4000*%
%ADD121C,0.3000*%
D10*
X130414Y650000D02*
G03*
X130414Y650000I-1414J0D01*
G01*
X514415Y650000D02*
G03*
X514415Y650000I-1414J0D01*
G01*
X597414Y394000D02*
G03*
X597414Y394000I-1414J0D01*
G01*
X306414Y652000D02*
G03*
X306414Y652000I-1414J0D01*
G01*
X597804Y316000D02*
G03*
X597804Y316000I-1414J0D01*
G01*
X596414Y489872D02*
G03*
X596414Y489872I-1414J0D01*
G01*
Y587372D02*
G03*
X596414Y587372I-1414J0D01*
G01*
D14*
X455000Y177024D02*
X447003D01*
X451001D01*
Y165028D01*
X443004D02*
Y177024D01*
X437006D01*
X435006Y175025D01*
Y171026D01*
X437006Y169027D01*
X443004D01*
X423010Y165028D02*
X431008D01*
X423010Y173026D01*
Y175025D01*
X425010Y177024D01*
X429008D01*
X431008Y175025D01*
X474000Y157024D02*
X466003D01*
X470001D01*
Y145028D01*
X462004D02*
Y157024D01*
X456006D01*
X454007Y155025D01*
Y151026D01*
X456006Y149027D01*
X462004D01*
X450008Y155025D02*
X448008Y157024D01*
X444010D01*
X442010Y155025D01*
Y153026D01*
X444010Y151026D01*
X446009D01*
X444010D01*
X442010Y149027D01*
Y147028D01*
X444010Y145028D01*
X448008D01*
X450008Y147028D01*
X328000Y401024D02*
X320003D01*
X324001D01*
Y389028D01*
X316004D02*
Y401024D01*
X310006D01*
X308006Y399025D01*
Y395026D01*
X310006Y393027D01*
X316004D01*
X298010Y389028D02*
Y401024D01*
X304008Y395026D01*
X296010D01*
X418000Y400996D02*
X410003D01*
X414001D01*
Y389000D01*
X406004D02*
Y400996D01*
X400006D01*
X398007Y398997D01*
Y394998D01*
X400006Y392999D01*
X406004D01*
X386010Y400996D02*
X394008D01*
Y394998D01*
X390009Y396997D01*
X388010D01*
X386010Y394998D01*
Y390999D01*
X388010Y389000D01*
X392008D01*
X394008Y390999D01*
X246000Y58024D02*
X238003D01*
X242001D01*
Y46028D01*
X234004D02*
Y58024D01*
X228006D01*
X226007Y56025D01*
Y52026D01*
X228006Y50027D01*
X234004D01*
X214010Y58024D02*
X218009Y56025D01*
X222008Y52026D01*
Y48028D01*
X220008Y46028D01*
X216010D01*
X214010Y48028D01*
Y50027D01*
X216010Y52026D01*
X222008D01*
X178000Y70524D02*
X170003D01*
X174001D01*
Y58528D01*
X166004D02*
Y70524D01*
X160006D01*
X158006Y68525D01*
Y64526D01*
X160006Y62527D01*
X166004D01*
X154008Y70524D02*
X146010D01*
Y68525D01*
X154008Y60528D01*
Y58528D01*
D15*
X553000Y571000D02*
X533007D01*
Y561003D01*
X536339Y557671D01*
X543003D01*
X546335Y561003D01*
Y571000D01*
X533007Y551006D02*
X553000D01*
X543003D01*
Y537677D01*
X533007D01*
X553000D01*
D121*
X533005Y318004D02*
X530006Y321003D01*
Y327001D01*
X533005Y330000D01*
X545001D01*
X548000Y327001D01*
Y321003D01*
X545001Y318004D01*
X530006Y303009D02*
Y309007D01*
X533005Y312006D01*
X545001D01*
X548000Y309007D01*
Y303009D01*
X545001Y300010D01*
X533005D01*
X530006Y303009D01*
X548000Y294012D02*
X530006D01*
X548000Y282015D01*
X530006D01*
Y276017D02*
X548000D01*
Y267020D01*
X545001Y264021D01*
X533005D01*
X530006Y267020D01*
Y276017D01*
X264000Y592006D02*
Y610000D01*
X272997D01*
X275996Y607001D01*
Y604002D01*
X272997Y601003D01*
X264000D01*
X272997D01*
X275996Y598004D01*
Y595005D01*
X272997Y592006D01*
X264000D01*
X281994Y610000D02*
Y598004D01*
X287992Y592006D01*
X293990Y598004D01*
Y610000D01*
Y601003D01*
X281994D01*
X299988Y592006D02*
X311985D01*
X305986D01*
Y610000D01*
X76996Y593005D02*
X73997Y590006D01*
X67999D01*
X65000Y593005D01*
Y596004D01*
X67999Y599003D01*
X73997D01*
X76996Y602002D01*
Y605001D01*
X73997Y608000D01*
X67999D01*
X65000Y605001D01*
X91991Y590006D02*
X85993D01*
X82994Y593005D01*
Y605001D01*
X85993Y608000D01*
X91991D01*
X94990Y605001D01*
Y593005D01*
X91991Y590006D01*
X100988D02*
Y608000D01*
X112985D01*
X118982D02*
Y596004D01*
X124981Y590006D01*
X130979Y596004D01*
Y608000D01*
Y599003D01*
X118982D01*
X136977Y608000D02*
Y590006D01*
X145974D01*
X148973Y593005D01*
Y599003D01*
X145974Y602002D01*
X136977D01*
X142975D02*
X148973Y608000D01*
X532006Y495000D02*
Y483004D01*
Y489002D01*
X550000D01*
X532006Y477006D02*
X547001D01*
X550000Y474007D01*
Y468009D01*
X547001Y465010D01*
X532006D01*
X550000Y459012D02*
X532006D01*
Y450015D01*
X535005Y447015D01*
X541003D01*
X544002Y450015D01*
Y459012D01*
Y453014D02*
X550000Y447015D01*
X532006Y441017D02*
X550000D01*
Y432020D01*
X547001Y429021D01*
X544002D01*
X541003Y432020D01*
Y441017D01*
Y432020D01*
X538004Y429021D01*
X535005D01*
X532006Y432020D01*
Y441017D01*
X562004Y609995D02*
X565003Y612994D01*
X571001D01*
X574000Y609995D01*
Y597999D01*
X571001Y595000D01*
X565003D01*
X562004Y597999D01*
X547009Y612994D02*
X553007D01*
X556006Y609995D01*
Y597999D01*
X553007Y595000D01*
X547009D01*
X544010Y597999D01*
Y609995D01*
X547009Y612994D01*
X538012Y595000D02*
Y612994D01*
X526016Y595000D01*
Y612994D01*
X520018D02*
Y595000D01*
X511020D01*
X508021Y597999D01*
Y609995D01*
X511020Y612994D01*
X520018D01*
X532006Y408000D02*
Y396004D01*
Y402002D01*
X550000D01*
X532006Y378010D02*
Y390006D01*
X550000D01*
Y378010D01*
X541003Y390006D02*
Y384008D01*
X550000Y372012D02*
X532006D01*
X538004Y366014D01*
X532006Y360015D01*
X550000D01*
Y354017D02*
X532006D01*
Y345020D01*
X535005Y342021D01*
X541003D01*
X544002Y345020D01*
Y354017D01*
M02*
