G04*
G04 #@! TF.GenerationSoftware,Altium Limited,Altium Designer,18.1.9 (240)*
G04*
G04 Layer_Color=16711935*
%FSLAX44Y44*%
%MOMM*%
G71*
G01*
G75*
%ADD17C,1.7032*%
%ADD25R,2.6032X1.6932*%
%ADD29R,2.2532X2.2532*%
%ADD54C,4.7032*%
%ADD55C,1.9812*%
%ADD56O,1.7032X2.7032*%
%ADD57C,2.4652*%
%ADD58O,1.8032X1.3032*%
%ADD59O,2.7032X1.7032*%
%ADD60R,1.7032X1.7032*%
%ADD61R,1.7032X1.7032*%
%ADD62C,0.8132*%
%ADD63C,0.8032*%
D17*
X467000Y171000D02*
D03*
X486000Y151000D02*
D03*
X340000Y395000D02*
D03*
X374000D02*
D03*
X258000Y52000D02*
D03*
X190000Y64500D02*
D03*
X546400Y676000D02*
D03*
X521000D02*
D03*
X620000Y384400D02*
D03*
X301298Y629000D02*
D03*
X411000Y649000D02*
D03*
X218028Y629000D02*
D03*
X95000Y627000D02*
D03*
X621390Y309400D02*
D03*
X619000Y465500D02*
D03*
Y490900D02*
D03*
X621500Y556372D02*
D03*
Y581772D02*
D03*
D25*
X356568Y585545D02*
D03*
D29*
X276838Y516683D02*
D03*
D54*
X620000Y670000D02*
D03*
X30000D02*
D03*
X620000Y30000D02*
D03*
X29892Y30000D02*
D03*
D55*
X50400Y130546D02*
D03*
X25000D02*
D03*
X50400Y155946D02*
D03*
X25000D02*
D03*
X50400Y181346D02*
D03*
X25000D02*
D03*
D56*
X98000Y661000D02*
D03*
X118000D02*
D03*
X564001Y639000D02*
D03*
X544001D02*
D03*
X524001D02*
D03*
X274000Y663000D02*
D03*
X294000D02*
D03*
D57*
X47654Y274400D02*
D03*
Y223600D02*
D03*
X98454D02*
D03*
Y274400D02*
D03*
X73054Y249000D02*
D03*
D58*
X29250Y387250D02*
D03*
X28750Y453750D02*
D03*
D59*
X585000Y363000D02*
D03*
Y383000D02*
D03*
X585390Y285000D02*
D03*
Y305000D02*
D03*
X584000Y438872D02*
D03*
Y458872D02*
D03*
Y478872D02*
D03*
Y536372D02*
D03*
Y556372D02*
D03*
Y576372D02*
D03*
D60*
X571800Y676000D02*
D03*
X275898Y629000D02*
D03*
X436400Y649000D02*
D03*
X243428Y629000D02*
D03*
X120400Y627000D02*
D03*
D61*
X620000Y359000D02*
D03*
X621390Y284000D02*
D03*
X619000Y440100D02*
D03*
X621500Y530972D02*
D03*
D62*
X492000Y335773D02*
D03*
X515946Y352000D02*
D03*
X189002Y218000D02*
D03*
X183000Y689000D02*
D03*
X155000Y679420D02*
D03*
X427568Y585175D02*
D03*
X408568D02*
D03*
X389568D02*
D03*
X305791Y565454D02*
D03*
X305585Y587925D02*
D03*
X318568Y581642D02*
D03*
X528000Y446000D02*
D03*
X499000Y464683D02*
D03*
X174120Y438000D02*
D03*
X358402Y458683D02*
D03*
X338402Y449512D02*
D03*
X71500Y223600D02*
D03*
X73000Y274400D02*
D03*
X29250D02*
D03*
X29892Y223146D02*
D03*
X25000Y198336D02*
D03*
X7000Y181346D02*
D03*
X409697Y24000D02*
D03*
X235719Y31000D02*
D03*
X510780Y45000D02*
D03*
X567000Y479000D02*
D03*
X566000Y576372D02*
D03*
X504000Y676000D02*
D03*
X521000Y662000D02*
D03*
X411000Y664270D02*
D03*
X396000Y649000D02*
D03*
X307500Y672149D02*
D03*
Y654187D02*
D03*
X294406Y682000D02*
D03*
X307500Y663000D02*
D03*
X167374Y655520D02*
D03*
X98000Y681000D02*
D03*
X82000Y661000D02*
D03*
X98000Y641483D02*
D03*
X95000Y613315D02*
D03*
X67697Y575454D02*
D03*
X56000Y528338D02*
D03*
X411500Y85000D02*
D03*
X406000Y193708D02*
D03*
X405977Y226348D02*
D03*
X260000Y199270D02*
D03*
X216000Y138313D02*
D03*
X228500Y147000D02*
D03*
X510243Y128000D02*
D03*
X471750Y98000D02*
D03*
X539500Y540592D02*
D03*
X299500Y54000D02*
D03*
X191000Y79000D02*
D03*
X131000Y132000D02*
D03*
X130660Y87063D02*
D03*
X253000Y118000D02*
D03*
X196000Y107000D02*
D03*
X142000Y47000D02*
D03*
X430999Y355999D02*
D03*
X287992Y244138D02*
D03*
X400000Y76000D02*
D03*
X391900D02*
D03*
X287992Y199992D02*
D03*
X394000Y102000D02*
D03*
X361000Y427000D02*
D03*
X352900D02*
D03*
X552000Y434000D02*
D03*
X117256Y574624D02*
D03*
Y560433D02*
D03*
Y567529D02*
D03*
X110000D02*
D03*
Y560433D02*
D03*
Y574624D02*
D03*
X403000Y94000D02*
D03*
X125008Y415831D02*
D03*
Y407731D02*
D03*
X181000Y418100D02*
D03*
Y410000D02*
D03*
X489000Y614000D02*
D03*
X479000Y182763D02*
D03*
X520000Y372500D02*
D03*
X507000Y207000D02*
D03*
X515000Y218000D02*
D03*
X485000Y234000D02*
D03*
X495999Y421999D02*
D03*
X487000Y174000D02*
D03*
X520000Y302000D02*
D03*
X433000Y202000D02*
D03*
X315000Y206000D02*
D03*
X342440Y244138D02*
D03*
X365000Y227000D02*
D03*
X353999Y219999D02*
D03*
X351102Y211607D02*
D03*
X431000Y308000D02*
D03*
X504000Y528000D02*
D03*
X431000Y232000D02*
D03*
X432000Y222000D02*
D03*
X151662Y98000D02*
D03*
X151592Y79000D02*
D03*
X335000Y609092D02*
D03*
D63*
X636023Y679454D02*
D03*
X629454Y653977D02*
D03*
X603977Y660546D02*
D03*
X610546Y686023D02*
D03*
X639125Y670000D02*
D03*
X620000Y650875D02*
D03*
X600875Y670000D02*
D03*
X636023Y660000D02*
D03*
X610000Y653977D02*
D03*
X603977Y680000D02*
D03*
X630000Y686023D02*
D03*
X620000Y689125D02*
D03*
X46023Y679454D02*
D03*
X39454Y653977D02*
D03*
X13977Y660546D02*
D03*
X20546Y686023D02*
D03*
X49125Y670000D02*
D03*
X30000Y650875D02*
D03*
X10875Y670000D02*
D03*
X46023Y660000D02*
D03*
X20000Y653977D02*
D03*
X13977Y680000D02*
D03*
X40000Y686023D02*
D03*
X30000Y689125D02*
D03*
X636023Y39454D02*
D03*
X629454Y13977D02*
D03*
X603977Y20546D02*
D03*
X610546Y46023D02*
D03*
X639125Y30000D02*
D03*
X620000Y10875D02*
D03*
X600875Y30000D02*
D03*
X636023Y20000D02*
D03*
X610000Y13977D02*
D03*
X603977Y40000D02*
D03*
X630000Y46023D02*
D03*
X620000Y49125D02*
D03*
X29892Y49125D02*
D03*
X39892Y46023D02*
D03*
X13869Y40000D02*
D03*
X19892Y13977D02*
D03*
X45915Y20000D02*
D03*
X10767Y30000D02*
D03*
X29892Y10875D02*
D03*
X49017Y30000D02*
D03*
X20438Y46023D02*
D03*
X13869Y20546D02*
D03*
X39346Y13977D02*
D03*
X45915Y39454D02*
D03*
X363568Y585545D02*
D03*
X349568D02*
D03*
X282338Y522183D02*
D03*
Y511183D02*
D03*
X271338D02*
D03*
Y522183D02*
D03*
X496000Y580000D02*
D03*
X519714Y579000D02*
D03*
X539210Y578000D02*
D03*
X562200Y540000D02*
D03*
X563123Y506000D02*
D03*
X541390Y507116D02*
D03*
X498000Y480142D02*
D03*
X479000Y485000D02*
D03*
X454250Y533790D02*
D03*
Y513790D02*
D03*
Y493790D02*
D03*
X454000Y471000D02*
D03*
X428674Y533790D02*
D03*
Y513790D02*
D03*
Y493790D02*
D03*
X428424Y471000D02*
D03*
X226000Y410000D02*
D03*
X324250Y390994D02*
D03*
Y370994D02*
D03*
X324000Y348204D02*
D03*
X304250Y400124D02*
D03*
Y380124D02*
D03*
Y360124D02*
D03*
X304000Y337334D02*
D03*
X286250Y369547D02*
D03*
Y349547D02*
D03*
Y329547D02*
D03*
X286000Y306757D02*
D03*
X256461Y408790D02*
D03*
Y388790D02*
D03*
Y368790D02*
D03*
X256211Y346000D02*
D03*
X226034Y373770D02*
D03*
Y353770D02*
D03*
Y333770D02*
D03*
X225784Y310980D02*
D03*
X586000Y630000D02*
D03*
X616000Y570000D02*
D03*
X586000Y510000D02*
D03*
X616000Y330000D02*
D03*
Y210000D02*
D03*
X586000Y150000D02*
D03*
X616000Y90000D02*
D03*
X586000Y30000D02*
D03*
X556000Y330000D02*
D03*
Y210000D02*
D03*
X526000Y150000D02*
D03*
X556000Y90000D02*
D03*
X526000Y30000D02*
D03*
X466000Y630000D02*
D03*
Y270000D02*
D03*
X496000Y90000D02*
D03*
X466000Y30000D02*
D03*
X406000Y510000D02*
D03*
Y390000D02*
D03*
X346000Y510000D02*
D03*
Y150000D02*
D03*
X316000Y570000D02*
D03*
X286000Y390000D02*
D03*
X316000Y330000D02*
D03*
Y90000D02*
D03*
X226000Y390000D02*
D03*
X256000Y330000D02*
D03*
X166000Y150000D02*
D03*
X136000Y210000D02*
D03*
X46000Y630000D02*
D03*
Y510000D02*
D03*
X76000Y330000D02*
D03*
Y210000D02*
D03*
Y90000D02*
D03*
X46000Y30000D02*
D03*
X144290Y395000D02*
D03*
X161558Y426000D02*
D03*
X203067Y487683D02*
D03*
X198000Y499159D02*
D03*
X234000Y464683D02*
D03*
X258588Y495255D02*
D03*
X298000Y492000D02*
D03*
X295000Y545712D02*
D03*
X295088Y535324D02*
D03*
X479000Y587545D02*
D03*
X510869Y379609D02*
D03*
X196593Y123000D02*
D03*
X186991Y238989D02*
D03*
X159629Y499000D02*
D03*
X169827D02*
D03*
X269838Y546683D02*
D03*
X219000Y508183D02*
D03*
X159825Y345000D02*
D03*
X186302Y329240D02*
D03*
X278500Y52000D02*
D03*
X184000Y107000D02*
D03*
X242000Y175000D02*
D03*
X152862Y277000D02*
D03*
X441000Y449000D02*
D03*
X271399Y397000D02*
D03*
X271392Y408500D02*
D03*
X261392Y271000D02*
D03*
X247000Y605000D02*
D03*
Y612045D02*
D03*
X121500Y372500D02*
D03*
Y434500D02*
D03*
X69500Y403500D02*
D03*
X250000Y488000D02*
D03*
X431000Y109000D02*
D03*
X57324Y238000D02*
D03*
Y260000D02*
D03*
X89554D02*
D03*
X89892Y238000D02*
D03*
X112384D02*
D03*
Y260000D02*
D03*
X127776Y261116D02*
D03*
X128162Y238237D02*
D03*
X144000Y243922D02*
D03*
X151000Y261116D02*
D03*
X127892Y277000D02*
D03*
X441000Y612045D02*
D03*
X241838Y535683D02*
D03*
X245838Y516683D02*
D03*
X152862Y312030D02*
D03*
Y350020D02*
D03*
X280495Y549247D02*
D03*
X127892Y352500D02*
D03*
X135392Y367500D02*
D03*
X261392Y279000D02*
D03*
X271392Y419000D02*
D03*
X376568Y611546D02*
D03*
X370568Y556545D02*
D03*
X352068Y552046D02*
D03*
X163552Y317780D02*
D03*
X152892Y374480D02*
D03*
X186552Y352030D02*
D03*
Y372030D02*
D03*
Y392030D02*
D03*
X127892Y312030D02*
D03*
M02*
